<svg width="614" height="390" viewBox="0 0 614 390" fill="none" xmlns="http://www.w3.org/2000/svg">
<g id="box-figma 1">
<g id="box-figma">
<g id="box" class="box">
<path id="figny9-box" d="M587 20H28V306H587V20Z" fill="#5FE36A" fill-opacity="0.05" stroke="#FCEE0A" stroke-width="2"/>
<path id="figny9-adjust-1" d="M33 15H23V25H33V15Z" fill="white" stroke="#FCEE0A" stroke-width="2"/>
<path id="figny9-adjust-3" d="M33 301H23V311H33V301Z" fill="white" stroke="#FCEE0A" stroke-width="2"/>
<path id="figny9-adjust-4" d="M592 301H582V311H592V301Z" fill="white" stroke="#FCEE0A" stroke-width="2"/>
<path id="figny9-adjust-2" d="M592 15H582V25H592V15Z" fill="white" stroke="#FCEE0A" stroke-width="2"/>
</g>
<g id="cursor" class="cursor">
<path id="Vector 273" d="M400.5 343L395 317L418.5 331L407 333.5L400.5 343Z" fill="#FCEE0A" stroke="white" stroke-width="2"/>
</g>
</g>
<path id="text" class="text__boxplc" d="M102.53 120.383H126.22V124.617H116.492V150H112.258V124.617H102.53V120.383ZM159.263 120.383V150H155.029V137.319H138.072V150H133.838V120.383H138.072V133.085H155.029V120.383H159.263ZM169.422 120.383H191.004V124.617H173.655V133.085H188.464V137.319H173.655V145.766H191.004V150H169.422V120.383ZM238.502 130.958C238.502 135.088 236.74 137.443 233.215 138.021L238.791 150H234.103L228.609 138.166H219.336V150H215.102V120.383H231.315C236.106 120.383 238.502 122.786 238.502 127.591V130.958ZM219.336 133.932H231.087C232.217 133.932 233.029 133.684 233.525 133.188C234.02 132.692 234.268 131.88 234.268 130.751V127.798C234.268 126.669 234.02 125.856 233.525 125.361C233.029 124.865 232.217 124.617 231.087 124.617H219.336V133.932ZM248.124 120.383H269.707V124.617H252.358V133.085H267.166V137.319H252.358V145.766H269.707V150H248.124V120.383ZM291.7 120.383L303.121 150H298.887L296.264 143.184H282.902L280.279 150H276.045L287.466 120.383H291.7ZM284.513 138.95H294.633L289.593 125.898L284.513 138.95ZM314.974 120.383V145.766H330.195V150H310.74V120.383H314.974ZM354.995 120.383L363.608 134.221L372.241 120.383H377.156L365.735 138.248V150H361.501V138.248L350.08 120.383H354.995ZM409.745 145.766C409.745 146.344 409.635 146.895 409.414 147.418C409.194 147.928 408.891 148.375 408.506 148.761C408.12 149.146 407.666 149.449 407.142 149.67C406.633 149.89 406.089 150 405.511 150H388.596C388.017 150 387.467 149.89 386.943 149.67C386.434 149.449 385.986 149.146 385.601 148.761C385.215 148.375 384.912 147.928 384.692 147.418C384.472 146.895 384.362 146.344 384.362 145.766V124.617C384.362 124.039 384.472 123.495 384.692 122.985C384.912 122.462 385.215 122.015 385.601 121.643C385.986 121.257 386.434 120.955 386.943 120.734C387.467 120.5 388.017 120.383 388.596 120.383H405.511C406.089 120.383 406.633 120.5 407.142 120.734C407.666 120.955 408.12 121.257 408.506 121.643C408.891 122.015 409.194 122.462 409.414 122.985C409.635 123.495 409.745 124.039 409.745 124.617V145.766ZM388.596 124.617V145.766H405.511V124.617H388.596ZM419.904 120.383H424.138V145.766H441.053V120.383H445.287V145.766C445.287 146.344 445.176 146.895 444.956 147.418C444.736 147.928 444.433 148.375 444.047 148.761C443.662 149.146 443.208 149.449 442.684 149.67C442.175 149.89 441.631 150 441.053 150H424.138C423.559 150 423.009 149.89 422.485 149.67C421.976 149.449 421.528 149.146 421.143 148.761C420.757 148.375 420.454 147.928 420.234 147.418C420.014 146.895 419.904 146.344 419.904 145.766V120.383ZM474.899 120.383V150H470.665V120.383H474.899ZM489.291 137.319C488.713 137.319 488.162 137.209 487.639 136.988C487.13 136.754 486.682 136.451 486.297 136.08C485.911 135.694 485.608 135.247 485.388 134.737C485.168 134.214 485.058 133.663 485.058 133.085V124.617C485.058 124.039 485.168 123.495 485.388 122.985C485.608 122.462 485.911 122.015 486.297 121.643C486.682 121.257 487.13 120.955 487.639 120.734C488.162 120.5 488.713 120.383 489.291 120.383H503.666C504.245 120.383 504.788 120.5 505.298 120.734C505.821 120.955 506.275 121.257 506.661 121.643C507.046 122.015 507.349 122.462 507.57 122.985C507.79 123.495 507.9 124.039 507.9 124.617V128.438H503.666V124.617H489.291V133.085H503.666C504.245 133.085 504.788 133.195 505.298 133.415C505.821 133.636 506.275 133.939 506.661 134.324C507.046 134.71 507.349 135.164 507.57 135.687C507.79 136.197 507.9 136.741 507.9 137.319V145.766C507.9 146.344 507.79 146.895 507.57 147.418C507.349 147.928 507.046 148.375 506.661 148.761C506.275 149.146 505.821 149.449 505.298 149.67C504.788 149.89 504.245 150 503.666 150H488.878C488.3 150 487.749 149.89 487.226 149.67C486.717 149.449 486.269 149.146 485.884 148.761C485.498 148.375 485.195 147.928 484.975 147.418C484.755 146.895 484.644 146.344 484.644 145.766V141.966H488.878V145.766H503.666V137.319H489.291ZM155.003 209H150.769V179.383H155.003L172.806 202.35V179.383H177.04V209H172.806L155.003 186.033V209ZM212.561 204.766C212.561 205.344 212.451 205.895 212.231 206.418C212.011 206.928 211.708 207.375 211.322 207.761C210.937 208.146 210.482 208.449 209.959 208.67C209.45 208.89 208.906 209 208.327 209H191.412C190.834 209 190.283 208.89 189.76 208.67C189.251 208.449 188.803 208.146 188.418 207.761C188.032 207.375 187.729 206.928 187.509 206.418C187.289 205.895 187.178 205.344 187.178 204.766V183.617C187.178 183.039 187.289 182.495 187.509 181.985C187.729 181.462 188.032 181.015 188.418 180.643C188.803 180.257 189.251 179.955 189.76 179.734C190.283 179.5 190.834 179.383 191.412 179.383H208.327C208.906 179.383 209.45 179.5 209.959 179.734C210.482 179.955 210.937 180.257 211.322 180.643C211.708 181.015 212.011 181.462 212.231 181.985C212.451 182.495 212.561 183.039 212.561 183.617V204.766ZM191.412 183.617V204.766H208.327V183.617H191.412ZM220.18 179.383H243.869V183.617H234.142V209H229.908V183.617H220.18V179.383ZM266.707 179.383H288.29V183.617H270.941V192.085H285.749V196.319H270.941V204.766H288.29V209H266.707V179.383ZM301.402 209H297.168V179.383H301.402L319.205 202.35V179.383H323.439V209H319.205L301.402 186.033V209ZM358.961 204.766C358.961 205.344 358.85 205.895 358.63 206.418C358.41 206.928 358.107 207.375 357.721 207.761C357.336 208.146 356.881 208.449 356.358 208.67C355.849 208.89 355.305 209 354.727 209H337.812C337.233 209 336.683 208.89 336.159 208.67C335.65 208.449 335.202 208.146 334.817 207.761C334.431 207.375 334.128 206.928 333.908 206.418C333.688 205.895 333.578 205.344 333.578 204.766V183.617C333.578 183.039 333.688 182.495 333.908 181.985C334.128 181.462 334.431 181.015 334.817 180.643C335.202 180.257 335.65 179.955 336.159 179.734C336.683 179.5 337.233 179.383 337.812 179.383H354.727C355.305 179.383 355.849 179.5 356.358 179.734C356.881 179.955 357.336 180.257 357.721 180.643C358.107 181.015 358.41 181.462 358.63 181.985C358.85 182.495 358.961 183.039 358.961 183.617V204.766ZM337.812 183.617V204.766H354.727V183.617H337.812ZM369.12 179.383H373.354V204.766H390.269V179.383H394.503V204.766C394.503 205.344 394.392 205.895 394.172 206.418C393.952 206.928 393.649 207.375 393.263 207.761C392.878 208.146 392.423 208.449 391.9 208.67C391.391 208.89 390.847 209 390.269 209H373.354C372.775 209 372.224 208.89 371.701 208.67C371.192 208.449 370.744 208.146 370.359 207.761C369.973 207.375 369.67 206.928 369.45 206.418C369.23 205.895 369.12 205.344 369.12 204.766V179.383ZM404.662 183.617C404.662 183.039 404.772 182.495 404.992 181.985C405.212 181.462 405.515 181.015 405.901 180.643C406.286 180.257 406.734 179.955 407.243 179.734C407.766 179.5 408.317 179.383 408.895 179.383H424.964C425.542 179.383 426.086 179.5 426.595 179.734C427.119 179.955 427.573 180.257 427.958 180.643C428.344 181.015 428.647 181.462 428.867 181.985C429.088 182.495 429.198 183.039 429.198 183.617V187.438H424.964V183.617H408.895V204.766H424.964V197.579H416.93V193.345H429.198V204.766C429.198 205.344 429.088 205.895 428.867 206.418C428.647 206.928 428.344 207.375 427.958 207.761C427.573 208.146 427.119 208.449 426.595 208.67C426.086 208.89 425.542 209 424.964 209H408.895C408.317 209 407.766 208.89 407.243 208.67C406.734 208.449 406.286 208.146 405.901 207.761C405.515 207.375 405.212 206.928 404.992 206.418C404.772 205.895 404.662 205.344 404.662 204.766V183.617ZM464.76 179.383V209H460.526V196.319H443.57V209H439.336V179.383H443.57V192.085H460.526V179.383H464.76Z" fill="#F0F0E8"/>
</g>
</svg>
