<svg width="213" height="92" viewBox="0 0 213 92" fill="none" xmlns="http://www.w3.org/2000/svg">
<g id="CD_Projekt_RED_horizontal_1_">
<g id="Group">
<path id="Vector" d="M15.5464 81.4234C16.8952 80.0037 18.4569 78.3709 19.3443 77.6256C19.0958 77.5901 18.6699 77.5546 18.2085 77.4836C17.2146 78.3355 16.0078 79.6487 14.9075 80.8555C13.4878 82.3818 12.3519 83.6596 12.3519 83.6596L12.3164 83.6951C11.4291 83.9435 9.86736 84.3694 8.80253 84.6889C7.27629 85.1148 5.89202 85.0083 5.89202 86.0377C5.89202 86.0377 4.29478 86.8895 4.64972 88.1673C4.64972 88.1673 7.84419 85.6472 10.5417 85.1858C10.5417 85.1858 8.87352 86.2861 9.0155 87.7059C9.0155 87.7059 11.2516 84.3339 13.8782 86.3926C13.8782 86.3926 12.7069 84.7954 13.2038 83.9435C13.6652 83.4466 14.5526 82.4883 15.5464 81.4234ZM10.5417 41.8475C10.3998 41.9185 10.2578 41.9185 10.1158 41.9185C9.65439 41.9185 9.22846 41.6346 9.0155 41.2086C9.0155 41.1731 8.98 41.1376 8.98 41.0667L8.62506 41.1731C8.90902 41.9895 9.79637 42.4864 10.5772 42.238C10.7547 42.167 10.9322 42.0605 11.0742 41.9185C11.5001 41.5281 11.6776 40.8182 11.4646 40.2148L10.6837 40.4633C10.7192 40.5697 10.7547 40.7117 10.7547 40.8182C10.7547 40.9247 10.7192 41.0312 10.6837 41.1376L11.0387 41.3506C10.9677 41.4571 10.8967 41.5281 10.8257 41.5991C10.7547 41.7411 10.6482 41.7765 10.5417 41.8475ZM42.5574 39.292L26.94 43.0898L57.5004 29.8505L32.3351 32.9385L45.8229 23.1067L31.3058 28.7857L33.4709 24.4199L23.1776 31.8382L23.1067 31.6962L37.7657 0L13.9137 28.2178L13.7717 12.8134L5.00467 33.3644L4.54324 27.3304L0.248458 43.0543C0.248458 43.0543 0.816363 42.6284 1.63273 42.4154C1.70372 42.4154 1.73921 42.3799 1.8102 42.3799C1.8102 42.3799 1.8102 42.3799 1.84569 42.3799C1.91668 42.3799 1.95217 42.3445 2.02316 42.3445C2.02316 42.3445 2.02316 42.3445 2.05866 42.3445C2.12964 42.3445 2.16514 42.309 2.23613 42.309C2.30712 42.309 2.3781 42.309 2.4136 42.309H2.44909C2.52008 42.309 2.59107 42.309 2.66206 42.309C2.66206 42.309 2.66206 42.309 2.69755 42.309C2.76854 42.309 2.80403 42.309 2.87502 42.309H2.91051C2.9815 42.309 3.05249 42.3445 3.08799 42.3445H3.12348C3.19447 42.3445 3.26546 42.3799 3.33644 42.4154C4.8272 42.9478 6.03399 42.4154 6.03399 42.4154C6.03399 42.4154 7.41826 43.3028 7.41826 44.0482C7.41826 44.0482 5.60807 44.1546 5.60807 43.3738C5.60807 43.3738 3.26546 42.5574 0 43.7642L6.88585 46.7457C6.88585 46.7102 6.53091 45.4324 6.92135 44.971C7.02783 44.829 7.27629 44.758 7.59573 44.8645C7.70222 44.9 7.8087 44.9 7.87969 44.829C8.4121 44.2966 5.82103 39.4694 5.82103 39.4694C5.82103 39.4694 3.51391 39.2565 1.49075 41.3506C1.34877 41.4926 1.2068 41.6346 1.10032 41.812C1.31328 41.4571 1.95217 40.3923 3.05249 39.5049C3.69138 38.9725 4.54324 38.4401 5.50158 38.1916C5.75004 37.5527 5.43059 37.9787 5.96301 37.6237C6.21146 35.92 7.2053 31.5897 10.4708 27.8629C10.6837 27.6144 10.8967 27.3659 11.1451 27.153C11.1451 27.153 10.3288 28.7502 10.3288 29.8505C10.3643 29.815 11.1806 28.5727 12.3519 27.4369C12.3519 27.4369 12.3519 27.4724 12.3164 27.4724C12.1035 27.9338 10.5417 31.3058 10.6837 32.2996C10.6837 32.2996 10.6837 32.2996 10.6837 32.3351L13.8782 29.3891C13.7717 29.4956 10.8612 33.4354 10.5772 34.7842L15.4044 31.3413C15.4044 31.3768 14.801 32.1931 14.5526 32.6546C14.3751 32.974 14.3396 33.0805 14.3396 33.116V33.1515L16.9307 32.0157C16.9307 32.0157 16.8242 32.1576 16.6467 32.3351L15.6529 33.3289L15.4044 33.5774L13.6297 35.3521L13.5942 35.3876L12.2455 36.7719L11.3936 37.6237C11.3936 37.6237 10.7192 38.3336 10.6127 38.7595C10.5417 39.1145 10.9322 39.3629 10.9322 39.3629C11.2871 39.5404 11.5711 39.8599 11.7485 40.2148C11.855 40.4278 11.8905 40.6762 11.8905 40.9247C11.8905 41.4216 11.6776 41.9185 11.3581 42.238C11.0387 42.5574 10.5417 42.7704 9.97384 42.7704C9.51241 42.7704 9.08649 42.5929 8.69605 42.309C8.76704 42.3799 9.72538 43.5867 11.4291 42.6639L13.5942 41.1022L13.7717 41.0312L16.0078 39.3984C16.5402 40.0018 17.0372 40.7827 17.4986 41.5991C16.1498 42.8769 13.9137 45.042 11.6776 47.4201C10.3288 48.8399 9.0155 50.3661 7.84419 51.7504L8.62506 47.988L8.69605 47.6686C8.69605 47.6686 8.69605 47.6686 8.66056 47.6686C8.66056 47.6686 8.66056 47.6686 8.62506 47.6686H8.58957C8.58957 47.6686 8.58957 47.6686 8.55407 47.6686C8.55407 47.6686 8.51858 47.6686 8.51858 47.704C8.51858 47.704 8.51858 47.7041 8.48309 47.7395C8.48309 47.7395 8.48309 47.7395 8.44759 47.775L8.4121 47.8105L8.3766 47.846L8.34111 47.8815C8.30562 47.8815 8.30562 47.917 8.30562 47.917L8.27012 47.9525L8.23463 47.988C8.19913 47.988 8.19913 48.0235 8.19913 48.0235C8.19913 48.059 8.16364 48.059 8.12815 48.059L8.09265 48.0945C8.05716 48.0945 8.05716 48.13 8.02166 48.1655L7.98617 48.201C7.98617 48.2365 7.95068 48.2365 7.91518 48.272L7.87969 48.3075L7.84419 48.3429C7.8087 48.3784 7.8087 48.3784 7.7732 48.4139C7.73771 48.4139 7.73771 48.4494 7.70222 48.4849C7.66672 48.5204 7.66672 48.5204 7.63123 48.5559C7.59573 48.5914 7.59573 48.5914 7.56024 48.6269C7.56024 48.6624 7.52475 48.6624 7.52475 48.6979L7.48925 48.7334C7.48925 48.7334 7.48925 48.7334 7.48925 48.7689L7.45376 48.8044C7.41826 48.8399 7.41826 48.8399 7.38277 48.8754C7.38277 48.8754 7.38277 48.8754 7.34728 48.9109C7.34728 48.9464 7.31178 48.9463 7.31178 48.9463C7.27629 48.9818 7.27629 49.0173 7.24079 49.0528C7.2053 49.0883 7.2053 49.0883 7.16981 49.1238C7.13431 49.1593 7.09882 49.1948 7.09882 49.2303C7.06332 49.2658 7.06332 49.3013 7.02783 49.3013C6.99233 49.3368 6.95684 49.3723 6.92135 49.4078C6.88585 49.4433 6.88585 49.4788 6.85036 49.5143C6.81486 49.5497 6.77937 49.5852 6.77937 49.6207C6.74388 49.6562 6.74388 49.6917 6.70838 49.6917C6.67289 49.7272 6.63739 49.7627 6.6019 49.8337C6.56641 49.8692 6.56641 49.9047 6.53091 49.9047C6.49542 49.9402 6.45992 50.0112 6.42443 50.0467C6.42443 50.0822 6.38894 50.0822 6.38894 50.1177C6.31795 50.1886 6.28245 50.2951 6.21146 50.3661C6.14048 50.4371 6.10498 50.5436 6.03399 50.6146C6.03399 50.6501 5.9985 50.6501 5.9985 50.6856C5.96301 50.7565 5.92751 50.792 5.89202 50.863C5.85652 50.8985 5.85652 50.934 5.82103 50.9695C5.78554 51.0405 5.75004 51.076 5.71455 51.147C5.67905 51.1825 5.67905 51.218 5.64356 51.2535C5.60806 51.3244 5.57257 51.3954 5.53708 51.4309C5.53708 51.4664 5.50158 51.5019 5.46609 51.5374C5.43059 51.6084 5.3951 51.6794 5.35961 51.7149C5.32411 51.7504 5.32411 51.7859 5.28862 51.8214C5.25312 51.8924 5.21763 51.9633 5.18214 52.0343C5.18214 52.0698 5.14664 52.1053 5.11115 52.1408C4.93368 52.4603 4.75621 52.7797 4.57874 53.1701L3.69138 53.3121C3.86886 52.8507 4.04633 52.4603 4.2238 52.0343L2.76854 54.0575L4.2238 53.9155C2.9815 56.7905 2.09415 60.4464 2.09415 65.7705L3.30095 65.0252C4.36577 70.9172 9.19297 73.5083 9.19297 73.5083V73.4728C11.855 75.2475 15.1205 76.4543 18.7409 76.9512C19.2378 77.0222 19.6282 77.0577 19.7702 77.0577C19.8412 77.0577 19.8767 77.0932 19.9477 77.0932C21.8999 77.2706 23.781 77.1996 25.5912 76.9157C25.5912 76.9867 25.5912 77.0577 25.5912 77.1287C25.5912 78.3 26.2301 79.2583 27.082 79.3293C25.3783 82.2398 23.994 86.0732 23.994 86.1087C23.923 86.2861 23.781 86.6056 23.6746 86.7121C23.2486 86.8185 23.2131 86.8185 22.7872 86.9605C22.6452 86.8185 21.2965 86.5701 19.9122 87.067C19.1668 87.3864 18.3859 88.0608 17.8535 89.0547C18.3859 88.6287 19.4508 87.8479 20.2671 87.9544C19.2378 88.5223 17.5696 89.6226 17.3211 91.1843C17.3211 91.1843 23.3196 86.996 26.3011 87.7414C26.3011 87.7414 25.8752 88.2383 26.869 90.0485L27.3304 88.3448C27.8629 86.7121 25.8042 86.4636 24.9523 86.4281V86.3926C24.9523 86.3926 25.0588 86.1441 25.2008 85.7182C25.6977 84.4049 26.9045 81.4944 28.2178 79.4358C28.2533 79.4003 28.2533 79.3648 28.2533 79.2938L28.0048 78.9743C28.0048 78.9743 28.1823 78.7969 28.2533 78.6549C28.4308 78.3709 28.6437 77.945 28.6437 77.3061C28.6437 76.8447 28.5372 76.2058 28.1823 75.4604L28.9277 75.1055C28.9632 75.212 28.9987 75.283 29.0342 75.3894C29.0342 75.4249 29.0697 75.4604 29.0697 75.4604C29.1051 75.5314 29.1052 75.5669 29.1406 75.6379C29.1406 75.6734 29.1761 75.7089 29.1761 75.7444C29.2116 75.8154 29.2116 75.8864 29.2471 75.9218C29.2471 75.9573 29.2471 75.9573 29.2826 75.9928L33.6484 74.6441L32.6546 73.8632L32.6191 73.8277H32.5836L16.0078 58.7782C20.6221 61.0143 26.0172 63.6409 35.1391 67.8647C44.1546 72.0175 49.8692 74.4311 52.7797 75.6379C52.8152 75.6379 52.8152 75.6734 52.8507 75.6734C53.2766 75.8509 53.6316 75.9928 53.951 76.0993C54.5544 76.3478 55.1933 76.5608 55.2288 76.5962C55.2643 76.5608 55.3353 76.5607 55.3708 76.5253L21.8289 53.4896L42.5574 39.292ZM19.3088 46.3553L14.3041 50.1531L17.889 42.238C18.4924 43.4803 18.9538 44.8645 19.3088 46.3553ZM37.1978 73.6502L37.3043 74.2536L43.1608 77.6966L44.6516 78.5484L43.8707 76.4543C48.6979 77.874 52.6377 77.9805 55.2643 76.7027C50.6856 78.087 39.3984 74.2536 37.1978 73.6502Z" fill="#DB0D15"/>
<path id="Vector_2" d="M5.67936 43.3028C5.67936 44.0837 7.48955 43.9772 7.48955 43.9772C7.48955 43.2318 6.10528 42.3445 6.10528 42.3445C6.10528 42.3445 4.8275 42.8769 3.37224 42.3445C2.80433 42.1315 2.12995 42.2025 1.63303 42.3445C0.958641 42.8059 0.0712891 43.6577 0.0712891 43.6577C3.33675 42.4509 5.67936 43.3028 5.67936 43.3028ZM17.8893 42.2735L14.3044 50.1886L19.3091 46.3553C18.9541 44.8645 18.4572 43.4803 17.8893 42.2735ZM55.2291 76.7027C55.2291 76.7027 43.9775 72.4789 15.9726 58.8847L32.6549 74.0762C34.1456 73.4728 35.1749 73.0113 37.2691 74.2182L37.1626 73.6147C39.3632 74.2536 50.7214 78.087 55.2291 76.7027ZM28.1471 75.6734C28.4666 76.4188 28.6085 77.0222 28.6085 77.5191C28.6085 78.1225 28.3601 78.6194 28.2181 78.8679C28.1116 79.0099 27.9696 79.1873 27.9696 79.1873L28.4666 79.8617C28.5021 79.8262 29.4959 79.1163 29.4959 77.5191C29.4959 76.9157 29.3539 76.1703 28.9635 75.3185L28.1471 75.6734ZM18.1378 77.4836C18.9186 77.5901 19.664 77.6611 19.664 77.6611L19.6995 77.2351C19.6995 77.2351 18.9896 77.1642 18.2088 77.0577L18.1378 77.4836ZM17.5344 41.5636C17.1084 40.7472 16.6115 39.9664 16.0436 39.363L11.5714 42.6639C9.76118 43.5868 8.83833 42.309 8.83833 42.309C9.15777 42.5929 9.5837 42.7704 10.1161 42.7704C11.1809 42.7704 12.0328 41.954 12.0328 40.9247C12.0328 40.6762 11.9973 40.4278 11.8908 40.2148C11.7134 39.8599 11.4294 39.5404 11.0745 39.363C11.0745 39.363 10.684 39.15 10.755 38.7596C10.826 38.4046 11.5359 37.6237 11.5359 37.6237L13.7365 35.3876L13.772 35.3521L15.7597 33.329L16.7535 32.2996C16.931 32.1222 17.0375 31.9802 17.0375 31.9802L14.4464 33.116C14.4464 33.116 14.4109 33.0805 14.6594 32.6191C14.9078 32.1577 15.5112 31.3058 15.5112 31.3058L10.684 34.7487C10.968 33.3999 13.985 29.3536 13.985 29.3536L10.7905 32.2996C10.5775 31.2703 12.4587 27.4015 12.4587 27.4015C11.2874 28.5728 10.4356 29.815 10.4356 29.815C10.4356 28.6792 11.2519 27.1175 11.2519 27.1175C7.38307 30.9863 6.28275 35.849 6.0343 37.6592C5.50188 38.0142 5.82133 37.5883 5.57287 38.2271C2.9818 38.937 1.52655 41.2796 1.17161 41.8475C3.26576 39.2565 5.96331 39.5049 5.96331 39.5049C5.96331 39.5049 9.12228 45.3615 7.73801 44.9C6.35374 44.4386 7.02813 46.7457 7.02813 46.7457L4.43706 45.6099C4.86299 46.4263 5.71485 48.4139 5.21793 50.5436C4.68552 51.3245 4.15311 52.3538 3.69169 53.5606L4.57904 53.4186C4.75651 53.0637 4.93398 52.7087 5.07596 52.3538C5.11145 52.3183 5.11145 52.2828 5.14694 52.2473C5.18244 52.1763 5.21793 52.1053 5.25343 52.0343C5.28892 51.9989 5.28892 51.9634 5.32441 51.9279C5.35991 51.8569 5.3954 51.8214 5.4309 51.7504C5.46639 51.7149 5.46639 51.6794 5.50188 51.6439C5.53738 51.5729 5.57287 51.5019 5.60837 51.4664C5.64386 51.4309 5.64386 51.3955 5.67936 51.36C5.71485 51.289 5.75034 51.2535 5.78584 51.1825C5.78584 51.147 5.82133 51.1115 5.85683 51.076C5.89232 51.005 5.92781 50.9695 5.96331 50.8985C5.96331 50.863 5.9988 50.8275 5.9988 50.8275C6.0343 50.7566 6.10528 50.6501 6.17627 50.5791C6.24726 50.5081 6.28275 50.4016 6.35374 50.3306C6.35374 50.2951 6.38924 50.2951 6.38924 50.2596C6.42473 50.1887 6.46022 50.1532 6.49572 50.0822C6.53121 50.0467 6.53121 50.0467 6.56671 50.0112C6.6022 49.9757 6.6377 49.9047 6.67319 49.8692C6.70868 49.8337 6.70868 49.7982 6.74418 49.7982C6.77967 49.7627 6.81517 49.7272 6.85066 49.6917C6.88615 49.6562 6.88615 49.6208 6.92165 49.6208C6.95714 49.5853 6.99264 49.5498 6.99264 49.5143C7.02813 49.4788 7.02813 49.4433 7.06362 49.4433C7.09912 49.4078 7.13461 49.3723 7.13461 49.3368C7.17011 49.3013 7.17011 49.3013 7.2056 49.2658C7.24109 49.2303 7.27659 49.1948 7.27659 49.1593C7.31208 49.1238 7.31208 49.1238 7.34758 49.0883C7.38307 49.0528 7.38307 49.0528 7.41856 49.0173C7.45406 48.9819 7.45406 48.9818 7.48955 48.9464C7.52505 48.9109 7.52505 48.9109 7.56054 48.8754C7.56054 48.8754 7.59604 48.8399 7.63153 48.8044C7.66702 48.7689 7.66702 48.7689 7.70252 48.7334C7.70252 48.7334 7.73801 48.6979 7.77351 48.6624C7.809 48.6269 7.809 48.5914 7.84449 48.5914C7.87999 48.5914 7.87999 48.5559 7.87999 48.5559C7.91548 48.5204 7.95098 48.4849 7.98647 48.4494C8.02196 48.4494 8.02196 48.4139 8.02196 48.4139C8.02196 48.3785 8.05746 48.3785 8.09295 48.343L8.12845 48.3075C8.16394 48.3075 8.16394 48.272 8.19943 48.272C8.23493 48.272 8.23493 48.2365 8.23493 48.2365C8.23493 48.201 8.27042 48.201 8.27042 48.201L8.30592 48.1655L8.34141 48.13L8.37691 48.0945L8.4124 48.059L8.44789 48.0235C8.44789 48.0235 8.48339 48.0235 8.48339 47.988C8.48339 47.988 8.51888 47.988 8.51888 47.9525C8.51888 47.9525 8.55438 47.9525 8.55438 47.917C8.55438 47.917 8.55438 47.917 8.58987 47.917H8.62536C8.62536 47.917 8.62536 47.917 8.66086 47.917C8.66086 47.917 8.66086 47.917 8.69635 47.917L8.62536 48.2365L7.84449 51.9988C10.9325 47.917 15.4402 43.5513 17.5344 41.5636ZM8.62536 41.1732L8.9803 41.0667C8.9803 41.1022 9.0158 41.1732 9.0158 41.2086C9.19327 41.6701 9.6192 41.9185 10.1161 41.9185C10.2581 41.9185 10.4001 41.883 10.542 41.8475C10.755 41.7411 10.968 41.5991 11.0745 41.3861L10.7195 41.1732C10.755 41.0667 10.7905 40.9602 10.7905 40.8537C10.7905 40.7117 10.755 40.6052 10.7195 40.4988L11.5004 40.2503C11.7843 41.0667 11.3939 41.9895 10.613 42.2735C9.76117 42.4509 8.90932 42.025 8.62536 41.1732Z" fill="black"/>
</g>
<g id="Group_2">
<path id="Vector_3" d="M81.8497 47.4911C81.3173 47.3491 80.5009 47.2781 79.4716 47.2781H77.2354V60.0205L77.4839 59.843L79.3296 58.5297L79.4006 58.4943V54.8739H80.1105C81.4237 54.8739 82.4886 54.5189 83.2694 53.8445C84.0503 53.1701 84.4762 52.2118 84.4762 51.076C84.4762 49.9757 84.1213 49.0883 83.3759 48.3784C82.9145 47.917 82.3821 47.6331 81.8497 47.4911ZM79.9685 53.0637H79.4006V49.1593H80.0395C81.7432 49.1593 82.595 49.7627 82.595 51.0405C82.595 52.3893 81.7077 53.0637 79.9685 53.0637ZM93.8112 54.5899C94.5566 54.3769 95.1955 53.9865 95.6569 53.3831C96.1538 52.7442 96.4377 51.9279 96.4377 51.0405C96.4377 49.8692 96.0118 48.9463 95.16 48.2365C94.4146 47.6331 93.2078 47.3136 91.5396 47.3136H89.2324V60.056L89.4454 59.8785L91.2911 58.5652L91.3621 58.5297V54.8739H91.4686L94.947 59.843L95.018 59.9495L95.1245 59.8785L96.6152 58.7782L96.7217 58.7072L96.6507 58.6007L93.8112 54.5899ZM91.3976 53.0637V52.9217V49.3368V49.1593H92.0365C93.7402 49.1593 94.5921 49.7627 94.5921 51.0405C94.5921 52.3893 93.7402 53.0637 91.9655 53.0637H91.3976ZM61.4406 47.6331C60.7307 47.3846 59.7014 47.2781 58.4591 47.2781H55.7615V59.843H58.4591C59.7369 59.843 60.6952 59.7365 61.4051 59.4881C62.115 59.2751 62.8603 58.8492 63.5347 58.2458C64.8835 57.039 65.5579 55.4773 65.5579 53.5606C65.5579 51.6439 64.919 50.0467 63.6057 48.9109C62.9668 48.3075 62.2569 47.8815 61.4406 47.6331ZM62.0795 56.7196C61.6535 57.11 61.1921 57.3939 60.6242 57.5359C60.0918 57.7134 59.4174 57.7844 58.601 57.7844H57.9267V49.3013H58.601C60.1273 49.3013 61.2986 49.6562 62.0795 50.4016C62.9313 51.1825 63.3928 52.2828 63.3928 53.5961C63.3573 54.8739 62.9313 55.9032 62.0795 56.7196ZM47.8818 49.0883C48.6627 49.0883 49.4791 49.3013 50.2244 49.7627L50.3664 49.8337L50.4374 49.6917L51.3248 48.13L51.3957 47.988L51.2538 47.917C50.189 47.3136 49.0886 47.0297 47.9883 47.0297C45.9297 47.0297 44.2259 47.775 42.9127 49.3368C41.8478 50.6146 41.3154 51.9988 41.3154 53.6316C41.3154 55.4063 41.9543 56.968 43.1966 58.2103C44.4744 59.4881 46.0006 60.0915 47.8108 60.0915C49.0176 60.0915 50.1535 59.772 51.2183 59.1686L51.2893 59.1331V59.0267V58.9912L50.4019 57.4294L50.3309 57.2875L50.189 57.3584C49.9405 57.5004 49.692 57.6424 49.4791 57.7489C49.0531 57.9618 48.4852 58.0328 47.8818 58.0328C46.675 58.0328 45.6457 57.6069 44.7938 56.7196C43.9775 55.9032 43.5161 54.8029 43.5161 53.5606C43.5161 52.2828 43.942 51.218 44.7938 50.3306C45.6457 49.5143 46.7105 49.0883 47.8818 49.0883ZM189.858 49.3368L189.894 49.3013L191.597 47.5621L191.846 47.3136H184.534V59.914H189.858L189.894 59.8785L191.562 58.1393L191.81 57.8909H186.699V53.9865H188.296L188.332 53.951L190.071 52.2118L190.32 51.9633H186.699V49.4433H189.858V49.3368V49.3368ZM152.873 49.3368H155.677V60.0205L155.926 59.843L157.772 58.5297L157.843 58.4943V49.3368H160.647V47.2781H152.838V49.3368H152.873ZM107.228 47.0652C105.418 47.0652 103.856 47.7041 102.578 48.9818C101.3 50.2596 100.626 51.7504 100.626 53.5251C100.626 55.5128 101.336 57.181 102.756 58.4233C104.033 59.5591 105.489 60.127 107.121 60.127C108.932 60.127 110.529 59.4881 111.807 58.2103C113.12 56.9325 113.759 55.4418 113.759 53.6316C113.759 51.8569 113.12 50.2596 111.842 49.0173C110.564 47.7041 109.003 47.0652 107.228 47.0652ZM110.316 56.755C109.464 57.6069 108.399 58.0683 107.157 58.0683C106.021 58.0683 104.992 57.6424 104.104 56.7905C103.253 55.9742 102.756 54.8739 102.756 53.5251C102.756 52.2828 103.182 51.218 104.033 50.3661C104.85 49.5142 105.95 49.0528 107.192 49.0528C108.435 49.0528 109.464 49.4788 110.316 50.3661C111.132 51.218 111.594 52.2828 111.594 53.5606C111.629 54.8029 111.168 55.8677 110.316 56.755ZM204.73 48.9109C204.091 48.343 203.346 47.8815 202.565 47.6331C201.855 47.3846 200.826 47.2781 199.584 47.2781H196.886V59.843H199.584C200.861 59.843 201.82 59.7365 202.53 59.4881C203.239 59.2751 203.985 58.8492 204.659 58.2458C206.008 57.039 206.682 55.4773 206.682 53.5606C206.682 51.6439 206.008 50.0822 204.73 48.9109ZM203.204 56.7196C202.778 57.11 202.317 57.3939 201.749 57.5359C201.216 57.7134 200.506 57.7844 199.726 57.7844H199.051V49.3013H199.726C201.252 49.3013 202.423 49.6562 203.204 50.4016C204.056 51.1825 204.517 52.2828 204.517 53.5961C204.517 54.8739 204.056 55.9032 203.204 56.7196ZM176.264 54.5899C177.009 54.3769 177.648 53.9865 178.11 53.3831C178.607 52.7442 178.891 51.9279 178.891 51.0405C178.891 49.8692 178.465 48.9463 177.648 48.2365C176.903 47.6331 175.696 47.3136 174.028 47.3136H171.721V60.056L171.969 59.8785L173.815 58.5652L173.886 58.5297V54.8739H173.992L177.471 59.843L177.577 59.9495L177.684 59.8785L179.174 58.7782L179.281 58.7072L179.21 58.6007L176.264 54.5899ZM173.815 53.0637V49.1593H174.454C176.157 49.1593 177.009 49.7627 177.009 51.0405C177.009 52.3893 176.157 53.0637 174.383 53.0637H173.815ZM146.981 47.3136L142.474 51.9279V47.1007L142.225 47.2781L140.379 48.5914L140.308 48.6269V59.985L140.557 59.8075L142.403 58.4943L142.474 58.4588V54.6609L142.687 54.4479L146.981 59.8075L147.052 59.914L147.159 59.843L148.756 58.7427L148.898 58.6362L148.792 58.4943L144.213 52.9572L149.679 47.4911L149.927 47.2426H147.017L146.981 47.3136ZM120.432 48.6269L120.361 48.6624V55.4063C120.361 56.4356 120.254 57.1455 120.041 57.5359C119.864 57.8909 119.544 58.0683 119.012 58.0683C118.657 58.0683 118.267 57.9263 117.841 57.6424L117.699 57.5714L117.628 57.7134L116.74 59.3106L116.669 59.4526L116.776 59.5236C117.45 59.914 118.231 60.127 119.012 60.127C120.112 60.127 120.964 59.7365 121.568 58.9557C121.887 58.5652 122.135 58.1038 122.277 57.5359C122.419 57.0745 122.49 56.3291 122.49 55.3708V47.1362L122.242 47.3136L120.432 48.6269ZM133.707 49.3368L133.742 49.3013L135.446 47.5621L135.694 47.3136H128.418V59.914H133.742L133.778 59.8785L135.446 58.1393L135.694 57.8909H130.548V53.9865H132.145L132.18 53.951L133.919 52.2118L134.168 51.9633H130.548V49.4433H133.742V49.3368H133.707Z" fill="#0F0F0F"/>
<g id="Group_3">
<path id="Vector_4" d="M210.799 51.4309C209.557 51.4309 208.599 50.4371 208.599 49.2303C208.599 47.988 209.592 47.0296 210.799 47.0296C212.006 47.0296 213 48.0235 213 49.2303C213 50.4726 212.006 51.4309 210.799 51.4309ZM210.799 47.3846C209.734 47.3846 208.918 48.201 208.918 49.2658C208.918 50.2951 209.734 51.147 210.799 51.147C211.864 51.147 212.68 50.3306 212.68 49.2658C212.68 48.1655 211.829 47.3846 210.799 47.3846ZM211.403 50.5081L210.764 49.4787H210.338V50.5081H209.983V47.988H211.012C211.438 47.988 211.829 48.2719 211.829 48.7334C211.829 49.2658 211.332 49.4787 211.19 49.4787L211.864 50.5081H211.403ZM210.977 48.2719H210.302V49.1593H210.977C211.19 49.1593 211.438 48.9818 211.438 48.7334C211.438 48.4494 211.19 48.2719 210.977 48.2719Z" fill="#0F0F0F"/>
</g>
</g>
</g>
</svg>
