<svg width="101" height="85" viewBox="0 0 101 85" fill="none" xmlns="http://www.w3.org/2000/svg">
<g id="K-YELLOW">
<path id="K-BLUE" fill-rule="evenodd" clip-rule="evenodd" d="M100.121 82.4424C100.404 82.5991 100.71 82.7549 101 82.9049C100.799 82.5383 100.299 82.4571 100.206 81.9876C100.042 81.3803 100.042 80.7401 100.206 80.1328C99.7766 79.7742 99.379 79.3785 99.0182 78.9504C98.8092 79.0588 99.0182 77.891 99.0182 77.891C98.5151 77.5484 97.9848 77.2175 97.4545 76.8895C97.5253 76.7108 97.5506 76.5173 97.5281 76.3264C84.2839 68.6051 70.7959 61.2274 57.6638 53.4866C55.1791 52.0111 52.6751 50.5955 50.1747 49.1558C50.0045 48.3818 49.8303 47.6213 49.6369 46.8578C48.2977 46.1398 46.9844 45.3903 45.6969 44.6091C45.7239 44.5617 45.7627 44.5502 45.7859 44.5076C46.2426 44.2704 46.68 44.1418 47.2334 43.8555C46.7069 43.5023 46.1651 43.1762 45.6426 42.8355C46.1518 42.5278 46.698 42.2859 47.2681 42.1156C46.2077 41.4365 45.0311 40.5676 43.8275 39.8671C41.3544 38.4185 38.9161 36.8887 36.5746 35.5099C35.8662 35.095 35.1153 34.7486 34.4265 34.3402C38.0723 32.3422 41.8498 30.44 45.6426 28.4021C47.7249 27.2865 49.8961 26.2339 51.9901 25.0988C54.978 23.481 58.287 22.3384 60.2995 20.0897C65.091 17.7849 69.7819 15.3931 74.55 13.0836C76.6323 10.3511 77.8553 6.79812 81.296 5.43081C81.6172 4.68296 82.5036 3.69117 82.6274 3.18903C82.5773 3.18223 82.5265 3.18223 82.4764 3.18903C81.4161 3.8063 80.3283 4.38493 79.2254 4.96256C79.7966 4.42095 80.4632 3.98988 81.1915 3.69117C81.5785 3.22965 81.7218 2.54937 82.2519 2.23687C82.2404 1.84312 82.5307 1.73473 82.6545 1.44938C82.7977 1.36714 83.4866 0.898694 82.9138 0.919104C73.2729 6.13726 63.1288 10.5677 53.1975 15.4492C43.7462 20.0897 34.2561 24.651 24.8592 29.2982C26.8522 25.5468 28.8997 21.872 30.8735 18.1061C30.5252 18.1198 30.1962 18.141 29.8595 18.1545C30.2156 17.513 30.5484 16.8754 30.8967 16.2369C27.2858 16.1081 24.3715 16.6655 20.7295 16.4951C20.029 16.4081 20.056 15.5992 19.5413 15.3129C14.5796 24.4661 9.61766 33.634 4.75283 42.9043C4.92701 43.2701 5.13213 43.692 5.32177 44.1283C5.29238 44.163 5.26764 44.2014 5.24823 44.2425C3.52157 47.1826 1.97822 50.2266 0.626953 53.357C3.02838 55.7513 5.68513 57.8749 8.54958 59.6898C9.24045 57.9498 10.0795 56.2723 11.0575 54.6758C13.7473 49.8359 16.476 45.0242 19.1117 40.1514C23.8335 42.4747 28.2689 45.0795 32.7081 47.6734C33.1183 48.0557 33.3389 48.6256 33.8923 48.8703C44.7021 54.8781 55.7829 60.6273 66.7706 66.5549C77.7664 72.4813 88.8122 78.4067 99.7768 83.9789C99.5408 84.0138 100.427 84.721 100.566 84.3729C100.361 84.1004 100.215 83.7876 100.138 83.455C100.061 83.1224 100.056 82.7774 100.121 82.4424V82.4424Z" fill="#52BEDC"/>
<path id="Vector" fill-rule="evenodd" clip-rule="evenodd" d="M85.1292 71.897L85.0928 71.877V71.897H85.1292Z" fill="#FCEE0A"/>
<path id="Vector_2" fill-rule="evenodd" clip-rule="evenodd" d="M11.1621 52.6226V52.487H11.2977V52.5142C12.1065 51.0609 12.9464 49.6327 13.7283 48.1852C13.8908 47.9066 14.0263 47.6222 14.1849 47.3434H8.65821V47.0784H11.6963C11.7079 47.0503 11.6692 46.9691 11.6963 46.9496C11.7001 46.9352 11.8008 46.9496 11.8279 46.9496C12.0368 46.9284 12.2536 46.9496 12.4781 46.9496H14.4016C14.8584 46.0712 15.3229 45.1886 15.8103 44.3052H14.0687C13.9334 44.3052 13.8056 44.2975 13.6662 44.3052H13.5464C13.523 44.3169 13.5579 44.4273 13.5464 44.4407C13.4689 44.4669 13.3528 44.4273 13.2676 44.4407C13.1437 44.4532 13.0084 44.4273 12.8728 44.4407C12.5788 44.4532 12.2536 44.4407 11.9556 44.4407H6.4017C6.09994 44.4407 5.78245 44.4273 5.49214 44.4407H5.46502C5.78285 45.124 5.98929 45.8538 6.07653 46.6023C5.99925 47.2806 6.7152 46.4455 6.74234 46.8587C5.46897 49.1635 4.29626 51.5485 3.16992 53.9966C4.92721 55.3211 6.60681 56.7144 8.45683 57.9501C9.28514 56.1165 10.245 54.3622 11.2202 52.6226H11.1621ZM8.39104 48.4039H13.0084C13.1874 48.3899 13.3673 48.3899 13.5464 48.4039V48.5325C13.5192 48.5539 13.438 48.5191 13.3954 48.5325C13.3877 48.5587 13.4225 48.6409 13.3954 48.6691C13.3837 48.6875 13.2947 48.6409 13.2676 48.6691C13.2444 48.6875 13.2947 48.7765 13.2676 48.8044C13.2598 48.8114 13.1594 48.7909 13.1437 48.8044C13.0161 48.8258 12.8651 48.7765 12.749 48.8044H9.71079C9.6876 48.7628 9.73024 48.6875 9.71079 48.6691C9.6876 48.6409 9.59467 48.6758 9.57148 48.6691C9.48769 48.6478 9.39987 48.6478 9.31607 48.6691C9.28512 48.6691 9.19616 48.6409 9.17278 48.6691C9.16129 48.6875 9.19993 48.7628 9.17278 48.8044H8.91359C8.83611 48.8044 8.72 48.8114 8.65821 48.8044C8.63875 48.7909 8.65821 48.6758 8.65821 48.6691C8.63875 48.6546 8.54205 48.6691 8.52263 48.6691C8.47907 48.6618 8.4346 48.6618 8.39104 48.6691V48.4039ZM9.96623 51.0464C9.79204 51.0183 9.61784 51.0609 9.44385 51.0464C9.37014 51.0329 9.25026 51.0745 9.17278 51.0464C9.16129 51.0329 9.19616 50.9245 9.17278 50.9109C9.16129 50.8897 9.07234 50.9245 9.04515 50.9109H8.52263C8.51114 50.938 8.54205 51.0183 8.52263 51.0464C8.51114 51.0609 8.40653 51.0464 8.39104 51.0464C8.36785 51.0464 8.26341 51.0329 8.25549 51.0464C8.2323 51.0609 8.26341 51.1548 8.25549 51.176C8.23626 51.1897 8.13562 51.1548 8.11244 51.176C8.09302 51.2109 8.13562 51.2632 8.11244 51.3048H5.74758C5.75531 51.2767 5.72043 51.1964 5.74758 51.176C5.75531 51.1548 5.8637 51.1964 5.88688 51.176C5.9063 51.1548 5.8637 51.0609 5.88688 51.0464C5.89085 51.0329 6.00699 51.0609 6.01475 51.0464C6.02445 50.956 6.02445 50.8649 6.01475 50.7745V50.252C5.97984 50.2308 5.9063 50.2724 5.88688 50.252C5.88688 50.2442 5.87143 50.1087 5.88688 50.1087C5.9063 50.0942 5.97984 50.1368 6.01475 50.1087C6.14233 50.1368 6.27388 50.0808 6.4017 50.1087C6.44662 50.1156 6.49233 50.1156 6.53725 50.1087C6.5527 50.1368 6.51783 50.2171 6.53725 50.252H7.31899C7.34614 50.2171 7.31126 50.1368 7.31899 50.1087C7.3665 50.1155 7.41474 50.1155 7.46225 50.1087C7.54982 50.1015 7.63783 50.1015 7.7254 50.1087C7.85432 50.1155 7.98352 50.1155 8.11244 50.1087C8.13562 50.1368 8.09302 50.2308 8.11244 50.252C8.20481 50.2656 8.29866 50.2656 8.39104 50.252H8.52263V50.639H9.04515C9.17784 50.6284 9.31117 50.6284 9.44385 50.639C9.45158 50.6457 9.43593 50.7678 9.44385 50.7745C9.45158 50.7957 9.5638 50.7745 9.57148 50.7745C9.61766 50.7676 9.6646 50.7676 9.71079 50.7745C9.73024 50.789 9.82314 50.7609 9.8386 50.7745C9.85405 50.8025 9.82314 50.8897 9.8386 50.9109C9.86555 50.9313 9.93531 50.8897 9.96623 50.9109C9.98943 50.9313 9.95077 51.0183 9.96623 51.0464ZM10.5005 49.8505H8.91359C8.89041 49.8224 8.93678 49.7421 8.91359 49.7217C8.89041 49.7072 8.80124 49.7286 8.78578 49.7217C8.56903 49.7072 8.34844 49.7354 8.11244 49.7217H6.80418C6.7155 49.7319 6.62593 49.7319 6.53725 49.7217C6.52159 49.7217 6.54498 49.5921 6.53725 49.5854H7.19514C7.2106 49.565 7.17572 49.4847 7.19514 49.4566C7.2106 49.4431 7.31126 49.4566 7.31899 49.4566C7.54312 49.4392 7.76824 49.4392 7.99237 49.4566H8.65821C8.70454 49.4219 8.87871 49.4964 8.91359 49.4566C8.93678 49.4286 8.89041 49.3484 8.91359 49.328C9.08005 49.3484 9.2774 49.2931 9.44385 49.328C9.45158 49.328 9.43593 49.4498 9.44385 49.4566C9.45931 49.4702 9.5483 49.4498 9.57148 49.4566C9.65669 49.4847 9.75735 49.4431 9.8386 49.4566C9.96621 49.4286 10.1095 49.4964 10.245 49.4566C10.2527 49.4566 10.2217 49.3347 10.245 49.328C10.2527 49.3135 10.3455 49.328 10.3649 49.328H11.6963C11.7399 49.3207 11.7844 49.3207 11.8279 49.328C11.8394 49.3347 11.8125 49.4431 11.8279 49.4566C11.8394 49.4847 11.9286 49.4431 11.9556 49.4566C11.9866 49.4702 12.0639 49.4286 12.0911 49.4566C12.1065 49.4847 12.0717 49.565 12.0911 49.5854C12.0098 49.6066 11.9015 49.565 11.8279 49.5854C11.8008 49.5921 11.8394 49.7005 11.8279 49.7217C11.8008 49.7421 11.7079 49.7072 11.6963 49.7217C11.6769 49.7354 11.7001 49.8368 11.6963 49.8505C11.6489 49.8578 11.6006 49.8578 11.5531 49.8505C11.4718 49.865 11.3712 49.8368 11.2977 49.8505H10.5005V49.8505Z" fill="#FCEE0A"/>
<path id="Vector_3" fill-rule="evenodd" clip-rule="evenodd" d="M100.206 81.9887C100.042 81.3814 100.042 80.7412 100.206 80.1339C99.885 79.7933 99.4941 79.5234 99.1883 79.1538H94.3349C94.2071 79.1954 94.0563 79.1344 93.9325 79.1538V79.2234C96.2894 80.4601 98.6426 81.6956 101 82.906C100.798 82.5394 100.299 82.4582 100.206 81.9887Z" fill="#FCEE0A"/>
<g id="Group 298">
<path id="Vector_4" fill-rule="evenodd" clip-rule="evenodd" d="M10.1093 33.6155C10.2757 33.6155 10.4614 33.6011 10.6356 33.6155C10.6976 33.6223 10.833 33.5807 10.8873 33.6155C10.9065 33.6223 10.8834 33.7307 10.8873 33.7441C10.9065 33.7578 10.9957 33.7374 11.0303 33.7441C11.1617 33.7572 11.2939 33.7572 11.4253 33.7441C11.5915 33.7511 11.7697 33.7441 11.9554 33.7441C12.0869 33.751 12.2187 33.751 12.3503 33.7441C12.358 33.7441 12.3346 33.6223 12.3503 33.6155C12.358 33.6011 12.4508 33.6223 12.4779 33.6155C12.568 33.6083 12.6586 33.6083 12.7488 33.6155C12.8726 33.6078 13.0082 33.6223 13.1435 33.6155C13.1378 33.6582 13.1378 33.7015 13.1435 33.7441C13.1513 33.7578 13.2442 33.7374 13.2674 33.7441C13.3601 33.7538 13.4535 33.7538 13.5462 33.7441C13.6724 33.7544 13.7992 33.7544 13.9255 33.7441C13.9524 33.7441 14.0531 33.7578 14.0685 33.7441C14.0685 33.7307 14.0416 33.6223 14.0685 33.6155C14.1228 33.5807 14.2621 33.6155 14.3319 33.6155C14.3705 33.6223 14.5716 33.5807 14.5988 33.6155C14.6065 33.6484 14.5716 33.7162 14.5988 33.7441H19.0846C19.096 33.7703 19.0536 33.8593 19.0846 33.8854C19.096 33.8922 19.189 33.8593 19.2199 33.8854C19.247 33.8922 19.189 33.9881 19.2199 34.0093C19.247 34.0287 19.3128 33.9881 19.3554 34.0093C19.3632 34.0287 19.4484 33.9881 19.4756 34.0093C19.4987 34.0287 19.4484 34.1244 19.4756 34.1448C19.4987 34.164 19.5914 34.1244 19.6109 34.1448C19.6186 34.164 19.5914 34.2465 19.6109 34.2744C19.6535 34.3073 19.8391 34.2318 19.8703 34.2744C19.878 34.2879 19.8548 34.4032 19.8703 34.41C19.9283 34.4244 20.1063 34.3616 20.1489 34.41C20.1566 34.4244 20.1063 34.5183 20.1489 34.5463C20.1643 34.56 20.2456 34.5183 20.2727 34.5463C20.2921 34.56 20.2456 34.6537 20.2727 34.6751C20.2804 34.6818 20.3926 34.6537 20.4083 34.6751C20.4352 34.7419 20.3694 34.857 20.4083 34.9402H20.7953C20.8417 34.9662 21.0275 34.884 21.0662 34.9402C21.0816 34.9662 21.0467 35.034 21.0662 35.0621C21.1088 35.1027 21.279 35.0272 21.3253 35.0621C21.3333 35.0766 21.3061 35.1984 21.3253 35.1984C21.3951 35.2188 21.5152 35.1558 21.5847 35.1984C21.6119 35.1984 21.5731 35.3058 21.5847 35.334C21.6119 35.3619 21.7009 35.3058 21.724 35.334C21.755 35.3484 21.8364 35.3058 21.8634 35.334C21.875 35.3619 21.8402 35.4424 21.8634 35.4636C21.875 35.4424 21.968 35.484 21.9835 35.4636V35.334C22.0275 35.3203 22.0747 35.3203 22.1188 35.334C22.1344 35.3484 22.1033 35.4558 22.1188 35.4636C22.1537 35.484 22.355 35.4277 22.3821 35.4636C22.3859 35.477 22.3588 35.5777 22.3821 35.5924C22.4053 35.6116 22.4903 35.5924 22.5252 35.5924H22.6453C22.6645 35.6253 22.6336 35.7075 22.6453 35.7277C22.6723 35.7422 22.7537 35.7075 22.7769 35.7277C22.8078 35.7422 22.7537 35.8361 22.7769 35.8643C22.8078 35.8855 22.889 35.8428 22.9045 35.8643C22.9277 35.8777 23.0246 35.8361 23.04 35.8643C23.0592 35.8777 23.0246 35.9794 23.04 35.9861C23.0709 36.0141 23.1484 35.9724 23.1754 35.9861C23.1948 36.0073 23.1562 36.0945 23.1754 36.1225C23.1948 36.1429 23.2992 36.0945 23.3069 36.1225C23.3226 36.1496 23.2838 36.2445 23.3069 36.2513C23.3496 36.2861 23.5431 36.2164 23.5741 36.2513C23.5858 36.2861 23.5509 36.3519 23.5741 36.3876C23.6438 36.4147 23.7637 36.3519 23.8335 36.3876C23.8527 36.3943 23.8295 36.5017 23.8335 36.5164C23.8604 36.5366 23.9496 36.495 23.9573 36.5164C24.0037 36.5705 23.9419 36.7185 23.9573 36.7746C23.9728 36.8017 24.0849 36.7601 24.1004 36.7746C24.1238 36.8017 24.0849 36.882 24.1004 36.9169H24.3715C24.383 36.9383 24.3444 37.0253 24.3715 37.0465C24.3792 37.0669 24.4797 37.0387 24.4953 37.0465C24.5726 37.0669 24.6616 37.0253 24.7508 37.0465C24.7971 37.0601 25.0023 37.0185 25.0254 37.0465C25.0525 37.0736 25.0023 37.1539 25.0254 37.182C25.0989 37.1965 25.219 37.1471 25.2885 37.182C25.308 37.182 25.2693 37.2904 25.2885 37.3039C25.308 37.332 25.3892 37.2904 25.4124 37.3039C25.4395 37.3183 25.5325 37.2904 25.548 37.3039C25.5674 37.3253 25.5325 37.4258 25.548 37.4404C25.5866 37.4606 25.6486 37.4258 25.6835 37.4404C25.7104 37.4606 25.7996 37.4258 25.8111 37.4404C25.8343 37.4606 25.7996 37.5623 25.8111 37.569C25.8537 37.5972 25.9195 37.5488 25.9467 37.569C25.9776 37.5904 26.055 37.5488 26.086 37.569C26.1054 37.5972 26.0628 37.6774 26.086 37.7123C26.1286 37.7325 26.3065 37.6562 26.3414 37.7123C26.3685 37.7258 26.3297 37.806 26.3414 37.8342C26.3297 37.869 26.3685 37.9493 26.3414 37.9705C26.3297 37.9909 26.2253 37.9493 26.2058 37.9705C26.1904 37.9976 26.2253 38.0664 26.2058 38.106V38.3712C26.1635 38.3363 25.9893 38.4185 25.9467 38.3712C25.9427 38.35 25.9621 38.2346 25.9467 38.2346C25.8769 38.2077 25.757 38.2695 25.6835 38.2346C25.6641 38.2279 25.6912 38.1195 25.6835 38.106C25.6641 38.0779 25.5751 38.1195 25.548 38.106C25.5208 38.0779 25.4395 38.1195 25.4124 38.106C25.4047 38.0848 25.4318 37.9842 25.4124 37.9705C25.37 37.9493 25.1804 38.0121 25.1532 37.9705C25.1455 37.956 25.1727 37.8476 25.1532 37.8342C25.0835 37.806 24.9673 37.8758 24.8901 37.8342C24.8746 37.8342 24.917 37.719 24.8901 37.7123C24.8591 37.6842 24.7777 37.719 24.7508 37.7123C24.7391 37.6909 24.6461 37.7258 24.6229 37.7123C24.6075 37.6909 24.6461 37.5835 24.6229 37.569C24.5726 37.5488 24.3947 37.6106 24.3715 37.569C24.352 37.5623 24.3792 37.4539 24.3715 37.4404C24.294 37.4258 24.1739 37.482 24.1004 37.4404C24.0849 37.4404 24.116 37.3183 24.1004 37.3039C24.0849 37.2759 23.9805 37.3253 23.9573 37.3039C23.9419 37.2904 23.8604 37.332 23.8335 37.3039C23.814 37.2904 23.8527 37.182 23.8335 37.182C23.7946 37.1539 23.6012 37.2102 23.5741 37.182C23.5546 37.1685 23.5741 37.0534 23.5741 37.0465C23.4928 37.0253 23.3767 37.0881 23.3069 37.0465C23.2838 37.0387 23.3226 36.9383 23.3069 36.9169C23.2838 36.8887 23.1948 36.9383 23.1754 36.9169C23.1484 36.8967 23.0632 36.9383 23.04 36.9169C23.0246 36.8887 23.0592 36.8095 23.04 36.7746H22.7769C22.7614 36.7601 22.8078 36.6799 22.7769 36.6517C22.773 36.6383 22.6723 36.6517 22.6453 36.6517C22.6184 36.6517 22.5484 36.6662 22.5252 36.6517C22.4943 36.6383 22.5292 36.5299 22.5252 36.5164C22.4943 36.495 22.4053 36.5299 22.3821 36.5164C22.355 36.5017 22.2698 36.5366 22.2466 36.5164C22.2311 36.5017 22.2698 36.4013 22.2466 36.3876C22.2157 36.3664 22.1459 36.408 22.1188 36.3876C22.0956 36.3664 22.0106 36.408 21.9835 36.3876C21.968 36.3664 22.0027 36.2861 21.9835 36.2513C21.9603 36.2445 21.875 36.2725 21.8634 36.2513C21.8402 36.2445 21.875 36.1361 21.8634 36.1225C21.8247 36.0945 21.7589 36.1429 21.724 36.1225C21.7009 36.1013 21.6119 36.1496 21.5847 36.1225C21.5576 36.0945 21.6119 36.0141 21.5847 35.9861C21.5461 35.958 21.3525 36.0258 21.3253 35.9861C21.3061 35.9724 21.3448 35.8902 21.3253 35.8643H21.0662C21.0467 35.8361 21.0816 35.7422 21.0662 35.7277C21.0467 35.7075 20.9578 35.7277 20.9306 35.7277C20.8494 35.7075 20.7372 35.7539 20.6675 35.7277C20.6482 35.7142 20.6714 35.6116 20.6675 35.5924C20.6403 35.571 20.5591 35.6116 20.5282 35.5924C20.505 35.5777 20.416 35.6183 20.4083 35.5924C20.3849 35.5777 20.416 35.4703 20.4083 35.4636C20.3345 35.4277 20.2107 35.4907 20.1489 35.4636C20.1295 35.4558 20.1489 35.3484 20.1489 35.334C20.1063 35.3058 20.029 35.3619 20.0133 35.334C19.9902 35.3058 20.029 35.2121 20.0133 35.1984C19.9941 35.1772 19.878 35.2121 19.8703 35.1984C19.8548 35.1705 19.878 35.1027 19.8703 35.0621C19.789 35.0484 19.6961 35.0883 19.6109 35.0621C19.5837 35.0621 19.4987 35.0883 19.4756 35.0621C19.4484 35.0484 19.4987 34.9662 19.4756 34.9402C19.4484 34.9121 19.3632 34.9527 19.3554 34.9402C19.3323 34.9266 19.3632 34.8164 19.3554 34.8037C19.2819 34.7765 19.1387 34.8443 19.0846 34.8037C19.0536 34.7833 19.096 34.6876 19.0846 34.6751C19.0536 34.6537 18.9607 34.6876 18.9413 34.6751C18.9258 34.6402 18.9607 34.5724 18.9413 34.5463H18.415C18.4033 34.5183 18.4498 34.4244 18.415 34.41C18.4033 34.3895 18.3143 34.4167 18.2951 34.41C18.205 34.3997 18.1141 34.3997 18.024 34.41H17.3621C17.3429 34.4244 17.3778 34.5183 17.3621 34.5463H16.6965C16.4875 34.5463 16.2555 34.56 16.0541 34.5463C15.9626 34.5391 15.8707 34.5391 15.7792 34.5463C15.7316 34.5497 15.6838 34.5497 15.6362 34.5463C15.6322 34.5318 15.6593 34.4244 15.6362 34.41C15.6322 34.3963 15.5432 34.41 15.5161 34.41H15.2567C15.2119 34.4031 15.1662 34.4031 15.1214 34.41C15.1136 34.4167 15.1291 34.5183 15.1214 34.5463C15.0737 34.5422 15.0258 34.5422 14.9781 34.5463C14.7693 34.5724 14.5485 34.5183 14.3319 34.5463C14.15 34.56 13.9758 34.5183 13.8054 34.5463C13.7822 34.5183 13.8171 34.4244 13.8054 34.41C13.7899 34.3963 13.6893 34.41 13.6661 34.41C13.4881 34.4032 13.3177 34.4167 13.1435 34.41C12.9075 34.4032 12.594 34.41 12.3503 34.41H9.27721C7.75217 37.2361 6.2505 40.0557 4.75281 42.9043C4.91134 43.2439 5.10499 43.6309 5.29459 44.0391H5.60437C5.65198 44.0426 5.69977 44.0426 5.74739 44.0391V43.9096C5.79376 43.9062 5.84031 43.9062 5.88669 43.9096C5.89065 43.9173 5.87123 44.0391 5.88669 44.0391C6.04938 44.0528 6.23505 44.0391 6.4015 44.0391C6.74987 44.0461 7.11746 44.0391 7.46206 44.0391C8.17028 44.0461 8.87852 44.0391 9.57129 44.0391C10.2835 44.0391 10.9879 44.0596 11.6962 44.0391C11.905 44.0391 12.1295 44.0596 12.3503 44.0391C12.4377 44.0494 12.526 44.0494 12.6134 44.0391C12.6404 44.0391 12.7296 44.0596 12.7488 44.0391C12.7565 44.0391 12.7296 43.9096 12.7488 43.9096C12.9214 43.897 13.0947 43.897 13.2674 43.9096C13.3526 43.924 13.4687 43.8834 13.5462 43.9096C13.5577 43.9173 13.5228 44.0334 13.5462 44.0391H13.6661C14.3705 44.0461 15.071 44.0391 15.7792 44.0391H15.9302C16.9405 42.137 17.9776 40.226 19.1387 38.4185C21.4068 39.7238 23.7251 40.8781 26.0085 42.1156C27.2238 42.761 28.4119 43.4762 29.5886 44.1747C29.6041 44.1747 29.6313 44.1814 29.6427 44.168C29.6659 44.168 29.6313 44.0528 29.6427 44.0391C29.6736 44.0199 29.7511 44.0596 29.7743 44.0391H30.1807V43.6377C30.169 43.6242 30.0529 43.6638 30.0375 43.6377C30.0182 43.6242 30.0529 43.542 30.0375 43.5158V43.3803H30.3046V43.6377C30.324 43.6783 30.2892 43.7595 30.3046 43.7877H30.4324C30.4593 43.7877 30.5329 43.7595 30.56 43.7877C30.5832 43.7877 30.5483 43.8981 30.56 43.9096C30.5832 43.931 30.6684 43.8981 30.6956 43.9096C30.711 43.9173 30.6839 44.0334 30.6956 44.0391C30.711 44.0528 30.8117 44.0391 30.8386 44.0391C30.9547 44.0461 31.098 44.0199 31.2256 44.0391C31.3597 44.0494 31.4942 44.0494 31.6283 44.0391H37.5614C37.5808 44.072 37.542 44.1553 37.5614 44.168C37.5808 44.1941 37.6698 44.168 37.6969 44.168C37.784 44.1941 37.8768 44.1941 37.9639 44.168C37.9833 44.168 38.08 44.1941 38.0917 44.168C38.1071 44.1553 38.0723 44.0528 38.0917 44.0391C38.1188 44.0199 38.1884 44.0596 38.2233 44.0391C38.2736 44.072 38.4516 43.9985 38.4942 44.0391C38.5058 44.072 38.471 44.1418 38.4942 44.168H40.472C40.4989 44.1941 40.5802 44.1553 40.5996 44.168C40.6151 44.1941 40.5802 44.2898 40.5996 44.3043C40.6268 44.3304 40.6926 44.2898 40.7351 44.3043C40.7698 44.316 40.8435 44.2898 40.8628 44.3043C40.8937 44.3227 40.8435 44.4264 40.8628 44.4398C40.9016 44.466 40.9674 44.4137 41.0021 44.4398H41.2575C41.2809 44.4137 41.2383 44.3304 41.2575 44.3043C41.2809 44.2898 41.3736 44.3227 41.393 44.3043C41.4239 44.2898 41.5091 44.3304 41.5169 44.3043C41.5363 44.2966 41.5091 44.1747 41.5169 44.168C41.6524 44.1351 41.8032 44.2076 41.9194 44.168H42.4536C42.469 44.1418 42.4265 44.0596 42.4536 44.0391C42.469 44.0334 42.5618 44.0461 42.5889 44.0391C42.6624 44.0199 42.7631 44.0596 42.8483 44.0391C42.9722 44.0596 43.1152 44.0199 43.2508 44.0391C43.2779 44.0461 43.3515 44.0334 43.363 44.0391C43.3941 44.0596 43.3515 44.1612 43.363 44.168C43.4056 44.1941 43.4713 44.1553 43.5062 44.168H44.9887C44.8634 44.1048 44.7419 44.0343 44.6248 43.9569C44.9876 43.5455 45.4056 43.1863 45.8671 42.8898C46.3123 42.5941 46.7808 42.3352 47.2681 42.1156C46.1923 41.3822 45.031 40.5676 43.8274 39.8671C41.3544 38.4185 38.916 36.8887 36.5746 35.5099C35.8315 35.0688 35.0458 34.708 34.3142 34.2744H34.2638V34.2465C34.2076 34.2096 34.1496 34.1757 34.0899 34.1448C33.9737 34.1448 33.8613 34.1525 33.7337 34.1448C33.5673 34.1381 33.3814 34.1525 33.2035 34.1448H32.948V33.8854H33.7183C33.4663 33.6979 33.2294 33.4908 33.0099 33.2662C41.6098 28.8831 50.0239 24.3228 58.6236 19.933C60.0538 18.3502 61.8702 17.1657 63.8952 16.4951C67.5254 14.7148 71.1402 12.8929 74.5926 11.2209C76.8336 8.76129 77.8281 5.03707 81.1915 3.69117C81.5785 3.22965 81.7218 2.54937 82.2519 2.23687C82.2404 1.84313 82.5307 1.73473 82.6545 1.44938C82.7976 1.36714 83.4866 0.898694 82.9137 0.919104C73.2728 6.13726 63.1288 10.5677 53.1974 15.4492C43.3049 20.3075 33.3273 25.0863 23.516 29.9716C25.9775 25.3968 28.4378 20.8186 30.8967 16.2369C27.2858 16.1081 24.3715 16.6655 20.7295 16.4951C20.029 16.4081 20.0559 15.5992 19.5413 15.3129C16.2475 21.394 12.9642 27.4949 9.69136 33.6155C9.82672 33.6223 9.96602 33.6155 10.1093 33.6155ZM35.8469 37.4404C35.8918 37.4472 35.9374 37.4472 35.9823 37.4404C36.0725 37.4331 36.1631 37.4331 36.2533 37.4404V37.7123H36.1101C36.1023 37.6909 36.1255 37.5835 36.1101 37.569C36.0869 37.5623 35.8546 37.5904 35.8469 37.569C35.843 37.5341 35.8546 37.482 35.8469 37.4404ZM35.7114 38.2346C35.7308 38.2144 35.843 38.256 35.8469 38.2346C35.8661 38.2144 35.8315 38.106 35.8469 38.106C35.9341 38.092 36.0229 38.092 36.1101 38.106C36.1576 38.0993 36.2058 38.0993 36.2533 38.106H36.381V37.8342C36.4004 37.8623 36.4817 37.813 36.501 37.8342C36.5203 37.8623 36.4817 37.956 36.501 37.9705C36.528 37.9909 36.6249 37.9493 36.6404 37.9705C36.6558 37.9842 36.6249 38.0926 36.6404 38.106C36.7139 38.1342 36.826 38.0664 36.9112 38.106C36.9344 38.106 37.0196 38.0779 37.0389 38.106C37.0544 38.1195 37.0196 38.2212 37.0389 38.2346C37.07 38.256 37.1358 38.2144 37.1704 38.2346C37.2131 38.256 37.3912 38.1863 37.4415 38.2346C37.4647 38.256 37.4066 38.3363 37.4415 38.3712C37.3486 38.3847 37.2479 38.343 37.1704 38.3712C37.1396 38.3779 37.0466 38.35 37.0389 38.3712C37.0274 38.3779 37.0466 38.493 37.0466 38.493C36.9113 38.4999 36.7757 38.4999 36.6404 38.493H35.9823C35.9374 38.4999 35.8918 38.4999 35.8469 38.493C35.8315 38.4863 35.8661 38.3847 35.8469 38.3712C35.8315 38.3363 35.7308 38.3847 35.7114 38.3712C35.7308 38.3363 35.6882 38.256 35.7114 38.2346ZM34.918 37.569C34.9296 37.5623 35.0458 37.5758 35.0573 37.569C35.1036 37.5724 35.1502 37.5724 35.1966 37.569H35.4482C35.4894 37.5656 35.5309 37.5656 35.5721 37.569C35.6107 37.5972 35.5643 37.6842 35.5721 37.7123H35.1966C35.1696 37.7258 35.216 37.813 35.1966 37.8342C35.1773 37.8476 35.0573 37.8476 35.0573 37.8342C35.0341 37.806 35.0807 37.7325 35.0573 37.7123C35.0341 37.6909 34.9528 37.7258 34.918 37.7123V37.569ZM30.1807 37.569H30.3046V37.7123H30.1807C30.169 37.6653 30.169 37.6161 30.1807 37.569V37.569ZM29.3873 37.7123C29.3873 37.6978 29.4994 37.6978 29.5074 37.7123V37.8342C29.4994 37.8476 29.3873 37.8476 29.3873 37.8342V37.7123ZM28.4546 39.1666C28.4817 39.1733 28.563 39.1317 28.5901 39.1666C28.6133 39.1868 28.563 39.274 28.5901 39.2885C28.6133 39.3164 28.6985 39.274 28.714 39.2885C28.7255 39.3328 28.7255 39.3794 28.714 39.4238H28.5901C28.563 39.3959 28.6133 39.3164 28.5901 39.2885C28.563 39.274 28.4777 39.3164 28.4546 39.2885C28.4274 39.274 28.4701 39.1868 28.4546 39.1666V39.1666ZM26.7438 37.4404H27.394C27.4174 37.4539 27.4174 37.569 27.394 37.569C27.3825 37.5972 27.2858 37.5555 27.2587 37.569C27.247 37.5904 27.158 37.5488 27.1386 37.569C27.1154 37.5904 27.1426 37.6842 27.1386 37.7123C27.1386 37.7258 27.1426 37.813 27.1386 37.8342C27.1154 37.8623 27.0304 37.8207 26.9993 37.8342C26.9646 37.8207 26.9066 37.8623 26.8794 37.8342C26.8599 37.8342 26.8871 37.719 26.8794 37.7123C26.8599 37.6909 26.7438 37.719 26.7438 37.7123C26.7169 37.6301 26.7633 37.5207 26.7438 37.4404ZM22.2466 33.0902H23.5741C23.6603 33.0805 23.7473 33.0805 23.8335 33.0902C23.8604 33.0902 23.9496 33.064 23.9573 33.0902C23.9805 33.1094 23.9496 33.1936 23.9573 33.2141H22.3822C22.355 33.2004 22.2698 33.24 22.2466 33.2141C22.2157 33.2004 22.2698 33.1162 22.2466 33.0902V33.0902Z" fill="#FCEE0A"/>
<path id="Vector_5" fill-rule="evenodd" clip-rule="evenodd" d="M79.0241 70.9779C79.0435 70.9991 78.9972 71.0813 79.0241 71.1075C79.0319 71.1211 79.1402 71.1075 79.1519 71.1075H79.2835C79.2564 71.1403 79.3107 71.2168 79.2835 71.243H78.7958C79.1751 71.4336 79.5621 71.6512 79.9569 71.8478C79.9569 71.8147 79.9569 71.7818 79.9414 71.7683H79.8138V71.6387C79.8138 71.632 79.9414 71.6512 79.9414 71.6387C79.9569 71.4606 79.9337 71.2836 79.9414 71.1075H79.8138C79.7276 71.1177 79.6406 71.1177 79.5544 71.1075C79.5389 71.095 79.5389 70.9779 79.5544 70.9779C79.5698 70.9594 79.6473 70.9923 79.6705 70.9779H80.5995C80.615 70.9991 80.5801 71.0813 80.5995 71.1075C80.615 71.1279 80.7077 71.1075 80.7349 71.1075C80.821 71.1177 80.9081 71.1177 80.9942 71.1075C81.0844 71.1143 81.175 71.1143 81.2651 71.1075C81.3426 71.095 81.4587 71.1403 81.5245 71.1075C81.5515 71.095 81.5166 70.9923 81.5245 70.9779C81.5515 70.9594 81.6327 70.9923 81.6676 70.9779H81.927V71.243C81.8457 71.2575 81.7373 71.2168 81.6676 71.243C81.6405 71.2497 81.6676 71.3601 81.6676 71.3668C81.6201 71.3731 81.572 71.3731 81.5245 71.3668C81.5245 71.3668 81.5437 71.2497 81.5245 71.243C81.4795 71.2371 81.434 71.2371 81.389 71.243C81.3478 71.2464 81.3063 71.2464 81.2651 71.243C81.22 71.2405 81.1747 71.2405 81.1296 71.243C81.1181 71.2642 81.153 71.3532 81.1296 71.3668C81.1219 71.393 81.0097 71.3532 80.9942 71.3668C80.9748 71.4471 81.0368 71.5622 80.9942 71.6387C80.9942 71.6512 80.8781 71.625 80.8664 71.6387C80.8432 71.6512 80.8742 71.7404 80.8664 71.7683C80.8432 71.8478 80.8936 71.9492 80.8664 72.0335H80.5995C80.5801 72.0053 80.6264 71.9231 80.5995 71.8971C80.5878 71.8834 80.4794 71.8971 80.4717 71.8971C80.3284 71.8902 80.1853 71.8971 80.0343 71.8971C84.4969 74.2752 88.953 76.6312 93.4024 78.9651V78.8945C93.4373 78.8674 93.5108 78.9227 93.5417 78.8945C93.5612 78.8811 93.5341 78.7871 93.5417 78.7727C93.5612 78.7523 93.6462 78.7727 93.6773 78.7727C93.7172 78.7693 93.7573 78.7693 93.7972 78.7727H96.5684C97.0135 78.7727 97.4546 78.7523 97.8959 78.7727H98.9254C98.9384 78.4773 98.9695 78.1829 99.0183 77.8913C97.0199 76.5886 94.9499 75.3991 92.8181 74.3285C92.0623 74.6493 91.2542 74.829 90.4338 74.8588C88.7078 73.8805 86.9622 72.9149 85.2206 71.9492V72.0335C85.2012 72.0519 85.1199 72.019 85.0928 72.0335H84.5627C84.4813 72.0519 84.3731 72.0053 84.2956 72.0335C84.2839 72.0382 84.3188 72.1476 84.2956 72.1621C84.2839 72.1882 84.1949 72.1476 84.1755 72.1621H83.773C83.7499 72.1341 83.7925 72.0519 83.773 72.0335C83.7282 72.0262 83.6825 72.0262 83.6377 72.0335C83.5563 72.019 83.4635 72.0451 83.3783 72.0335C83.3357 72.0257 83.1423 72.0596 83.1151 72.0335C83.092 72.0053 83.1423 71.9358 83.1151 71.8971C83.0688 71.9096 83.0184 71.8834 82.9796 71.8971C82.999 71.8834 82.9642 71.7867 82.9796 71.7683H83.2428C83.2564 71.6805 83.2564 71.591 83.2428 71.5032V71.243H82.9796C82.8908 71.2502 82.8015 71.2502 82.7127 71.243C82.6933 71.2313 82.6043 71.2575 82.5849 71.243C82.5577 71.2168 82.6043 71.1403 82.5849 71.1075H83.7073C72.8125 65.0737 61.782 59.1802 50.9682 53.0719C50.6974 51.4046 50.3375 49.8217 49.9737 48.2737H45.3563C45.3332 48.2881 45.368 48.3751 45.3563 48.4032C45.3332 48.4167 45.2479 48.3888 45.2208 48.4032C45.1395 48.4237 45.0506 48.382 44.9616 48.4032C44.9307 48.4032 44.71 48.3751 44.683 48.4032C44.6673 48.4304 44.7022 48.5039 44.683 48.5319H44.0366C44.0094 48.5039 44.0521 48.4237 44.0366 48.4032C44.0172 48.382 43.9165 48.4032 43.901 48.4032C43.7154 48.3888 43.5489 48.4032 43.363 48.4032C43.305 48.3751 43.1891 48.4304 43.1076 48.4032C43.0845 48.3888 43.1154 48.2881 43.1076 48.2737C43.0845 48.2455 43.0072 48.2881 42.9723 48.2737C42.9065 48.2455 42.7864 48.3016 42.7129 48.2737C42.6937 48.26 42.7323 48.1516 42.7129 48.1381C42.6937 48.1169 42.5891 48.1516 42.5891 48.1381C42.5698 48.1032 42.5968 48.0424 42.5891 48.0018H44.1682V47.6078C44.145 47.5944 44.0521 47.634 44.0366 47.6078C44.0094 47.5944 44.0521 47.486 44.0366 47.4715C44.0094 47.4578 43.9282 47.486 43.901 47.4715C43.8198 47.4578 43.7154 47.486 43.6302 47.4715C43.4599 47.4578 43.2858 47.486 43.1076 47.4715H42.3104C42.2833 47.4994 42.202 47.4511 42.1749 47.4715C42.1634 47.4994 42.202 47.5944 42.1749 47.6078C42.1634 47.6215 42.0821 47.6011 42.055 47.6078C41.9738 47.6215 41.8846 47.6011 41.7956 47.6078C41.6254 47.6215 41.428 47.6078 41.2576 47.6078H37.3061C37.2906 47.5866 37.3178 47.4994 37.3061 47.4715H37.1705C37.19 47.4511 37.1397 47.3641 37.1705 47.3427C37.2157 47.3393 37.261 47.3393 37.3061 47.3427C37.4726 47.336 37.6505 47.3496 37.8209 47.3427C38.0453 47.336 38.2737 47.3496 38.4942 47.3427H39.5471C39.6347 47.35 39.7227 47.35 39.8102 47.3427C39.8334 47.336 39.9186 47.3574 39.9496 47.3427C39.961 47.3215 39.9186 47.2276 39.9496 47.2141C39.9844 47.1859 40.0425 47.2276 40.0694 47.2141C40.1043 47.1929 40.1855 47.2402 40.205 47.2141C40.2088 47.1687 40.2088 47.1231 40.205 47.0778C40.2011 47.0349 40.2011 46.9918 40.205 46.9489C40.2321 46.9208 40.3134 46.9684 40.3405 46.9489C40.356 46.9277 40.3134 46.8203 40.3405 46.8203C40.356 46.8057 40.4644 46.8203 40.4721 46.8203C40.4778 46.775 40.4778 46.7291 40.4721 46.6838V46.5475C40.499 46.5338 40.5803 46.5744 40.5997 46.5475C40.6152 46.5338 40.5803 46.4448 40.5997 46.4187H47.3262C47.694 46.4187 48.0424 46.4119 48.3908 46.4187H48.8281C47.9804 45.9484 47.1251 45.4667 46.2931 44.9703H42.1749C42.1634 44.9442 42.202 44.8552 42.1749 44.8358C42.1671 44.8223 42.0744 44.8358 42.055 44.8358C41.8382 44.8223 41.6254 44.8358 41.3931 44.8358C41.3482 44.8421 41.3025 44.8421 41.2576 44.8358C41.2384 44.8223 41.1494 44.8485 41.13 44.8358C41.1145 44.8154 41.1494 44.7264 41.13 44.6984H38.2234C37.8209 44.6984 37.4416 44.7119 37.039 44.6984C36.8688 44.6984 36.6829 44.7119 36.5012 44.6984C36.4192 44.7124 36.3354 44.7124 36.2535 44.6984C36.2223 44.6984 36.1256 44.7264 36.1102 44.6984C36.087 44.6858 36.1256 44.5948 36.1102 44.5686C35.9398 44.5833 35.7618 44.5619 35.5722 44.5686C35.5644 44.5764 35.4678 44.5619 35.4483 44.5686C35.4483 44.5764 35.4678 44.6984 35.4483 44.6984C35.4042 44.7119 35.357 44.7119 35.3128 44.6984C35.3167 44.6553 35.3167 44.6118 35.3128 44.5686C35.0459 44.5619 34.7787 44.5764 34.3917 44.5686C34.2253 44.5619 34.0357 44.5686 33.8615 44.5686H32.4179C31.7211 44.5686 31.0981 44.5504 30.4325 44.5686C30.39 44.5653 30.3472 44.5653 30.3047 44.5686V44.59C31.1136 45.0593 31.9225 45.5208 32.7508 45.9484C32.8784 46.4643 33.312 46.7032 33.5442 47.1299C48.4487 54.9616 63.4075 63.0475 78.3044 70.9779H79.0241ZM82.1824 71.8971C82.1321 71.9358 81.9541 71.8555 81.927 71.8971C81.9193 71.9096 81.9308 72.0335 81.927 72.0335C81.8806 72.0358 81.8341 72.0358 81.7877 72.0335C81.7477 72.0358 81.7076 72.0358 81.6676 72.0335C81.6484 72.0257 81.6676 71.9096 81.6676 71.8971C81.6947 71.8834 81.7605 71.9231 81.7877 71.8971C81.8303 71.8622 81.7528 71.6793 81.7877 71.6387H82.1824V71.8971ZM80.8664 70.0538H80.9942C81.0135 70.0277 80.9748 69.9512 80.9942 69.925C81.0385 69.9125 81.0853 69.9125 81.1296 69.925C81.1451 69.925 81.1219 70.0421 81.1296 70.0538C81.153 70.0683 81.2303 70.0354 81.2651 70.0538C81.2883 70.0683 81.238 70.164 81.2651 70.1834C81.2883 70.2096 81.3618 70.169 81.389 70.1834C81.3813 70.2096 81.4084 70.2928 81.389 70.312C81.3813 70.3315 81.2883 70.3053 81.2651 70.312C81.176 70.3324 81.0834 70.3324 80.9942 70.312C80.9788 70.3053 81.0135 70.1969 80.9942 70.1834C80.9788 70.169 80.8936 70.2096 80.8664 70.1834C80.8432 70.1573 80.8936 70.0877 80.8664 70.0538ZM80.077 70.0538C80.1041 70.0354 80.1854 70.0683 80.2046 70.0538C80.2357 70.0354 80.1931 69.9512 80.2046 69.925C80.2357 69.9397 80.3092 69.8991 80.3361 69.925C80.3556 69.932 80.3361 70.0354 80.3361 70.0538C80.3361 70.0683 80.3556 70.169 80.3361 70.1834C80.2503 70.1969 80.1629 70.1969 80.077 70.1834C80.0653 70.1573 80.1002 70.0877 80.077 70.0538ZM68.5783 65.3029H68.4545V65.1676H68.5783C68.5938 65.1676 68.5938 65.2962 68.5783 65.3029ZM69.6387 65.3029H69.5148V65.1676H69.6387C69.6504 65.212 69.6504 65.2586 69.6387 65.3029V65.3029ZM72.8125 65.3029C72.7581 65.2633 72.5879 65.3455 72.553 65.3029V65.1676C72.639 65.1539 72.7265 65.1539 72.8125 65.1676C72.8316 65.1888 72.793 65.2758 72.8125 65.3029ZM77.1626 70.1834C77.0767 70.1969 76.9892 70.1969 76.9032 70.1834C76.884 70.1573 76.9187 70.0877 76.9032 70.0538C76.9575 70.0877 77.1355 70.0073 77.1626 70.0538V70.1834ZM77.9638 70.312C77.9366 70.2928 77.987 70.2096 77.9638 70.1834C77.9366 70.164 77.8554 70.2096 77.8282 70.1834C77.8011 70.164 77.8477 70.0818 77.8282 70.0538C77.8554 70.0683 77.9366 70.0354 77.9638 70.0538C77.987 70.0683 77.9366 70.164 77.9638 70.1834C77.987 70.2096 78.0722 70.164 78.0991 70.1834V70.312C78.0543 70.319 78.0086 70.319 77.9638 70.312V70.312Z" fill="#FCEE0A"/>
</g>
</g>
</svg>
