<svg width="51" height="40" viewBox="0 0 51 40" fill="none" xmlns="http://www.w3.org/2000/svg">
<g id="N-YELLOW">
<path id="N-BLUE" fill-rule="evenodd" clip-rule="evenodd" d="M49.0769 5.18865C49.4252 4.51808 49.8005 3.86395 50.1489 3.19833C46.9017 3.01543 43.2404 3.77696 40.6473 3.32694C36.7576 8.99709 33.549 15.8069 30.0852 21.6782C29.5948 22.6111 29.0454 23.5118 28.4403 24.3747C26.9805 17.527 25.1484 10.7639 22.9522 4.11562H20.0534C20.4249 3.30772 19.8946 3.062 19.5154 2.67479C19.7167 1.94239 20.3125 1.61543 20.3125 0.691406L19.7862 1.08515C17.9982 4.04883 16.3882 7.0793 14.898 10.193C13.4158 13.2785 11.5231 16.1727 9.88595 19.1643C6.5846 25.2108 3.20576 31.1992 0.241089 37.526C0.868068 37.2957 0.957254 37.1856 1.4372 37.2813C1.11202 37.9402 0.783062 38.5923 0.473338 39.2591C1.05791 38.7221 1.17779 39.0616 2.06416 39.1293C4.65728 38.4772 8.17922 38.2856 11.1748 37.676C13.977 32.6059 16.8642 27.6093 19.7513 22.6303C21.1486 28.1744 22.4219 33.8561 23.8346 39.3877C26.3956 39.4385 28.9576 39.3522 31.5094 39.1293C37.6941 27.8154 43.999 16.5946 50.1218 5.20312C49.7696 5.18191 49.4173 5.18192 49.0769 5.18865Z" fill="#52BEDC"/>
<path id="Vector" fill-rule="evenodd" clip-rule="evenodd" d="M9.95175 19.2515V19.3878C9.93252 19.4082 9.84336 19.3666 9.81641 19.3878V19.2864C8.43089 21.8282 7.01421 24.3632 5.65186 26.9098C5.68277 26.9175 5.71765 26.9242 5.71765 26.9098C5.73311 26.8983 5.70992 26.7879 5.71765 26.7879C5.80739 26.7738 5.8988 26.7738 5.98854 26.7879H6.24791C6.42181 26.7738 6.59657 26.7738 6.77047 26.7879C6.84775 26.7879 6.97162 26.7483 7.04514 26.7879C7.0491 26.7879 7.03741 26.8983 7.04514 26.9098C7.0491 26.9242 7.14975 26.9098 7.18066 26.9098H7.44381C7.52994 26.9205 7.61708 26.9205 7.70321 26.9098L7.6955 26.7879C7.71096 26.7598 7.80766 26.7879 7.83084 26.7879C7.92059 26.7738 8.01196 26.7738 8.1017 26.7879V26.9098C8.10943 26.9242 8.21783 26.9098 8.22555 26.9098C8.3611 26.9175 8.49664 26.9098 8.62426 26.9098C8.80617 26.9175 8.9881 26.9098 9.15455 26.9098C9.51837 26.9175 9.86275 26.9175 10.2111 26.9098C10.2305 26.9098 10.3273 26.9242 10.3427 26.9098C10.3544 26.8983 10.3273 26.7879 10.3427 26.7879C10.4085 26.7483 10.544 26.7879 10.6098 26.7879C10.7846 26.7671 10.9613 26.7671 11.1362 26.7879C11.2246 26.7738 11.3148 26.7738 11.4033 26.7879C11.4265 26.7879 11.5231 26.7598 11.5309 26.7879C11.5463 26.7879 11.5231 26.9098 11.5309 26.9098C11.6183 26.9205 11.7067 26.9205 11.794 26.9098H12.0534C12.7577 26.9359 13.4738 26.9098 14.1743 26.9098H16.3069C17.4408 25.0221 18.5787 23.1459 19.6509 21.2892C20.1385 23.1392 20.5951 25.0221 21.0364 26.903C21.079 26.9098 21.1331 26.903 21.1641 26.9098C21.2116 26.904 21.2597 26.904 21.3073 26.9098C21.315 26.9242 21.2841 27.0394 21.3073 27.0394C21.3654 27.0723 21.4932 27.0394 21.5744 27.0394H21.6906C21.7175 27.0336 21.6828 26.9175 21.6906 26.9098C21.7641 26.8836 21.8879 26.9242 21.9614 26.9098C22.1381 26.9006 22.3151 26.9006 22.4917 26.9098H23.0218C23.196 26.9098 23.3702 26.903 23.5483 26.9098C23.7263 26.9175 23.9121 26.8913 24.0746 26.9098C24.1559 26.9242 24.272 26.8836 24.3417 26.9098C24.3532 26.9175 24.3338 27.0336 24.3417 27.0394C24.3532 27.053 24.4499 27.0394 24.4694 27.0394C24.8718 27.0598 25.2666 27.0394 25.6538 27.0394H37.0943C38.9521 23.7024 40.7982 20.3591 42.6327 17.0095H41.1079C41.077 17.0357 41.1273 17.1246 41.1079 17.145C41.0924 17.1643 40.9995 17.1383 40.9685 17.145C40.895 17.1643 40.7904 17.1314 40.7132 17.145H39.9157C39.9042 17.1643 39.9468 17.2602 39.9157 17.2746C39.9042 17.2881 39.8151 17.2669 39.7881 17.2746C39.7069 17.2941 39.5945 17.2602 39.5172 17.2746H32.5699C31.7416 18.7686 30.9327 20.2625 30.0852 21.6782C29.5949 22.6111 29.0454 23.5118 28.4403 24.3747C26.9805 17.527 25.1484 10.7639 22.9522 4.11561H20.0534C20.4249 3.30772 19.8946 3.062 19.5154 2.67479C19.7167 1.94239 20.3126 1.61543 20.3126 0.691406L19.7862 1.08515C17.9982 4.04883 16.3882 7.0793 14.898 10.193C13.4158 13.2785 11.5231 16.1727 9.88595 19.1643C9.87516 19.1949 9.86087 19.2242 9.84335 19.2515C9.8794 19.248 9.9157 19.248 9.95175 19.2515V19.2515ZM10.2111 19.5166C10.2547 19.5096 10.2991 19.5096 10.3427 19.5166V19.652H10.2111V19.5166Z" fill="#FCEE0A"/>
<path id="Vector_2" fill-rule="evenodd" clip-rule="evenodd" d="M14.1744 30.4728C13.9983 30.494 13.8203 30.494 13.6442 30.4728C13.6016 30.4728 13.4082 30.5007 13.381 30.4728C13.3655 30.4457 13.4004 30.3702 13.381 30.344H10.6099C10.5212 30.3547 10.4315 30.3547 10.3428 30.344C10.3274 30.3373 10.3545 30.2289 10.3428 30.2154C10.2925 30.1738 10.1145 30.255 10.0757 30.2154C10.0642 30.1873 10.0951 30.105 10.0757 30.0791C10.0347 30.0854 9.99291 30.0854 9.95186 30.0791V29.9503C9.95959 29.9358 10.0642 29.9503 10.0757 29.9503C10.2499 29.9358 10.428 29.9503 10.6099 29.9503H14.5034C14.9988 29.1132 15.4982 28.2697 15.9936 27.4413H11.4034C10.7802 27.4413 10.157 27.4538 9.55337 27.4413C9.22046 27.4279 8.94559 27.4675 8.62438 27.4413C8.54689 27.4279 8.44643 27.4675 8.36122 27.4413C8.34953 27.4279 8.24509 27.4538 8.22567 27.4413C8.21794 27.4279 8.24133 27.3058 8.22567 27.3058C8.09431 27.2952 7.96233 27.2952 7.83096 27.3058C7.53689 27.2913 7.21565 27.3058 6.90592 27.3058H5.43917C3.63175 30.6634 1.87068 34.0335 0.241211 37.5273C1.00769 37.2477 0.957353 37.1191 1.83203 37.391C4.71548 36.6711 8.04376 36.3992 11.1981 35.9367C12.1076 34.1409 13.1333 32.3208 14.2016 30.4728H14.1744ZM12.8547 31.5332H12.5915C12.5028 31.5439 12.4131 31.5439 12.3244 31.5332V31.4046C12.3399 31.3833 12.4483 31.4046 12.4637 31.4046C12.5062 31.4007 12.549 31.4007 12.5915 31.4046C12.6302 31.4394 12.8198 31.3552 12.8547 31.4046C12.8779 31.4317 12.8275 31.5052 12.8547 31.5332Z" fill="#FCEE0A"/>
<path id="Vector_3" fill-rule="evenodd" clip-rule="evenodd" d="M33.58 16.8867C33.8001 16.8664 34.0216 16.8664 34.2416 16.8867V17.0105H34.3695C34.501 17.0155 34.6366 17.0038 34.7642 17.0105C35.1589 17.0155 35.5616 17.0105 35.9563 17.0105H36.0917C36.1111 16.9893 36.0647 16.8934 36.0917 16.8867C36.132 16.8741 36.1752 16.8741 36.2155 16.8867C36.2272 16.8867 36.2078 17.0038 36.2155 17.0105C36.262 17.013 36.3086 17.013 36.355 17.0105C36.5367 17.0155 36.7072 17.0038 36.8851 17.0105C36.9045 16.9893 36.9935 17.0299 37.009 17.0105C37.0284 16.9893 36.9935 16.8934 37.009 16.8867C37.0284 16.8675 37.1251 16.8799 37.1445 16.8867C37.1717 16.8867 37.2684 16.8675 37.2798 16.8867C37.2878 16.8867 37.2684 17.0105 37.2798 17.0105C37.454 17.0299 37.6245 16.9893 37.8024 17.0105C37.8256 16.9893 37.7909 16.9081 37.8024 16.8867C37.8256 16.8675 37.9108 16.8867 37.9417 16.8867C38.0289 16.8736 38.1176 16.8736 38.2049 16.8867C38.3327 16.8742 38.4643 16.8867 38.5998 16.8867C38.8861 16.8675 39.1416 16.8934 39.5171 16.8867C39.6601 16.8742 39.788 16.8934 39.9156 16.8867C39.9622 16.8742 40.1595 16.9081 40.1827 16.8867C40.2099 16.8538 40.1595 16.7783 40.1827 16.7454H41.3709C41.3903 16.7242 41.3437 16.6352 41.3709 16.6168C41.3863 16.6023 41.4793 16.6235 41.5064 16.6168C41.6766 16.6023 41.8508 16.6168 42.0288 16.6168H42.8454C45.2954 12.1572 47.7299 7.68471 50.1488 3.19936C46.9016 3.01645 43.2403 3.77798 40.6472 3.32796C37.7909 7.5022 35.2905 12.2858 32.7866 16.8742C33.0498 16.8675 33.3246 16.8675 33.58 16.8867ZM34.6366 16.0915H36.6142V16.3516H34.6366V16.0915Z" fill="#FCEE0A"/>
<path id="Vector_4" fill-rule="evenodd" clip-rule="evenodd" d="M31.4631 34.433V34.1756C31.4902 34.1544 31.5829 34.196 31.5986 34.1756C31.6256 34.1544 31.5829 34.0605 31.5986 34.046C31.6435 34.0393 31.6891 34.0393 31.7339 34.046C31.8192 34.0325 31.9121 34.0605 31.9933 34.046H32.392C32.4152 34.0179 32.3726 33.9309 32.392 33.9105C32.4152 33.896 32.5002 33.9105 32.5196 33.9105H33.3248C34.4896 31.804 35.6431 29.6841 36.8118 27.5689H28.8273C28.2158 27.5689 27.5888 27.5903 26.9773 27.5689C26.9155 27.5622 26.78 27.5951 26.7181 27.5689C26.6987 27.5622 26.7259 27.4528 26.7181 27.4403C26.6987 27.4269 26.6097 27.4403 26.5826 27.4403C26.45 27.4273 26.3165 27.4273 26.1839 27.4403C26.1762 27.4403 26.0678 27.4269 26.06 27.4403C26.0408 27.4528 26.0757 27.5622 26.06 27.5689C25.9729 27.5835 25.884 27.5835 25.7969 27.5689V27.4403C25.7814 27.4269 25.6808 27.4403 25.6538 27.4403H25.5223C25.4376 27.4273 25.3513 27.4273 25.2666 27.4403C25.2434 27.4528 25.2783 27.5622 25.2666 27.5689C25.2434 27.5903 25.1507 27.5622 25.1313 27.5689C24.9998 27.5763 24.868 27.5763 24.7365 27.5689C24.6054 27.5835 24.473 27.5835 24.3418 27.5689C24.2992 27.5622 24.0979 27.5951 24.0747 27.5689V27.4403C23.8995 27.4273 23.7236 27.4273 23.5484 27.4403C23.5135 27.4403 23.3044 27.4142 23.289 27.4403C23.2812 27.4528 23.3006 27.5689 23.289 27.5689C23.2005 27.5835 23.1103 27.5835 23.0219 27.5689C22.9949 27.5622 22.898 27.5903 22.8788 27.5689V27.4403C22.7501 27.4272 22.6205 27.4272 22.4918 27.4403H21.1564C21.3654 28.3247 21.586 29.2061 21.7988 30.078H21.8299C21.8454 30.078 21.826 30.1999 21.8299 30.2144H21.826C22.4298 32.735 23.049 35.2284 23.7495 37.6551C26.4704 37.7286 28.8273 37.4441 31.4012 37.39C31.939 36.3982 32.4965 35.4268 33.0228 34.433H31.4631ZM30.9368 34.433C30.9328 34.4542 30.8321 34.4263 30.8166 34.433C30.7276 34.4543 30.6348 34.4543 30.5458 34.433C30.5109 34.4195 30.5652 34.3179 30.5458 34.3044C30.5729 34.2897 30.6581 34.3179 30.6813 34.3044C30.7005 34.2763 30.6581 34.2027 30.6813 34.1756C30.7005 34.1893 30.7897 34.1544 30.8166 34.1756C30.8321 34.1893 30.7897 34.2897 30.8166 34.3044C30.8438 34.3179 30.9096 34.2897 30.9368 34.3044C30.9328 34.3324 30.9599 34.4049 30.9368 34.433Z" fill="#FCEE0A"/>
</g>
</svg>
