<svg width="30" height="21" viewBox="0 0 30 21" fill="none" xmlns="http://www.w3.org/2000/svg">
<path id="PC-SVG" d="M7.89 0.0109085H0.624159C0.208053 0.0109085 0 0.226963 0 0.667075V19.3598C0 19.7919 0.208053 20.016 0.624159 20.016H3.1528C3.56891 20.016 3.77696 19.7919 3.77696 19.3598V13.4783C3.77696 13.2543 3.89699 13.1422 4.13705 13.1422H7.89C8.54742 13.1803 9.20563 13.0828 9.82373 12.8556C10.4418 12.6285 11.0066 12.2766 11.4829 11.8219C11.9396 11.3143 12.2914 10.7214 12.518 10.0773C12.7446 9.43322 12.8415 8.75067 12.8033 8.06895V5.0842C12.8474 4.40516 12.757 3.7241 12.5373 3.08007C12.3175 2.43605 11.9728 1.84174 11.5229 1.33124C11.0419 0.871429 10.4706 0.516617 9.84521 0.289325C9.21981 0.0620319 8.55399 -0.032779 7.89 0.0109085V0.0109085ZM8.98628 7.88491C9.0274 8.37739 8.89117 8.86836 8.60219 9.26926C8.41826 9.42653 8.20415 9.54456 7.97297 9.61611C7.7418 9.68766 7.49845 9.71123 7.25784 9.68537H4.10504C3.88899 9.68537 3.77696 9.57334 3.77696 9.34128V3.73986C3.77051 3.69492 3.77447 3.6491 3.78855 3.60594C3.80263 3.56278 3.82645 3.52343 3.85816 3.49095C3.88988 3.45846 3.92864 3.4337 3.97144 3.41859C4.01425 3.40347 4.05996 3.3984 4.10504 3.40377H7.25784C7.49845 3.37791 7.7418 3.40147 7.97297 3.47303C8.20415 3.54458 8.41826 3.66261 8.60219 3.81988C8.89407 4.23154 9.03019 4.73351 8.98628 5.23624V7.88491ZM26.4547 7.21274H28.9514C29.3915 7.21274 29.6075 6.98068 29.6075 6.52456V5.0842C29.6505 4.40462 29.5589 3.72323 29.3378 3.07918C29.1167 2.43514 28.7705 1.84112 28.3192 1.33124C27.8372 0.875246 27.2669 0.522837 26.6434 0.295754C26.02 0.0686702 25.3566 -0.0282714 24.6943 0.0109085H21.4534C20.7919 -0.0337603 20.1283 0.059073 19.5044 0.283559C18.8806 0.508044 18.3099 0.859316 17.8285 1.31524C17.3748 1.82681 17.0273 2.42342 16.8061 3.07043C16.585 3.71745 16.4946 4.40195 16.5402 5.0842V14.9427C16.4946 15.6249 16.585 16.3095 16.8061 16.9565C17.0273 17.6035 17.3748 18.2001 17.8285 18.7117C18.3118 19.1648 18.8828 19.5143 19.5061 19.7386C20.1295 19.9629 20.7922 20.0573 21.4534 20.016H24.6943C25.3566 20.0552 26.02 19.9582 26.6434 19.7311C27.2669 19.5041 27.8372 19.1517 28.3192 18.6957C29.2292 17.665 29.6926 16.315 29.6075 14.9427V13.4783C29.6218 13.3879 29.6149 13.2953 29.5874 13.2079C29.5598 13.1206 29.5124 13.0408 29.4488 12.9749C29.3852 12.909 29.3072 12.8587 29.2208 12.828C29.1345 12.7974 29.0423 12.7871 28.9514 12.7982H26.4547C26.0386 12.7982 25.8306 13.0302 25.8306 13.4783V14.7587C25.8798 15.2655 25.7338 15.772 25.4225 16.175C25.2366 16.3317 25.021 16.4493 24.7887 16.5208C24.5563 16.5923 24.3119 16.6162 24.0701 16.5911H22.0536C21.8156 16.6143 21.5754 16.5894 21.3472 16.5179C21.119 16.4464 20.9075 16.3298 20.7253 16.175C20.4203 15.7691 20.2777 15.2641 20.3252 14.7587V5.26824C20.2777 4.76279 20.4203 4.25779 20.7253 3.85188C20.9075 3.69706 21.119 3.58045 21.3472 3.50897C21.5754 3.43749 21.8156 3.4126 22.0536 3.43578H24.0701C24.3119 3.41068 24.5563 3.43459 24.7887 3.50609C25.021 3.57758 25.2366 3.69519 25.4225 3.85188C25.7338 4.25485 25.8798 4.76139 25.8306 5.26824V6.54057C25.8306 6.99668 26.0386 7.21274 26.4547 7.21274Z" fill="#F0F0E8"/>
</svg>
