<svg width="100" height="21" viewBox="0 0 100 21" fill="none" xmlns="http://www.w3.org/2000/svg">
<g id="PS4-SVG">
<path id="Vector" d="M97.0321 17.4676H97.2258V16.2004H97.6843V16.0361H96.5732V16.2004H97.0321V17.4676Z" fill="#F0F0E8"/>
<g id="Group 7">
<g id="Group">
<path id="Vector_2" d="M75.4419 16.111H89.6782C89.7218 16.111 89.7514 16.1406 89.7514 16.1706V17.3782C89.7514 17.4378 89.7966 17.4676 89.8403 17.4676H92.4063C92.4517 17.4676 92.495 17.4378 92.495 17.3782V16.2004C92.495 16.1556 92.5404 16.111 92.584 16.111H95.1343C95.1937 16.111 95.2233 16.0662 95.2233 16.0217V14.8289C95.2233 14.7839 95.1937 14.7395 95.1343 14.7395H92.584C92.5404 14.7395 92.495 14.6945 92.495 14.6503V6.04821C92.495 5.34628 92.2343 4.89926 91.7956 4.75098H91.0532C90.8218 4.81041 90.5702 4.91683 90.3005 5.07894L74.9675 14.5456C74.3741 14.9182 74.1662 15.3354 74.3147 15.6486C74.4334 15.9171 74.7736 16.111 75.4419 16.111ZM77.666 14.5306L89.5437 7.18117C89.6187 7.12154 89.7672 7.13655 89.7672 7.30043V14.6503C89.7672 14.6951 89.7218 14.7395 89.6782 14.7395H77.7394C77.6366 14.7395 77.5908 14.7101 77.5771 14.6799C77.5609 14.62 77.5906 14.5754 77.666 14.5306V14.5306Z" fill="#F0F0E8"/>
</g>
<g id="Group 6">
<path id="Vector_3" d="M98.0554 16.3047L98.4411 17.4676H98.6328L99.0184 16.3047V17.4676H99.1785V16.0361H98.9451L98.5437 17.2587L98.1287 16.0361H97.8619V17.4676H98.0554V16.3047ZM66.2165 14.0388V8.12024C66.2165 6.91284 66.78 6.04821 67.9819 6.04821H75.3955C75.4407 6.04821 75.4845 6.00319 75.4845 5.95857V4.78099C75.4841 4.77064 75.4817 4.76047 75.4776 4.75098H66.4129C64.4481 5.00075 63.4883 6.37005 63.4883 8.12024V14.0386C63.4883 15.246 62.909 16.1106 61.7233 16.1106H53.8941C53.8497 16.1106 53.8051 16.1406 53.8051 16.2V17.3778C53.8051 17.4268 53.8351 17.4643 53.8702 17.4765H62.7593C65.0758 17.4157 66.2165 15.9366 66.2165 14.0388V14.0388ZM35.7587 17.4765H38.3616C38.3813 17.4688 38.3981 17.4553 38.4097 17.4377C38.4214 17.4201 38.4273 17.3993 38.4268 17.3782V13.6063C38.4268 12.3989 39.1088 11.5639 40.1023 11.5639H50.824C53.2411 11.5639 54.4128 10.0732 54.4128 8.12024C54.4128 6.37005 53.454 5.00075 51.4882 4.75098H35.7105C35.7059 4.76085 35.6982 4.76855 35.6982 4.78099V5.95857C35.6982 6.0182 35.7279 6.04821 35.7871 6.04821H49.9193C51.1206 6.04821 51.6841 6.91284 51.6841 8.12024C51.6841 9.32783 51.1206 10.1925 49.9193 10.1925H38.7382C37.0032 10.1925 35.6982 11.6686 35.6982 13.6063V17.3784C35.698 17.4268 35.719 17.4643 35.7587 17.4765Z" fill="#F0F0E8"/>
<g id="Group_2">
<path id="Vector_4" d="M9.94621 0C11.1029 0.215614 12.2398 0.523633 13.3713 0.844685C14.0184 1.03266 14.664 1.22714 15.3054 1.43427C16.3127 1.75512 17.3158 2.11842 18.2282 2.66022C18.6369 2.90842 19.0294 3.18879 19.3649 3.53077C19.7283 3.8876 20.026 4.30567 20.2443 4.76581C20.6422 5.59668 20.7784 6.52488 20.8187 7.43749C20.8377 8.03299 20.8365 8.63363 20.7251 9.22144C20.6327 9.73223 20.4684 10.2359 20.1952 10.6796C19.9539 11.0713 19.6184 11.4103 19.2113 11.6287C18.8207 11.8392 18.3737 11.9395 17.9308 11.9306C17.2591 11.9375 16.6073 11.7235 16.0045 11.4427C15.9935 9.43804 16.0027 7.43295 15.9998 5.42865C15.9956 5.06593 16.0203 4.69947 15.9471 4.34169C15.8955 4.06448 15.7826 3.78509 15.5648 3.59692C15.4207 3.4668 15.2335 3.39335 15.0455 3.35366C14.8554 3.31753 14.6526 3.39829 14.5349 3.55091C14.3392 3.79535 14.2879 4.11996 14.279 4.42423C14.2774 9.79107 14.281 15.1581 14.2774 20.5246C12.8335 20.067 11.3898 19.6088 9.94621 19.1501C9.94483 12.7668 9.94542 6.38351 9.94621 0ZM3.45687 13.5813C5.33915 12.9149 7.21945 12.2418 9.10251 11.5778C9.10548 12.3166 9.10251 13.0559 9.1037 13.7955C9.10251 13.8958 9.10883 13.9965 9.09639 14.0962C7.60803 14.6238 6.12242 15.1607 4.63564 15.6916C4.4295 15.7696 4.21803 15.8577 4.05909 16.015C3.98504 16.0889 3.92463 16.1981 3.9651 16.3037C4.01604 16.4283 4.1432 16.4962 4.26049 16.5474C4.58667 16.6801 4.94326 16.699 5.29077 16.7148C5.67817 16.7087 6.06734 16.6797 6.44663 16.5959C6.70312 16.5454 6.94993 16.4591 7.19437 16.3673C7.82976 16.1373 8.46515 15.9059 9.10153 15.6782C9.10607 16.3033 9.10232 16.9288 9.1035 17.5547C9.10153 17.6797 9.10923 17.8055 9.09679 17.9299C8.31529 18.0703 7.52451 18.1655 6.73017 18.1781C5.13064 18.2142 3.52736 17.9666 2.00799 17.4667C1.50983 17.3224 1.01463 17.13 0.598408 16.8137C0.369368 16.6364 0.164416 16.4135 0.0601634 16.1392C-0.0271088 15.9068 -0.0207905 15.6387 0.0880036 15.4146C0.192849 15.1909 0.376081 15.0144 0.577873 14.877C1.04464 14.5545 1.55978 14.3085 2.08144 14.0893C2.53143 13.8978 2.9978 13.7485 3.45687 13.5813Z" fill="#F0F0E8"/>
<path id="Vector_5" d="M18.6022 12.7394C19.029 12.69 19.4587 12.6784 19.8879 12.663C21.2997 12.6683 22.719 12.8438 24.0695 13.2676C24.3345 13.3481 24.5912 13.4526 24.8552 13.5365C25.3259 13.7085 25.797 13.917 26.1737 14.2554C26.4 14.4617 26.5953 14.7399 26.5978 15.0574C26.6113 15.3161 26.4944 15.5641 26.3265 15.7546C26.0075 16.1124 25.5857 16.3584 25.1624 16.5728C24.7116 16.8027 24.2271 16.951 23.7544 17.1259C20.8693 18.1619 17.9838 19.1975 15.0992 20.2347C15.0986 19.4264 15.1 18.6184 15.0986 17.811C15.103 17.7787 15.0854 17.7224 15.1308 17.7139C17.326 16.933 19.5207 16.1497 21.7157 15.3664C22.0125 15.2555 22.3322 15.1751 22.5839 14.9739C22.687 14.8929 22.7879 14.7642 22.7373 14.6252C22.6846 14.5038 22.5586 14.4366 22.4427 14.3863C22.1142 14.2562 21.7564 14.2311 21.4069 14.2212C20.8598 14.225 20.3079 14.2923 19.7874 14.4678C18.2238 15.0158 16.6632 15.5704 15.0992 16.1165C15.0994 15.2487 15.0986 14.3816 15.0996 13.514C16.2308 13.1169 17.4123 12.8762 18.6022 12.7394V12.7394ZM25.0159 18.7171C25.3573 18.6747 25.7139 18.8277 25.9184 19.1043C26.1417 19.39 26.1826 19.8019 26.0248 20.1281C25.8655 20.4665 25.5016 20.7037 25.1245 20.6914C24.7776 20.6991 24.4415 20.4971 24.2707 20.1978C24.1165 19.9344 24.0979 19.597 24.2174 19.3166C24.3519 18.9928 24.6682 18.7566 25.0159 18.7171ZM24.9416 18.8996C24.7488 18.9444 24.5787 19.0575 24.4628 19.2181C24.3945 19.3125 24.3469 19.4203 24.3233 19.5345C24.2997 19.6486 24.3005 19.7665 24.3258 19.8803C24.3721 20.0925 24.5004 20.2777 24.6828 20.3956C24.9598 20.5777 25.3482 20.5676 25.6134 20.3678C25.8868 20.1745 26.0167 19.8037 25.9226 19.4824C25.8645 19.2652 25.7093 19.0802 25.5138 18.9726C25.3401 18.8808 25.1328 18.8542 24.9416 18.8996V18.8996Z" fill="#F0F0E8"/>
<path id="Vector_6" d="M24.7048 19.1319C24.8827 19.131 25.0612 19.1317 25.2393 19.1313C25.34 19.1327 25.451 19.1562 25.5224 19.2336C25.5941 19.3146 25.6 19.4327 25.5803 19.5341C25.569 19.6013 25.51 19.641 25.4671 19.6878C25.5043 19.7209 25.552 19.7517 25.5609 19.8056C25.5815 19.9085 25.5597 20.0163 25.5927 20.117C25.6135 20.1527 25.6346 20.1887 25.6362 20.2311C25.5623 20.2333 25.4887 20.2319 25.4148 20.2331C25.3651 20.1158 25.4024 19.9843 25.3712 19.8637C25.3589 19.8145 25.308 19.7839 25.2596 19.7855C25.1392 19.7806 25.0181 19.7839 24.8983 19.7839C24.8963 19.9336 24.9024 20.0836 24.8945 20.2331C24.8317 20.2319 24.7688 20.232 24.706 20.2333C24.7026 19.8657 24.7048 19.4988 24.7048 19.1319V19.1319ZM24.8979 19.3065V19.6108C25.0055 19.6115 25.1133 19.6123 25.2213 19.6111C25.2748 19.6108 25.337 19.6007 25.3718 19.5553C25.3893 19.5262 25.3989 19.4929 25.3994 19.4589C25.3999 19.4249 25.3914 19.3914 25.3747 19.3618C25.3469 19.3156 25.2883 19.3108 25.2401 19.3079C25.126 19.3043 25.0118 19.3065 24.8979 19.3065V19.3065Z" fill="#F0F0E8"/>
</g>
</g>
</g>
</g>
</svg>
