<svg width="120" height="94" viewBox="0 0 120 94" fill="none" xmlns="http://www.w3.org/2000/svg">
<path fill-rule="evenodd" clip-rule="evenodd" d="M109.042 33.6781C109.503 32.8478 110.025 31.9925 110.498 31.1624C113.362 26.1252 116.334 21.1914 119.213 16.2461C118.486 14.3507 117.027 13.1528 117.097 10.4493C117.205 9.93274 117.909 10.0265 118.006 9.52533C117.321 7.85147 118.207 6.22101 118.416 4.37098C118.335 4.41039 118.242 4.41998 118.155 4.39807C118.067 4.37616 117.99 4.32414 117.936 4.2511C117.973 4.02446 117.963 3.79286 117.909 3.56982C117.842 3.70451 117.739 3.81782 117.611 3.89699C117.6 3.90987 117.585 3.9195 117.569 3.92493C117.146 4.14406 116.673 4.24693 116.198 4.22296C111.57 11.861 106.438 19.7448 101.681 27.3231C101.078 28.4855 100.371 29.5908 99.5679 30.6254C98.2119 31.7309 96.7524 32.703 95.2097 33.5281C90.7474 36.572 86.5596 39.5967 82.0043 42.3755C81.9234 42.383 81.8453 42.4088 81.7759 42.451C82.8055 39.7941 84.1407 37.1574 85.0039 34.4656C85.7057 32.8962 86.005 31.1765 85.8746 29.4622C86.0222 28.4845 86.0611 27.4935 85.9907 26.5073C90.4261 24.9505 94.8227 23.3462 99.1382 21.6626C99.6422 18.0527 100.39 14.481 101.375 10.9719C101.457 10.8431 102.068 10.3933 101.518 10.4493C101.259 10.463 101.007 10.4755 100.764 10.5017C100.799 10.2587 100.853 10.0063 100.888 9.76233C100.888 9.45657 101.36 8.51234 100.888 8.58011H100.233C97.8145 8.80343 95.2717 8.91083 92.8334 9.10345C91.6724 10.163 89.9153 9.89113 87.682 10.0265C86.5442 10.1087 85.3289 10.2046 84.1213 10.2993C80.8665 10.5288 77.4799 11.0068 75.537 10.2993C63.7789 11.4267 51.3359 11.8747 38.9741 12.4048C35.6999 19.8408 31.9223 26.7462 28.4121 33.9218C24.6732 35.1603 21.2017 36.6542 17.4513 37.8832C17.5751 38.5837 18.3957 38.9503 18.9026 39.3373C18.9359 39.367 18.9708 39.3948 19.0072 39.4206C18.5233 39.6229 18.0242 39.8076 17.548 40.0166C18.6743 40.7463 19.7349 41.6887 20.8495 42.5236C21.6364 43.1805 22.4824 43.7633 23.3767 44.2644C21.6816 47.6779 20.1025 51.1396 18.6395 54.6494C18.3299 55.4371 17.7842 56.1171 17.4513 56.8931C17.2694 57.313 17.2268 57.8172 17.0566 58.2111C16.8824 58.6193 16.596 58.9996 16.3909 59.407C10.9259 70.6066 5.86367 81.8413 0.421997 92.9385C1.13401 92.8426 1.28497 92.1904 1.87331 91.7541C2.07038 91.6026 2.2847 91.4749 2.51179 91.3738C2.15193 92.1565 1.79585 92.952 1.43974 93.7541C2.05126 92.2186 3.76594 92.2863 4.74505 91.1019C5.28278 90.2334 5.72408 89.3087 6.06105 88.3443C7.21464 85.53 8.63232 82.8312 10.2951 80.2844C11.5917 80.1276 11.7928 78.8021 13.0624 78.9646C14.8184 77.1592 16.8149 75.6046 18.9956 74.3445C19.7782 73.9688 20.5278 73.5279 21.2365 73.0266C22.0545 71.8843 22.7218 70.6414 23.2219 69.3285C26.5736 62.7577 29.5809 56.4501 32.7352 50.1918C33.8351 47.5709 35.1612 45.0508 36.6984 42.6601C50.202 38.1686 64.0034 33.9547 77.4799 29.4363C74.5291 35.513 71.9858 41.7793 69.867 48.1937C70.2695 48.5052 70.6759 48.8314 71.0901 49.1526C70.9817 49.587 70.8539 50.0011 70.7611 50.4492C72.58 52.1405 74.7203 53.5212 76.6903 55.0713C79.3563 52.8414 82.1829 50.8108 85.147 48.9959C87.3685 47.5279 89.4625 45.9305 91.6066 44.5024C91.862 44.3339 92.1135 44.1415 92.3846 43.9537C91.5563 45.617 90.6699 47.2281 89.9307 48.9745C90.2428 49.1634 90.5842 49.2991 90.9408 49.3761C90.6834 49.9147 90.551 50.5044 90.5538 51.1013C90.8635 51.1437 91.6839 51.4816 92.2607 51.6314C94.0759 52.9097 96.0186 53.8337 97.9307 54.9967C98.3797 53.5008 99.3316 52.4335 99.8039 51.1013C100.655 50.0418 104.053 42.1996 106.6 38.3535L109.042 33.6781ZM44.0868 28.0081C45.4646 26.038 46.2348 23.4546 47.7829 21.6626C57.6909 20.8866 68.3963 20.1251 78.9235 19.4468C67.2739 23.3607 55.3533 27.0033 43.1618 30.3748C43.6268 29.6565 43.9415 28.8514 44.0868 28.0081V28.0081ZM117.747 5.82053C117.591 6.04505 117.423 6.26077 117.244 6.46673C117.379 6.0924 117.514 5.71213 117.658 5.33761C117.637 5.50389 117.668 5.67244 117.747 5.82053Z" fill="#52BEDC"/>
<path fill-rule="evenodd" clip-rule="evenodd" d="M77.65 29.0411C77.5262 29.3392 77.3908 29.6255 77.2476 29.9178H85.7855C85.8047 29.8461 85.8202 29.7734 85.8319 29.7C86.0318 28.5671 86.0787 27.4125 85.9712 26.2671C85.0565 26.7284 84.074 27.0403 83.0608 27.1911C82.4687 27.4515 82.4687 26.9474 82.546 26.6628C80.8663 27.4109 79.2678 28.2322 77.65 29.0411Z" fill="#FCEE0A"/>
<path fill-rule="evenodd" clip-rule="evenodd" d="M103.864 40.216H97.9154C97.8959 40.1878 97.9423 40.1056 97.9154 40.0796C97.8959 40.066 97.807 40.0921 97.7876 40.0796C97.714 40.066 97.6057 40.0921 97.5207 40.0796C97.4741 40.0515 97.2999 40.1203 97.2652 40.0796C97.2341 40.0515 97.2767 39.9837 97.2652 39.9508H97.656C97.6869 39.9296 97.7606 39.9703 97.7876 39.9508C97.807 39.9227 97.7721 39.8484 97.7876 39.8222H100.559C100.693 39.8139 100.827 39.8139 100.961 39.8222C100.988 39.8222 101.066 39.8076 101.089 39.8222C101.101 39.8337 101.066 39.9296 101.089 39.9508C101.116 39.9703 101.194 39.9296 101.217 39.9508H101.882C101.906 39.9296 101.987 39.9703 102.014 39.9508C102.018 39.9296 101.987 39.8222 102.014 39.8222C102.102 39.8081 102.193 39.8081 102.281 39.8222C102.448 39.7941 102.633 39.8337 102.807 39.8222H104.127C104.216 39.8149 104.305 39.8149 104.394 39.8222C104.406 39.8222 104.503 39.8076 104.522 39.8222C104.538 39.8337 104.495 39.916 104.522 39.9508H104.82C105.277 39.0655 105.753 38.1898 106.213 37.3064H100.036C99.8698 37.3393 99.6608 37.2725 99.506 37.3064C99.4789 37.3064 99.3822 37.2919 99.3707 37.3064C99.3473 37.3248 99.3976 37.4285 99.3707 37.4419C99.3257 37.4482 99.2801 37.4482 99.2351 37.4419C99.2119 37.4419 99.119 37.4544 99.1113 37.4419V37.3064C99.1384 37.2919 99.2042 37.3248 99.2351 37.3064H99.3707C99.3822 37.2852 99.3473 37.1962 99.3707 37.1701C99.3976 37.1574 99.4789 37.1962 99.506 37.1701C99.5332 37.1574 99.4789 37.0617 99.506 37.0413C99.5332 37.022 99.6105 37.0617 99.6261 37.0413C99.6608 37.0355 99.7537 37.0617 99.7654 37.0413C99.8001 37.0288 99.7537 36.9261 99.7654 36.9117C99.8001 36.9002 99.8815 36.9194 99.893 36.9117C99.982 36.9002 100.071 36.9261 100.164 36.9117H100.423C100.45 36.9331 100.535 36.8932 100.559 36.9117C100.578 36.9261 100.539 37.0413 100.559 37.0413C100.628 37.0741 100.748 37.0413 100.822 37.0413C100.953 37.0481 101.085 37.0481 101.217 37.0413C101.232 37.022 101.194 36.9378 101.217 36.9117C101.262 36.9059 101.307 36.9059 101.352 36.9117C101.529 36.9025 101.706 36.9025 101.882 36.9117C101.917 36.9194 102.119 36.8855 102.138 36.9117C102.146 36.9261 102.13 37.0413 102.138 37.0413C102.185 37.0447 102.233 37.0447 102.281 37.0413H102.405C102.625 37.0549 102.85 37.0413 103.071 37.0413C103.284 37.0413 103.508 37.0482 103.713 37.0413C103.895 37.0413 104.081 37.0482 104.267 37.0413H104.654C104.665 37.022 104.63 36.9378 104.654 36.9117C104.665 36.8932 104.754 36.9331 104.789 36.9117C104.82 36.9002 104.901 36.9378 104.925 36.9117C104.936 36.8932 104.901 36.8023 104.925 36.7898H106.5C107.955 34.0439 109.428 31.3276 110.92 28.6408C111.678 27.3027 112.541 26.038 113.304 24.6854C114.035 23.3607 114.364 21.6761 115.672 20.7242C116.039 19.8516 116.481 19.0124 116.992 18.216C117.468 17.3249 118.529 15.8988 118.308 15.7071C117.522 14.9882 117.785 14.431 117.255 13.8591C117.027 12.6913 116.117 11.3173 116.199 10.6933C116.388 9.76233 116.516 10.1214 116.605 9.76233C116.632 9.32123 116.946 9.45657 117.395 9.10345C117.631 9.07551 117.027 8.36906 116.992 7.78469C116.938 6.42531 118.238 4.77939 117.909 3.56982C117.638 4.14171 116.713 4.23742 116.199 4.22296C111.57 11.861 106.438 19.7448 101.681 27.3231C101.078 28.4855 100.371 29.5908 99.5681 30.6254C98.2121 31.7309 96.7526 32.703 95.2099 33.5281C90.7475 36.572 86.5598 39.5967 82.0045 42.3755C81.544 42.3969 81.1568 43.1914 80.8318 42.9058C80.7079 41.9556 81.6601 42.064 81.7491 41.3162C81.4316 41.0181 81.6021 40.8537 81.6098 40.3921C82.8289 37.8028 83.7733 35.0569 84.7756 32.4685C85.0581 31.7738 85.4529 31.0471 85.6851 30.306H77.0776C75.9745 32.7675 74.8561 35.2126 73.7838 37.7003H74.1554C74.171 37.7283 74.1284 37.8173 74.1554 37.8377C74.171 37.8503 74.256 37.8242 74.2909 37.8377C74.3771 37.8474 74.4641 37.8474 74.5503 37.8377H75.9977C76.0248 37.8242 76.11 37.8571 76.1409 37.8377C76.1487 37.8242 76.1292 37.7138 76.1409 37.7003C76.195 37.6742 76.3383 37.74 76.3964 37.7003C76.4118 37.6877 76.3732 37.5919 76.3964 37.5705C76.4118 37.5523 76.5085 37.5919 76.5357 37.5705C76.5628 37.5523 76.5085 37.4681 76.5357 37.4419C76.5628 37.4158 76.648 37.4544 76.6635 37.4419V37.0413C76.648 37.0288 76.5628 37.0617 76.5357 37.0413C76.5163 37.0288 76.5628 36.9261 76.5357 36.9117C76.5085 36.9002 76.4273 36.9194 76.3964 36.9117C76.3538 36.9083 76.3111 36.9083 76.2686 36.9117H76.1409C76.1332 36.8714 76.1332 36.83 76.1409 36.7898C76.1487 36.7616 76.2454 36.7898 76.2686 36.7898C76.2919 36.7616 76.3732 36.8023 76.3964 36.7898C76.4118 36.7616 76.3732 36.6804 76.3964 36.6398H78.5095C78.4864 36.6804 78.5327 36.7616 78.5095 36.7898C78.4864 36.8023 78.3974 36.7616 78.3857 36.7898C78.3585 36.7898 78.2735 36.7616 78.2502 36.7898C78.2309 36.8023 78.2696 36.8855 78.2502 36.9117C78.2308 36.9378 78.142 36.8932 78.1071 36.9117C78.111 36.9548 78.111 36.9981 78.1071 37.0413V37.1701C78.1263 37.2097 78.0994 37.2919 78.1071 37.3064C78.1546 37.3122 78.2027 37.3122 78.2502 37.3064C78.4166 37.3181 78.6179 37.2804 78.7804 37.3064C78.7804 37.3064 78.765 37.4285 78.7804 37.4419C78.7921 37.4544 78.8811 37.4158 78.9005 37.4419C78.9237 37.4544 78.8811 37.5638 78.9005 37.5705C78.9314 37.5919 79.0166 37.5523 79.0436 37.5705C79.0747 37.5919 79.0244 37.6877 79.0436 37.7003C79.067 37.7283 79.152 37.6877 79.1791 37.7003C79.2178 37.74 79.4037 37.6597 79.4385 37.7003C79.454 37.7283 79.4191 37.8173 79.4385 37.8377C79.4617 37.8571 79.5467 37.8173 79.5624 37.8377C79.5893 37.8571 79.5547 37.9461 79.5624 37.9722C79.5547 37.9857 79.5816 38.0941 79.5624 38.0941C79.4764 38.1072 79.389 38.1072 79.303 38.0941H78.5095C78.44 38.0816 78.3316 38.1337 78.2502 38.0941C78.2424 38.0873 78.2696 37.9857 78.2502 37.9722C78.2309 37.9461 78.142 38.0002 78.1071 37.9722H77.062C77.0465 37.9461 77.0776 37.8571 77.062 37.8377C77.035 37.8173 76.9421 37.8503 76.9344 37.8377H76.1409C76.1292 37.8638 76.1487 37.9461 76.1409 37.9722C76.11 38.0002 76.0248 37.9461 75.9977 37.9722C75.9785 38.0002 76.0248 38.0816 75.9977 38.0941C75.9785 38.1202 75.8893 38.0816 75.8738 38.0941C75.8506 38.1202 75.8893 38.2112 75.8738 38.2304C75.8506 38.2566 75.7654 38.2112 75.7385 38.2304C75.723 38.2566 75.7654 38.3398 75.7385 38.3592C75.723 38.3794 75.6261 38.3535 75.6069 38.3592C75.5197 38.3732 75.4309 38.3732 75.3437 38.3592H75.0804C75.0069 38.3398 74.8907 38.3921 74.8212 38.3592C74.798 38.3535 74.8366 38.2508 74.8212 38.2304C74.798 38.2112 74.7088 38.2508 74.6779 38.2304H73.5672C72.1516 41.4809 70.9164 44.8071 69.8672 48.1937C71.9572 49.8723 74.0896 51.5232 76.3306 53.0712C77.7608 52.099 79.1297 51.0394 80.4293 49.8985C81.8458 48.9009 83.4559 48.0921 84.9149 47.1332C87.0746 45.7003 89.1646 44.0195 91.2544 42.6339C91.9286 42.0113 92.7422 41.5595 93.627 41.3162C92.4929 43.9798 91.061 46.3175 89.9309 48.9745C90.6116 49.2924 91.3155 49.5582 92.0364 49.7699C93.8255 51.081 95.7298 52.2274 97.7257 53.1951C100.071 48.9136 102.37 44.5497 104.665 40.216H103.864ZM97.3928 37.1701H97.5207V37.3064H97.3928V37.1701ZM78.7804 33.3501C78.7535 33.3646 78.6683 33.324 78.6451 33.3501C78.6374 33.3646 78.6683 33.472 78.6451 33.4865C78.6217 33.4999 78.5405 33.472 78.5095 33.4865C78.44 33.4999 78.3354 33.472 78.2502 33.4865H77.9832C77.8931 33.4932 77.8025 33.4932 77.7123 33.4865C77.7181 33.4412 77.7181 33.3954 77.7123 33.3501C77.751 33.324 77.8285 33.3781 77.8554 33.3501C77.8748 33.324 77.844 33.2427 77.8554 33.2146H78.6451C78.6901 33.2107 78.7354 33.2107 78.7804 33.2146C78.7882 33.2146 78.765 33.3365 78.7804 33.3501V33.3501ZM73.2343 40.6097C73.1881 40.6165 73.1412 40.6165 73.095 40.6097C73.0911 40.5644 73.0911 40.5187 73.095 40.4734H73.2343C73.2383 40.5187 73.2383 40.5644 73.2343 40.6097V40.6097ZM79.9609 40.7463C79.9532 40.7577 79.8525 40.7463 79.841 40.7463H79.6977V40.6097C79.7452 40.603 79.7935 40.603 79.841 40.6097C79.8809 40.6131 79.921 40.6131 79.9609 40.6097C79.9532 40.6359 79.9841 40.7181 79.9609 40.7463V40.7463ZM80.7583 33.6083C80.7351 33.5822 80.7852 33.4999 80.7583 33.4865C80.5338 33.472 80.3055 33.4865 80.0964 33.4865C80.0114 33.4792 79.926 33.4792 79.841 33.4865H79.6977C79.6745 33.472 79.5893 33.4999 79.5624 33.4865C79.5467 33.4603 79.5893 33.3781 79.5624 33.3501C79.5275 33.324 79.4617 33.3781 79.4385 33.3501V33.2146C79.4617 33.1934 79.5313 33.2281 79.5624 33.2146H81.1568C81.1954 33.2107 81.2343 33.2107 81.2729 33.2146C81.3 33.2281 81.2652 33.3365 81.2729 33.3501C81.3 33.3781 81.3813 33.324 81.4084 33.3501H81.687C81.7142 33.324 81.7877 33.3781 81.8109 33.3501C81.8303 33.324 81.7877 33.2281 81.8109 33.2146C81.838 33.2001 81.9116 33.2281 81.9464 33.2146H82.0818C82.1243 33.2107 82.1671 33.2107 82.2096 33.2146C82.2251 33.2281 82.1979 33.324 82.2096 33.3501C82.2599 33.3781 82.4418 33.3036 82.4844 33.3501C82.4882 33.3569 82.4611 33.472 82.4844 33.4865H82.6043C82.6275 33.4865 82.7282 33.472 82.7282 33.4865C82.7399 33.5262 82.7399 33.5685 82.7282 33.6083C82.7205 33.6365 82.6315 33.5891 82.6043 33.6083H82.3451C82.3103 33.6297 82.2251 33.5822 82.2096 33.6083C82.2037 33.6533 82.2037 33.6989 82.2096 33.7439C82.1682 33.7583 82.1232 33.7583 82.0818 33.7439C82.0626 33.7254 82.0974 33.622 82.0818 33.6083C82.0394 33.5891 81.9736 33.6297 81.9464 33.6083C81.9193 33.5958 81.838 33.6297 81.8109 33.6083C81.7877 33.5891 81.838 33.4865 81.8109 33.4865C81.7839 33.467 81.7142 33.4999 81.687 33.4865C81.4703 33.4999 81.2382 33.4603 81.0137 33.4865C81.002 33.4865 80.9053 33.472 80.8936 33.4865C80.8859 33.4865 80.9053 33.6083 80.8936 33.6083C80.8859 33.6083 80.7621 33.622 80.7583 33.6083V33.6083ZM86.7031 40.7463C86.6799 40.7577 86.5715 40.7181 86.5675 40.7463C86.5598 40.7577 86.5715 40.8681 86.5675 40.8749C86.52 40.8817 86.4718 40.8817 86.4243 40.8749H86.3004V40.7463C86.3238 40.7181 86.4088 40.7577 86.4243 40.7463C86.4437 40.7104 86.4088 40.6359 86.4243 40.6097C86.4708 40.5681 86.6488 40.6426 86.7031 40.6097C86.6799 40.6359 86.7223 40.7181 86.7031 40.7463V40.7463ZM88.8085 40.7463C88.7635 40.752 88.718 40.752 88.673 40.7463C88.6615 40.7463 88.5492 40.7577 88.5454 40.7463V40.6097C88.5569 40.5962 88.6615 40.6097 88.673 40.6097C88.7181 40.6131 88.7634 40.6131 88.8085 40.6097C88.7891 40.6359 88.8278 40.7181 88.8085 40.7463V40.7463ZM91.1809 40.7463H91.061C91.0533 40.7011 91.0533 40.6549 91.061 40.6097H91.1809C91.1966 40.6539 91.1966 40.7021 91.1809 40.7463V40.7463ZM96.7349 40.7463C96.8195 40.7318 96.9058 40.7318 96.9904 40.7463C97.0135 40.7724 96.9787 40.8469 96.9904 40.8749C96.9438 40.84 96.7698 40.9145 96.7349 40.8749V40.7463ZM95.1364 41.4051H95.5391V41.6703H95.1364V41.4051ZM95.1364 43.382C95.1867 43.3673 95.2525 43.3955 95.2796 43.382C95.2991 43.3673 95.2719 43.2803 95.2796 43.2532C95.3145 43.1236 95.2448 42.9736 95.2796 42.8517C95.2796 42.8517 95.3958 42.8662 95.4075 42.8517C95.4229 42.8796 95.388 42.9601 95.4075 42.988C95.4229 43.0017 95.5391 42.9736 95.5391 42.988C95.5777 43.0626 95.508 43.1729 95.5391 43.2532C95.508 43.2667 95.4384 43.232 95.4075 43.2532C95.388 43.2667 95.4152 43.3538 95.4075 43.382C95.388 43.4622 95.4229 43.5599 95.4075 43.6402H95.1364V43.382ZM93.689 40.8749H93.5689C93.538 40.8469 93.5729 40.7724 93.5689 40.7463C93.538 40.7181 93.4606 40.7577 93.4296 40.7463V40.6097C93.4758 40.603 93.5227 40.603 93.5689 40.6097C93.5884 40.6165 93.6813 40.5962 93.689 40.6097C93.716 40.6359 93.6773 40.7181 93.689 40.7463C93.6773 40.7724 93.716 40.8537 93.689 40.8749ZM97.5207 45.8889V46.1396C97.5012 46.1396 97.4123 46.182 97.3928 46.1396C97.3774 46.1396 97.4123 46.0389 97.3928 46.0175C97.3657 46.004 97.2999 46.0322 97.2652 46.0175C97.1737 46.0108 97.0819 46.0108 96.9904 46.0175H96.8625C96.8471 46.0322 96.8625 46.1396 96.8625 46.1396C96.8664 46.1894 96.8664 46.2395 96.8625 46.2894C96.8433 46.3108 96.7619 46.2692 96.7349 46.2894V46.5478C96.7311 46.5932 96.7311 46.6389 96.7349 46.6843C96.7465 46.6978 96.8471 46.6716 96.8625 46.6843C96.8897 46.6978 96.8433 46.7868 96.8625 46.8129C96.878 46.8333 96.9787 46.7917 96.9904 46.8129C97.0213 46.8333 96.9709 46.9223 96.9904 46.9415C97.0213 46.9697 97.0988 46.9223 97.122 46.9415C97.1491 46.9697 97.1142 47.0519 97.122 47.0781V47.2067C97.0787 47.2169 97.0336 47.2169 96.9904 47.2067C96.9787 47.1942 97.0135 47.0915 96.9904 47.0781C96.9057 47.065 96.8196 47.065 96.7349 47.0781H96.6034C96.584 47.106 96.6188 47.1875 96.6034 47.2067C96.5917 47.2203 96.495 47.2067 96.4755 47.2067C96.4279 47.21 96.38 47.21 96.3323 47.2067C96.3168 47.2348 96.3517 47.3238 96.3323 47.3499C96.3245 47.3634 96.2318 47.3373 96.2047 47.3499C96.1234 47.3634 96.0188 47.3093 95.9375 47.3499C95.9106 47.3499 95.8254 47.3238 95.8099 47.3499C95.7905 47.3634 95.8254 47.4593 95.8099 47.4738C95.7828 47.5 95.7092 47.4457 95.6821 47.4738H95.2796C95.2642 47.4457 95.2991 47.3634 95.2796 47.3499C95.2525 47.3238 95.1635 47.3634 95.1364 47.3499C95.1287 47.3238 95.1635 47.2281 95.1364 47.2067C95.1287 47.1942 95.028 47.2281 95.0202 47.2067C94.9662 47.0915 95.0551 46.9281 95.0202 46.8129C95.0436 46.6843 94.9856 46.5478 95.0202 46.4115C95.0202 46.3998 95.001 46.3041 95.0202 46.2894C95.0436 46.2692 95.1287 46.3108 95.1364 46.2894C95.1635 46.2565 95.1287 46.182 95.1364 46.1396V45.3586H95.2796V45.23C95.2991 45.2435 95.388 45.2019 95.4075 45.23C95.4384 45.258 95.388 45.3452 95.4075 45.3586C95.4384 45.38 95.508 45.3384 95.5391 45.3586C95.5583 45.38 95.508 45.4738 95.5391 45.4882C95.566 45.5154 95.6472 45.4738 95.6821 45.4882C95.7287 45.5154 95.9029 45.4545 95.9375 45.4882C95.9647 45.5154 95.9261 45.5976 95.9375 45.6238H97.2652C97.3077 45.6204 97.3504 45.6204 97.3928 45.6238C97.4123 45.6238 97.3851 45.7476 97.3928 45.7603C97.4123 45.7805 97.509 45.7341 97.5207 45.7603C97.5476 45.7873 97.509 45.856 97.5207 45.8889V45.8889ZM99.1113 48.3978C99.0663 48.4037 99.0207 48.4037 98.9757 48.3978C98.8867 48.424 98.7938 48.3834 98.7088 48.3978H98.1823C98.2094 48.3766 98.1591 48.2874 98.1823 48.2615C98.2094 48.2478 98.2946 48.2759 98.3178 48.2615C98.3991 48.2478 98.4998 48.2807 98.581 48.2615C98.6042 48.2478 98.6817 48.2874 98.7088 48.2615C98.7243 48.2478 98.6894 48.1394 98.7088 48.1394C98.7784 48.0998 98.8945 48.1521 98.9757 48.1394C99.0029 48.1588 98.9525 48.2478 98.9757 48.2615C99.0029 48.2874 99.0841 48.2478 99.1113 48.2615C99.0918 48.2874 99.1267 48.3834 99.1113 48.3978V48.3978ZM99.3707 44.306C99.3164 44.334 99.1462 44.2644 99.1113 44.306C99.0958 44.3195 99.1267 44.4279 99.1113 44.4346C99.0609 44.4628 98.8674 44.3997 98.8404 44.4346C98.8249 44.4695 98.8519 44.5363 98.8404 44.5779H95.8099C95.7905 44.5497 95.8254 44.4628 95.8099 44.4346H95.6821C95.5005 44.4487 95.318 44.4487 95.1364 44.4346C95.1364 44.4346 95.1518 44.3195 95.1364 44.306H95.5391C95.566 44.2913 95.6512 44.3195 95.6821 44.306C95.7015 44.2779 95.6666 44.2043 95.6821 44.1772H99.2351C99.2623 44.1772 99.3473 44.1627 99.3707 44.1772C99.3976 44.1976 99.3473 44.2779 99.3707 44.306V44.306ZM96.4755 42.988H96.6034C96.6034 43.0017 96.5917 43.1099 96.6034 43.1099C96.7308 43.138 96.8629 43.138 96.9904 43.1099C97.033 43.1099 97.2341 43.138 97.2652 43.1099C97.2922 43.0954 97.2341 43.0229 97.2652 42.988C97.3193 43.0229 97.4741 42.9387 97.5207 42.988C97.5284 43.0283 97.5284 43.0697 97.5207 43.1099C97.5012 43.138 97.42 43.1099 97.3928 43.1099V43.6402H96.4755C96.4215 43.5976 96.5104 43.4216 96.4755 43.382C96.4484 43.3673 96.3479 43.3955 96.3323 43.382C96.3284 43.3391 96.3284 43.296 96.3323 43.2532V43.1099H96.4755C96.4833 43.0954 96.4484 43.0085 96.4755 42.988V42.988ZM102.405 42.4578C102.389 42.4859 102.304 42.4443 102.281 42.4578C102.254 42.4859 102.304 42.5731 102.281 42.5866C102.254 42.6078 102.157 42.5731 102.138 42.5866C102.13 42.601 102.157 42.7162 102.138 42.7229C102.097 42.7298 102.055 42.7298 102.014 42.7229C101.97 42.7264 101.926 42.7264 101.882 42.7229V42.5866C101.871 42.5731 101.77 42.5933 101.747 42.5866C101.662 42.5731 101.573 42.6078 101.488 42.5866C101.395 42.6078 101.286 42.5662 101.217 42.5866C101.201 42.5933 101.232 42.7017 101.217 42.7229C101.194 42.7433 101.108 42.7017 101.089 42.7229C101.066 42.6882 101.108 42.6078 101.089 42.5866C101.046 42.5832 101.004 42.5832 100.961 42.5866H96.0731C96.0537 42.5662 96.0963 42.4859 96.0731 42.4578H95.9375C95.9375 42.4366 95.9261 42.3359 95.9375 42.3292C95.953 42.3147 96.0537 42.3292 96.0731 42.3292C96.2473 42.3214 96.4215 42.3359 96.6034 42.3292H96.9904C97.0213 42.308 97.0988 42.3426 97.122 42.3292C97.1491 42.301 97.1142 42.2275 97.122 42.1859H97.2652C97.3348 42.1996 97.4664 42.1647 97.5207 42.1859C97.5361 42.1996 97.509 42.3147 97.5207 42.3292C97.5657 42.3325 97.6109 42.3325 97.656 42.3292H97.9154C97.9604 42.3325 98.0057 42.3325 98.0507 42.3292C98.0662 42.3214 98.0392 42.214 98.0507 42.1859C98.0779 42.1714 98.1591 42.214 98.1823 42.1859H99.1113C99.2002 42.1996 99.2892 42.1714 99.3707 42.1859C99.3976 42.1996 99.4828 42.1714 99.506 42.1859C99.5332 42.214 99.4828 42.2943 99.506 42.3292H102.281C102.304 42.3292 102.405 42.3147 102.405 42.3292V42.4578ZM103.465 41.4051C103.45 41.4256 103.357 41.377 103.334 41.4051C103.314 41.4323 103.357 41.5125 103.334 41.5337C103.314 41.5474 103.218 41.5125 103.206 41.5337C103.191 41.5474 103.218 41.6558 103.206 41.6703C103.115 41.6834 103.022 41.6834 102.931 41.6703H100.69C100.601 41.677 100.512 41.677 100.423 41.6703C100.404 41.6558 100.307 41.6838 100.288 41.6703C100.269 41.6421 100.323 41.5474 100.288 41.5337C100.269 41.5203 100.191 41.5337 100.164 41.5337C100.125 41.5337 99.9279 41.5058 99.893 41.5337C99.893 41.5474 99.9124 41.6558 99.893 41.6703C99.8505 41.6737 99.8079 41.6737 99.7654 41.6703C99.7193 41.663 99.6723 41.663 99.6261 41.6703C99.4248 41.6964 99.2002 41.6421 98.9757 41.6703H97.3928C97.3504 41.6736 97.3077 41.6736 97.2652 41.6703C97.2341 41.6558 97.2767 41.5474 97.2652 41.5337C97.2341 41.5125 97.1491 41.5474 97.122 41.5337H96.4755C96.4833 41.5058 96.4484 41.4256 96.4755 41.4051C96.4833 41.3839 96.5762 41.4051 96.6034 41.4051C96.6769 41.377 96.7813 41.4186 96.8625 41.4051H97.122C97.1334 41.377 97.0988 41.29 97.122 41.2755C97.1334 41.2619 97.2341 41.2755 97.2652 41.2755C97.3954 41.2687 97.5258 41.2687 97.656 41.2755H103.334C103.349 41.2755 103.458 41.2619 103.465 41.2755V41.4051Z" fill="#FCEE0A"/>
<path fill-rule="evenodd" clip-rule="evenodd" d="M28.869 33.6064H35.8666C35.8821 33.5802 35.8512 33.498 35.8666 33.4845C35.8821 33.4701 35.9828 33.4845 36.0097 33.4845H37.8442C37.8674 33.4584 37.8328 33.3761 37.8442 33.3482C37.8674 33.322 37.9644 33.3627 37.9798 33.3482C38.003 33.3153 37.9566 33.2261 37.9798 33.2126C38.003 33.1914 38.092 33.2261 38.1114 33.2126C38.1308 33.1982 38.092 33.0975 38.1114 33.0831C38.1308 33.0626 38.2352 33.1043 38.2507 33.0831C38.2816 33.0365 38.2004 32.8605 38.2507 32.8179C38.2739 32.7995 38.3591 32.8391 38.3785 32.8179C38.4017 32.7918 38.3591 32.7105 38.3785 32.6824C38.4017 32.6689 38.4944 32.7105 38.5061 32.6824C38.5255 32.6562 38.4944 32.574 38.5061 32.5538C38.5255 32.5393 38.6339 32.574 38.6417 32.5538C38.6609 32.5324 38.63 32.4386 38.6417 32.424C38.6609 32.396 38.75 32.4386 38.777 32.424C38.7964 32.4038 38.75 32.3021 38.777 32.2886C38.8041 32.2742 38.8931 32.3166 38.9008 32.2886C38.924 32.2742 38.8894 32.187 38.9008 32.1668C38.9203 32.1386 39.017 32.1802 39.0364 32.1668C39.0636 32.1242 39.017 32.0584 39.0364 32.0168C39.0636 32.0023 39.0093 31.9151 39.0364 31.8939C39.0636 31.8735 39.1448 31.9084 39.1797 31.8939C39.1874 31.8677 39.1525 31.7865 39.1797 31.7584C39.1989 31.7449 39.2879 31.7865 39.3035 31.7584C39.319 31.7449 39.2879 31.65 39.3035 31.6297C39.319 31.6083 39.4117 31.65 39.4351 31.6297C39.4543 31.6016 39.4117 31.5214 39.4351 31.4932C39.4543 31.4797 39.555 31.5146 39.5667 31.4932C39.5859 31.4653 39.5472 31.3925 39.5667 31.3713C39.5859 31.3365 39.6671 31.3925 39.6905 31.3713C39.7137 31.3365 39.6828 31.2562 39.6905 31.2348C39.7137 31.2079 39.6671 31.1197 39.6905 31.1062C39.7137 31.0781 39.8104 31.1197 39.8336 31.1062C39.849 31.0781 39.8027 30.9911 39.8336 30.9707C39.8413 30.9495 39.946 30.9911 39.9614 30.9707C39.9806 30.936 39.946 30.8692 39.9614 30.8343C39.9806 30.8131 40.0698 30.8625 40.0967 30.8343C40.1201 30.8131 40.0698 30.7259 40.0967 30.7125C40.1201 30.6843 40.2051 30.7259 40.2323 30.7125C40.2517 30.6843 40.2051 30.6041 40.2323 30.5692C40.24 30.549 40.3407 30.5906 40.3678 30.5692V30.4406C40.3678 30.4259 40.3484 30.3255 40.3678 30.3041C40.3716 30.2761 40.4645 30.3322 40.4917 30.3041C40.5072 30.2906 40.4645 30.1967 40.4917 30.1822C40.5149 30.1618 40.5999 30.1967 40.627 30.1822C40.6348 30.1618 40.5999 30.0738 40.627 30.0466C40.6348 30.0254 40.7354 30.0738 40.7509 30.0466C40.778 30.0187 40.7354 29.9385 40.7509 29.917H42.4539C42.6555 29.3422 42.9 28.7834 43.1853 28.2452C44.1065 26.4512 45.047 24.6505 45.968 22.8287C46.3478 21.7597 46.9315 20.7745 47.6865 19.9278C59.7967 18.8605 73.0565 17.9085 84.915 17.4189C71.8993 21.952 58.5197 26.1181 44.7761 29.917H70.7343C71.0981 29.7536 71.4657 29.5824 71.8489 29.4343C73.068 28.9582 74.4072 28.6322 75.6806 28.2452C76.3656 28.0409 77.0352 27.8039 77.7125 27.593C77.724 27.5726 77.724 27.5465 77.7125 27.5465C77.7048 27.5185 77.5964 27.5601 77.5886 27.5465C77.5847 27.5185 77.5886 27.4363 77.5886 27.4101V27.2746C77.5575 27.2601 77.4803 27.294 77.4571 27.2746V27.1527C77.4803 27.1246 77.5575 27.1642 77.5886 27.145C77.6776 27.1642 77.7743 27.1246 77.8556 27.145C77.875 27.1527 77.9717 27.1313 77.9834 27.145C77.9911 27.1575 77.9717 27.2601 77.9834 27.2746C78.0375 27.294 78.2233 27.232 78.2503 27.2746C78.2737 27.3007 78.2426 27.3752 78.2503 27.4101V27.4169C85.3912 25.1402 92.1719 22.489 99.0456 19.9278C99.6609 16.549 100.269 13.1509 100.888 9.7604C100.888 9.45464 101.36 8.5104 100.888 8.57818H100.234C97.8149 8.8015 95.2721 8.9089 92.8337 9.10151C91.6727 10.1611 89.9156 9.8892 87.6823 10.0245C86.5445 10.1068 85.3292 10.2027 84.1216 10.2974C80.8668 10.5269 77.4802 11.0048 75.5373 10.2974C63.7793 11.4247 51.3362 11.8728 38.9744 12.4029C35.7582 19.7168 32.035 26.5459 28.5632 33.6064H28.869ZM68.4778 26.4792C68.4546 26.4919 68.3694 26.4724 68.3463 26.4792C68.2587 26.4855 68.1707 26.4855 68.0831 26.4792V26.3506H67.2857C67.2588 26.37 67.1736 26.3224 67.1504 26.3506C67.1387 26.37 67.1736 26.4724 67.1504 26.4792C67.1387 26.4986 67.0574 26.4724 67.0303 26.4792C66.9375 26.4919 66.8523 26.4724 66.7634 26.4792C66.7439 26.458 66.7866 26.3767 66.7634 26.3506C66.7517 26.3361 66.655 26.3506 66.6356 26.3506C66.5079 26.3438 66.3647 26.3553 66.2331 26.3506C66.0086 26.3361 65.7995 26.3553 65.5752 26.3506H63.5936C63.3806 26.3506 63.1485 26.3553 62.9278 26.3506C62.7189 26.3506 62.4982 26.37 62.2699 26.3506C62.1886 26.3438 62.0957 26.3506 62.0105 26.3506C61.9656 26.3564 61.9201 26.3564 61.8751 26.3506C61.8634 26.3438 61.8983 26.2267 61.8751 26.2142C61.8519 26.2006 61.7668 26.2334 61.7551 26.2142H61.612C61.6389 26.1938 61.5926 26.1096 61.612 26.0904C61.6235 26.0642 61.7281 26.0904 61.7551 26.0904C61.8399 26.0807 61.9256 26.0807 62.0105 26.0904H67.9476C67.9747 26.0904 68.0754 26.0767 68.0831 26.0904C68.118 26.1233 68.0482 26.2945 68.0831 26.3506H68.4778C68.4546 26.3767 68.505 26.458 68.4778 26.4792V26.4792ZM70.0724 27.0094H69.9292V26.8856C69.9761 26.8731 70.0255 26.8731 70.0724 26.8856V27.0094ZM73.4976 27.0094H73.2345C73.1457 27.0192 73.0561 27.0192 72.9674 27.0094C72.9519 27.0027 72.9519 26.8856 72.9674 26.8856C72.9751 26.8664 73.068 26.8856 73.0952 26.8856C73.1415 26.8822 73.1881 26.8822 73.2345 26.8856C73.2731 26.907 73.4628 26.8315 73.4976 26.8856C73.517 26.907 73.4822 26.9882 73.4976 27.0094V27.0094ZM75.2083 27.0094H74.4226C74.3685 26.9746 74.1981 27.055 74.1555 27.0094C74.1286 26.9882 74.1712 26.907 74.1555 26.8856C74.3685 26.8923 74.5929 26.8664 74.8213 26.8856C74.9072 26.8725 74.9946 26.8725 75.0805 26.8856C75.1077 26.8856 75.1967 26.8664 75.2083 26.8856C75.2315 26.8923 75.1967 26.9882 75.2083 27.0094V27.0094ZM76.7913 27.0094H76.5358C76.4471 27.0192 76.3575 27.0192 76.2687 27.0094C76.261 26.9685 76.261 26.9265 76.2687 26.8856C76.2766 26.8664 76.3733 26.8856 76.3965 26.8856C76.4429 26.8822 76.4895 26.8822 76.5358 26.8856C76.5901 26.907 76.7604 26.8315 76.7913 26.8856C76.8222 26.907 76.7758 26.9882 76.7913 27.0094V27.0094Z" fill="#FCEE0A"/>
<path fill-rule="evenodd" clip-rule="evenodd" d="M61.7547 33.2128H61.4878C61.5033 33.1866 61.4607 33.1044 61.4878 33.0832C61.5033 33.0628 61.5962 33.0832 61.6117 33.0832C61.7896 33.0763 61.9598 33.0909 62.134 33.0832H62.2038C64.2085 32.4388 66.1979 31.7652 68.1486 31.0261C68.7058 30.8063 69.271 30.5559 69.809 30.3042H43.3863C43.0108 30.4126 42.6471 30.521 42.2677 30.6236C42.2833 30.521 42.3103 30.4126 42.3374 30.3042H41.1492C41.1375 30.3323 41.1687 30.4261 41.1492 30.4407C41.1375 30.4609 41.0371 30.4261 41.0214 30.4407C41.0022 30.4687 41.0371 30.5491 41.0214 30.5693C41.0022 30.5975 40.9132 30.5491 40.8861 30.5693C40.8706 30.5907 40.9132 30.6912 40.8861 30.7126C40.8629 30.7193 40.7815 30.6845 40.7506 30.7126C40.7197 30.7261 40.7815 30.8133 40.7506 30.8345C40.7351 30.8626 40.6344 30.8133 40.6267 30.8345C40.6075 30.8694 40.6344 30.9429 40.6267 30.9708C40.6075 30.9912 40.5146 30.9496 40.4914 30.9708C40.4642 30.9912 40.5146 31.0782 40.4914 31.1064C40.4642 31.1198 40.5146 31.2147 40.4914 31.235C40.4642 31.2429 40.3675 31.2147 40.3675 31.235C40.3404 31.2564 40.3713 31.3366 40.3675 31.3715C40.3404 31.3927 40.2514 31.3434 40.232 31.3715C40.2048 31.3927 40.2514 31.4722 40.232 31.4934C40.2048 31.5215 40.1198 31.4722 40.0964 31.4934C40.0849 31.5148 40.1198 31.6085 40.0964 31.6299C40.0695 31.6501 39.9843 31.6085 39.9611 31.6299C39.9456 31.6501 39.9803 31.745 39.9611 31.7585C39.9456 31.7866 39.8487 31.745 39.8333 31.7585C39.7986 31.8146 39.8644 31.9907 39.8333 32.0169C39.8101 32.044 39.7056 32.0024 39.6902 32.0169C39.6825 32.0585 39.7134 32.132 39.6902 32.1669C39.6825 32.1736 39.5856 32.1388 39.5663 32.1669C39.5469 32.1939 39.5856 32.2743 39.5663 32.2888C39.5469 32.3167 39.454 32.2743 39.4348 32.2888C39.4114 32.3023 39.454 32.4039 39.4348 32.4241C39.4114 32.4388 39.3264 32.3962 39.3032 32.4241C39.2875 32.4388 39.3186 32.5394 39.3032 32.5539C39.2875 32.5741 39.1986 32.5394 39.1793 32.5539C39.1445 32.6023 39.2103 32.7852 39.1793 32.8181C39.1522 32.8393 39.0632 32.7996 39.0361 32.8181C39.0089 32.8393 39.0632 32.9265 39.0361 32.9477C39.0089 32.9681 38.9237 32.9265 38.9005 32.9477C38.889 32.9681 38.9237 33.0561 38.9005 33.0832C38.889 33.1044 38.8038 33.0561 38.7767 33.0832C38.7497 33.1044 38.8038 33.1916 38.7767 33.2128C38.7497 33.2263 38.6606 33.1916 38.6413 33.2128C38.6296 33.2409 38.6606 33.3222 38.6413 33.3483C38.6296 33.3628 38.5252 33.3222 38.5058 33.3483C38.4941 33.3763 38.5329 33.4585 38.5058 33.4847C38.4941 33.4981 38.4014 33.4652 38.3782 33.4847C38.3588 33.4981 38.4014 33.5804 38.3782 33.6065C38.3588 33.6347 38.4014 33.7159 38.3782 33.7421C38.3588 33.7565 38.2736 33.7237 38.2504 33.7421C38.2195 33.7565 38.1305 33.7159 38.1111 33.7421C38.0917 33.7565 38.1226 33.8505 38.1111 33.8784H28.4276C28.4276 33.8921 28.4121 33.9133 28.4121 33.92C25.37 34.9312 22.4905 36.103 19.4987 37.1683L19.4832 37.175C19.2395 37.264 18.9801 37.3512 18.7284 37.4401C18.7982 37.4526 18.9026 37.414 18.9607 37.4401C18.9665 37.5262 18.9665 37.6125 18.9607 37.6986C18.9646 37.7442 18.9646 37.7902 18.9607 37.8359C18.9878 37.8486 19.0962 37.8155 19.0962 37.8359C19.1117 37.8794 19.1117 37.9269 19.0962 37.9704C19.0962 37.9839 18.9801 37.9577 18.9607 37.9704C18.9607 37.9839 18.9801 38.0923 18.9607 38.0923C18.9607 38.0923 18.8445 38.1058 18.8368 38.0923C18.8099 38.0798 18.8679 37.9984 18.8368 37.9704C18.8099 37.9443 18.7284 37.9984 18.7015 37.9704C18.682 37.9443 18.7247 37.862 18.7015 37.8359C18.6937 37.8155 18.5931 37.8486 18.5737 37.8359C18.5582 37.8224 18.5737 37.7265 18.5737 37.6986V37.4942C18.1944 37.6298 17.8305 37.7661 17.4513 37.8814C17.5113 38.18 17.6811 38.4452 17.9273 38.6245C18.0082 38.636 18.0903 38.636 18.1712 38.6245C18.1867 38.6245 18.1712 38.5142 18.1712 38.5007C18.2188 38.4947 18.2669 38.4947 18.3145 38.5007C18.3377 38.5209 18.2951 38.5964 18.3145 38.6245V38.7599H18.0783C18.3569 38.969 18.6666 39.1536 18.9026 39.3356C20.0561 40.2142 21.2288 41.1664 22.3976 41.9404V41.9259C22.4247 41.8978 22.5137 41.9538 22.5408 41.9259H22.8C22.8117 41.8978 22.7731 41.8175 22.8 41.8038C22.8117 41.7759 22.9084 41.8108 22.9278 41.8038C22.947 41.7826 22.9084 41.6752 22.9278 41.6685C23.0162 41.6544 23.1063 41.6544 23.1948 41.6685H25.1764C25.2662 41.6544 25.3576 41.6544 25.4474 41.6685V41.8038C25.424 41.8175 25.3428 41.7826 25.3081 41.8038C25.2887 41.8175 25.3351 41.8978 25.3081 41.9259C25.2887 41.9538 25.192 41.8978 25.1764 41.9259C25.1532 41.9538 25.1997 42.0343 25.1764 42.0622C25.1532 42.0759 25.0604 42.0343 25.0487 42.0622C25.0293 42.0759 25.0604 42.1841 25.0487 42.1841C24.9829 42.2394 24.8514 42.1696 24.7701 42.1841C24.7507 42.1978 24.6617 42.1696 24.6463 42.1841C24.6385 42.1978 24.654 42.3274 24.6463 42.3274C24.5185 42.3478 24.3752 42.2992 24.2514 42.3274H23.8528V42.7946C23.8877 42.8083 23.9147 42.8362 23.9496 42.8499C24.0076 42.8362 24.0851 42.8218 24.1083 42.8499C24.1469 42.8779 24.0966 42.9514 24.1083 42.9863V44.1754H23.427C23.2994 44.3865 23.1987 44.6177 23.0903 44.8343H24.1083V45.7585H23.8528V45.4864H23.3303C23.2994 45.472 23.342 45.3636 23.3303 45.3568C23.239 45.3467 23.1468 45.3467 23.0555 45.3568H22.8349C21.3293 48.4154 19.9245 51.5214 18.6395 54.6476C18.3299 55.4353 17.7842 56.1154 17.4513 56.8913C17.3165 57.2646 17.2028 57.6452 17.1106 58.0312L17.1184 58.0389C17.134 58.0389 17.134 58.1677 17.1184 58.1677H17.0643C17.058 58.1806 17.0553 58.195 17.0566 58.2093C16.8824 58.6175 16.596 58.9978 16.3909 59.4052C10.9259 70.6048 5.86367 81.8395 0.421997 92.9367C1.13401 92.8408 1.28497 92.1886 1.87331 91.7523C2.62019 91.1958 3.55687 91.0131 4.11806 90.298C4.65641 89.4218 5.09887 88.4901 5.43781 87.5192C6.56887 84.6997 7.98229 82.0019 9.65645 79.4669C10.7402 79.6102 11.0768 78.0533 12.2922 78.2825C14.6491 75.4833 18.2796 73.9625 21.1513 71.6789C23.5663 66.5953 26.1362 61.5396 28.6713 56.4976C31.2258 51.4275 33.49 46.1802 36.3308 41.3144C40.4642 39.9617 44.559 38.6099 48.677 37.2901C48.6808 37.2496 48.6808 37.2088 48.677 37.1683C48.6925 37.1556 48.7816 37.1944 48.8085 37.1683C48.8202 37.1615 48.7931 37.0395 48.8085 37.0395H48.9363C48.9518 37.0599 48.9169 37.1615 48.9363 37.1683C48.9518 37.1944 48.9982 37.175 49.0253 37.175C49.2227 37.1286 49.4086 37.0464 49.5942 36.9921C49.602 36.9572 49.6097 36.9313 49.5942 36.9099C49.6214 36.9313 49.7143 36.8914 49.7298 36.9099V36.9505C50.5387 36.6923 51.3553 36.4271 52.1642 36.1697C55.3726 35.177 58.6082 34.2325 61.7973 33.2128C61.7819 33.2128 61.7625 33.2263 61.7547 33.2128ZM18.0434 38.0923H17.9158V37.9704C17.9581 37.9645 18.0011 37.9645 18.0434 37.9704V38.0923ZM15.6633 62.7821H15.5355V62.6532H15.6633V62.7821ZM17.1184 62.1299H16.9908C16.9753 62.0837 16.9753 62.0338 16.9908 61.9876H17.1184C17.134 62.0338 17.134 62.0838 17.1184 62.1299V62.1299ZM18.1712 58.1677H18.0434C18.0279 58.1677 18.0279 58.0389 18.0434 58.0389C18.0511 58.0244 18.1712 58.0244 18.1712 58.0389V58.1677ZM22.8 58.0389C22.9315 58.0317 23.0633 58.0317 23.1948 58.0389C23.2336 58.0389 23.4387 58.011 23.4658 58.0389C23.4773 58.0593 23.4387 58.1396 23.4658 58.1677H22.9278C22.9084 58.1463 22.8117 58.1812 22.8 58.1677C22.7731 58.1396 22.8117 58.0593 22.8 58.0389V58.0389ZM19.2395 57.6374C19.1918 57.6408 19.1439 57.6408 19.0962 57.6374V57.5019H19.2395V57.6374ZM20.4199 62.7821H20.2921C20.2649 62.7636 20.3075 62.6861 20.2921 62.6532C20.2649 62.6398 20.1837 62.6794 20.1566 62.6532V62.5246C20.2017 62.5208 20.247 62.5208 20.2921 62.5246C20.3346 62.5207 20.3774 62.5207 20.4199 62.5246C20.4431 62.5431 20.4082 62.6271 20.4199 62.6532C20.4082 62.6794 20.4431 62.7636 20.4199 62.7821V62.7821ZM21.2171 62.5246C21.2094 62.5314 21.101 62.5169 21.0855 62.5246C21.0661 62.5431 21.101 62.6465 21.0855 62.6532C20.996 62.6698 20.9042 62.6698 20.8147 62.6532V62.5246C20.8416 62.5169 20.9308 62.5314 20.95 62.5246C20.9849 62.5169 21.0469 62.5431 21.0855 62.5246C21.101 62.5169 21.0661 62.4008 21.0855 62.3881H21.2171V62.5246ZM23.8528 62.6532H22.1382C22.1112 62.6398 22.0337 62.6794 22.0028 62.6532C21.9834 62.6398 22.026 62.5575 22.0028 62.5246H22.9278C23.1058 62.5314 23.2839 62.5169 23.4658 62.5246C23.5471 62.5314 23.6515 62.5102 23.7173 62.5246C23.7445 62.5314 23.8296 62.5169 23.8528 62.5246C23.8798 62.5431 23.8296 62.6271 23.8528 62.6532V62.6532ZM24.2514 62.7821C24.204 62.7898 24.1556 62.7898 24.1083 62.7821V62.6532H24.2514V62.7821ZM25.4474 62.6532H24.9132C24.9249 62.6271 24.8862 62.5431 24.9132 62.5246C24.9583 62.5208 25.0036 62.5208 25.0487 62.5246H25.1764C25.1997 62.5032 25.1532 62.4075 25.1764 62.3881C25.192 62.3746 25.2887 62.3881 25.3081 62.3881C25.3545 62.3847 25.4011 62.3847 25.4474 62.3881V62.6532ZM44.9809 33.7421C44.9343 33.7092 44.7526 33.7847 44.71 33.7421V33.6065C44.8002 33.6008 44.8907 33.6008 44.9809 33.6065C45.0118 33.6347 44.9615 33.7092 44.9809 33.7421V33.7421ZM45.7781 33.6065C45.6968 33.5873 45.577 33.6279 45.5034 33.6065C45.4763 33.6008 45.3911 33.6202 45.3756 33.6065C45.3562 33.5804 45.3911 33.4981 45.3756 33.4847C45.4491 33.4981 45.5536 33.4652 45.635 33.4847C45.6824 33.4774 45.7307 33.4774 45.7781 33.4847C45.8052 33.4981 45.7549 33.5804 45.7781 33.6065V33.6065ZM46.0335 33.7421C46.0335 33.7565 45.9059 33.7565 45.9059 33.7421V33.6065H46.0335V33.7421ZM53.5614 35.0608C53.538 35.0813 53.449 35.0484 53.4376 35.0608H53.1587C53.1318 35.0743 53.0505 35.0484 53.0234 35.0608C53.0157 35.0743 53.0505 35.1847 53.0234 35.1982C53.0079 35.2108 52.9267 35.1914 52.8995 35.1982C52.7369 35.2313 52.5395 35.1585 52.3693 35.1982H51.7151C51.6264 35.2079 51.5369 35.2079 51.4482 35.1982C51.4326 35.1914 51.452 35.0676 51.4482 35.0608C51.402 35.0546 51.355 35.0546 51.3087 35.0608H51.1888V34.9312C51.2005 34.9118 51.2818 34.9457 51.3087 34.9312C51.3281 34.8983 51.2895 34.8161 51.3087 34.7957C51.3359 34.7832 51.4326 34.8161 51.4482 34.7957C51.452 34.7765 51.4482 34.7087 51.4482 34.6661C51.4423 34.5762 51.4423 34.4861 51.4482 34.3962H51.5876C51.599 34.3825 51.5681 34.2791 51.5876 34.2724C51.6262 34.2462 51.7926 34.2724 51.8507 34.2724H52.8995C52.915 34.2936 52.8724 34.3825 52.8995 34.3962C52.915 34.4222 53.0157 34.3825 53.0234 34.3962C53.0426 34.4222 53.0234 34.5046 53.0234 34.5325C53.0291 34.6202 53.0291 34.7081 53.0234 34.7957C53.0738 34.8306 53.2594 34.7551 53.302 34.7957C53.306 34.8094 53.2826 34.9312 53.302 34.9312C53.3471 34.9346 53.3924 34.9346 53.4376 34.9312C53.4413 34.9312 53.5614 34.9195 53.5614 34.9312V35.0608ZM60.0286 32.9477C59.9837 32.9544 59.9381 32.9544 59.8932 32.9477V32.8181C59.9381 32.8113 59.9837 32.8113 60.0286 32.8181C60.0403 32.8605 60.0403 32.9053 60.0286 32.9477V32.9477Z" fill="#FCEE0A"/>
<path fill-rule="evenodd" clip-rule="evenodd" d="M23.0549 44.9687C23.0777 44.9556 23.0624 44.9159 23.0624 44.897C23.048 44.9193 23.0366 44.9434 23.0286 44.9687H23.0549Z" fill="#FCEE0A"/>
<path fill-rule="evenodd" clip-rule="evenodd" d="M22.6686 42.0626C22.6572 42.0482 22.6106 42.0626 22.5836 42.0626C22.6529 42.1123 22.7252 42.1576 22.8002 42.1982V42.1845C22.781 42.1633 22.8119 42.0763 22.8002 42.0626C22.7733 42.0347 22.6918 42.0763 22.6686 42.0626Z" fill="#FCEE0A"/>
<path fill-rule="evenodd" clip-rule="evenodd" d="M119.214 3.58239C119.148 2.46952 119.717 1.97135 119.876 1.07526C119.705 1.06853 119.678 0.904055 119.473 0.938931C119.113 1.86295 118.343 2.37381 118.006 3.3123C118.625 3.19538 118.761 3.54275 119.214 3.58239Z" fill="#52BEDC"/>
</svg>
