<svg width="101" height="21" viewBox="0 0 101 21" fill="none" xmlns="http://www.w3.org/2000/svg">
<g id="XBOX-ONE-SVG">
<path id="Vector" d="M64.6163 16.253L60.7604 11.0202L56.9094 16.253H55.3228L59.9577 9.93098L55.7252 4.18433H57.3118L60.7608 8.87086L64.2103 4.18433H65.7956L61.566 9.92977L66.2016 16.253H64.6163ZM34.574 16.2505L29.9344 9.92977L34.1668 4.18433H32.5802L29.13 8.87086L25.6829 4.18433H24.1008L28.3316 9.92977L23.6924 16.2505H25.281L29.1324 11.0202L32.9867 16.2505H34.574Z" fill="#F0F0E8"/>
<g id="Group 4">
<path id="Vector_2" d="M43.3957 10.3867C43.1565 10.183 42.8901 10.0135 42.6042 9.88333C43.0429 9.65037 43.4097 9.30228 43.6654 8.87647C43.9211 8.45065 44.0559 7.96322 44.0554 7.46653C44.0554 6.69406 43.7726 4.18313 40.1325 4.18313H35.2322V9.38599H33.6C33.3887 9.66234 32.9071 10.3253 32.7241 10.598H35.2322V16.2505H40.1337C42.7884 16.2505 44.4372 14.9032 44.4372 12.7272C44.4372 11.7773 44.0788 10.9705 43.3957 10.3839M36.5869 5.44284H40.1337C41.0928 5.44284 42.7008 5.68202 42.7008 7.36068C42.7008 8.62968 41.7647 9.38599 40.1337 9.38599H36.5869V5.44284ZM40.1325 14.9929H36.586V10.6004H40.1325C41.477 10.6004 43.0858 10.9717 43.0858 12.7013C43.0858 14.6939 41.2358 14.9921 40.1325 14.9921M50.8121 3.90598C47.422 3.90598 45.0529 6.49852 45.0529 10.211C45.0529 13.9234 47.422 16.5192 50.8121 16.5192C54.2022 16.5192 56.562 13.9291 56.562 10.211C56.562 6.49287 54.1989 3.90598 50.8121 3.90598ZM50.8121 15.2425C48.2293 15.2425 46.4197 13.1728 46.4197 10.211C46.4197 7.24918 48.2293 5.18064 50.8121 5.18064C53.3949 5.18064 55.19 7.24958 55.19 10.211C55.19 13.1724 53.3909 15.2425 50.8121 15.2425ZM3.00139 2.89272L2.9921 2.90121C1.25177 4.61885 0.196922 6.91176 0.0249224 9.35091C-0.147077 11.7901 0.57556 14.2083 2.05762 16.1532C2.06318 16.1618 2.0716 16.1683 2.08142 16.1714C2.09123 16.1745 2.10183 16.174 2.11135 16.1701C2.11921 16.1644 2.12473 16.156 2.12688 16.1465C2.12904 16.137 2.12768 16.127 2.12307 16.1184C1.35545 13.7469 5.27638 7.99781 7.30169 5.5899C7.30976 5.58197 7.31501 5.57161 7.31664 5.56041C7.31592 5.55393 7.31386 5.54768 7.31059 5.54204C7.30732 5.53641 7.30291 5.53152 7.29765 5.52768C3.889 2.13641 2.97917 2.91171 2.9921 2.90121M17.118 2.89272L17.1272 2.90121C18.8672 4.61895 19.9219 6.91171 20.0939 9.35067C20.266 11.7896 19.5437 14.2078 18.0621 16.1528C18.0566 16.1615 18.0482 16.168 18.0384 16.1711C18.0285 16.1742 18.0179 16.1737 18.0084 16.1697C18.0009 16.1637 17.9956 16.1553 17.9935 16.1459C17.9913 16.1365 17.9925 16.1267 17.9967 16.118C18.7643 13.7465 14.8454 7.99498 12.8225 5.58424C12.8142 5.57685 12.8088 5.56664 12.8076 5.55556C12.8079 5.54888 12.8098 5.54238 12.8131 5.53656C12.8164 5.53074 12.821 5.52577 12.8265 5.52203C16.2348 2.13116 17.1377 2.91171 17.1272 2.90121M10.0595 0C12.0892 0 13.7594 0.556324 15.2995 1.47222C15.3083 1.4764 15.3152 1.48392 15.3184 1.49312C15.3217 1.50233 15.3212 1.51246 15.3171 1.5213C15.3129 1.53014 15.3054 1.53696 15.2962 1.54026C15.287 1.54355 15.2768 1.54306 15.268 1.53888C13.3206 1.1179 10.3601 2.80101 10.0809 2.96908C10.0747 2.97393 10.0673 2.97687 10.0595 2.97756C10.0515 2.9771 10.0439 2.97413 10.0377 2.96908C9.29508 2.54285 6.55871 1.11063 4.8356 1.54938C4.82666 1.55356 4.81641 1.55402 4.80713 1.55064C4.79785 1.54727 4.79029 1.54035 4.78611 1.5314C4.78193 1.52246 4.78148 1.51222 4.78485 1.50294C4.78822 1.49365 4.79514 1.48609 4.80409 1.48191C6.34378 0.556324 8.03699 0 10.0595 0ZM10.0595 8.06811C10.0716 8.06987 10.0828 8.07555 10.0914 8.08427C13.1017 10.373 18.2524 16.0316 16.6808 17.6319L16.6832 17.6298V17.6319H16.6812C14.8484 19.2365 12.4953 20.121 10.0593 20.121C7.62328 20.121 5.27016 19.2365 3.43732 17.6319L3.4353 17.6298L3.43732 17.6319C1.86652 16.0316 7.01767 10.373 10.0247 8.08427C10.0345 8.07558 10.0465 8.06995 10.0595 8.06811M89.6206 4.18435V14.0875L82.3258 4.17707L81.1295 4.17465V16.2328H82.4724V6.54822L89.6186 16.2413H90.9652V4.18435H89.6206ZM74.1559 3.90396C70.7658 3.90396 68.3955 6.49771 68.3955 10.209C68.3955 13.9259 70.7658 16.5212 74.1559 16.5212C77.5459 16.5212 79.9058 13.9267 79.9058 10.209C79.9058 6.49852 77.5427 3.90396 74.1559 3.90396ZM74.1559 15.2425C71.573 15.2425 69.7631 13.1728 69.7631 10.209C69.7631 7.24514 71.573 5.17862 74.1559 5.17862C76.7387 5.17862 78.5337 7.24837 78.5337 10.209C78.5337 13.1696 76.7347 15.2425 74.1559 15.2425ZM93.8239 15.0619V10.6004H100.463V9.41993H93.8239V5.35517H100.914V4.17586H92.4754V16.2413H101V15.0619H93.8239Z" fill="#F0F0E8"/>
</g>
</g>
</svg>
