<svg width="74" height="80" viewBox="0 0 74 80" fill="none" xmlns="http://www.w3.org/2000/svg">
<g id="Y-YELLOW">
<path id="Y-BLUE" fill-rule="evenodd" clip-rule="evenodd" d="M72.1129 5.01464C72.3994 4.65578 72.6974 4.30166 72.9683 3.93388C73.1851 3.83995 73.9397 3.17334 73.3708 3.13173C69.3689 2.9296 64.9141 3.26826 60.5679 3.13173C55.7763 6.99149 50.8146 11.0011 46.3019 14.8898C45.6904 15.419 45.0903 16.2493 44.1964 16.3431C44.119 10.8396 44.8621 7.04757 44.9897 2.21444C44.5757 1.52762 44.5486 0.455373 43.6584 0.237793H43.5384C41.3233 1.26678 39.2371 2.55283 37.3227 4.06942C36.8544 4.64111 35.8985 4.73603 35.7475 5.64757C35.3332 8.97347 35.4363 12.3435 36.0533 15.6378C36.1151 16.5075 36.1886 17.3775 36.2621 18.2192L37.1485 20.4089C39.2191 21.7673 40.4653 23.7529 42.714 24.942C43.6846 24.3986 44.6239 23.8013 45.5277 23.1528C42.6211 26.4572 39.6217 29.6773 36.8001 33.1171C34.8379 35.4895 33.042 38.0701 31.1262 40.5035C29.164 42.9776 27.1438 45.3713 25.3169 47.8919C19.798 55.4894 13.9847 62.8681 8.27991 70.0738C6.18572 72.4101 4.24517 74.8796 2.47046 77.467C1.8376 77.8767 1.30141 78.4192 0.899048 79.0568C1.77373 78.6212 2.62522 78.1328 3.52328 77.7388C4.44433 76.4143 5.52034 75.0752 6.63499 73.7505C5.31754 75.7832 3.82294 77.6955 2.16866 79.465C2.12209 79.6083 2.01766 79.7862 2.16866 79.6005C2.96982 79.2609 3.64317 78.7713 4.41718 78.4047C7.56 74.3204 10.6989 70.2565 14.1936 66.5255C15.4361 66.4171 15.7611 65.2619 16.6978 64.813C17.3203 64.5389 17.9953 64.4044 18.6754 64.4191C20.9544 62.7974 23.5013 61.5901 26.1993 60.8526C26.7722 60.7686 26.9464 61.0751 27.2522 61.2513C42.5979 42.3932 58.3655 23.9687 73.5876 5.0079C73.1114 5.01464 72.616 5.00791 72.1129 5.01464ZM6.871 73.4574C8.0554 72.0709 9.25903 70.6988 10.3737 69.381C9.45006 70.9317 8.265 72.3109 6.871 73.4574Z" fill="#52BEDC"/>
<path id="Vector" fill-rule="evenodd" clip-rule="evenodd" d="M35.1512 49.3042H33.8314C33.7771 49.2645 33.5992 49.3468 33.5606 49.3042C33.5451 49.277 33.5798 49.1968 33.5606 49.1688H34.6132C34.8377 49.1823 35.0582 49.1474 35.2867 49.1688C35.368 49.1823 35.4607 49.1407 35.5459 49.1688H35.6194C35.8362 48.9104 36.0607 48.6385 36.2775 48.3811H30.5261C30.2281 48.3811 29.9108 48.3879 29.5973 48.3811C29.4424 48.3667 29.2527 48.3811 29.0786 48.3811C28.9432 48.3811 28.8 48.3879 28.6801 48.3811V48.2446C28.6351 48.2379 28.5895 48.2379 28.5445 48.2446C28.4583 48.2379 28.3716 48.2379 28.2853 48.2446C28.1512 48.2379 28.0168 48.2379 27.8827 48.2446C27.7978 48.2345 27.7121 48.2345 27.6272 48.2446C27.6003 48.2446 27.5111 48.2311 27.4957 48.2446V48.3811C27.4057 48.3913 27.3148 48.3913 27.2248 48.3811C27.217 48.3667 27.2325 48.2583 27.2248 48.2446C27.217 48.2309 27.1087 48.2446 27.0892 48.2446C26.7835 48.2311 26.4777 48.2446 26.1799 48.2446C25.7927 48.2311 25.4328 48.2379 25.0573 48.2446C24.8599 48.503 24.6626 48.7681 24.4729 49.04H31.9814C32.2872 49.04 32.6084 49.0121 32.8987 49.04V49.1688H32.2406C32.2214 49.19 32.26 49.277 32.2406 49.3042C32.2214 49.3186 32.1324 49.2974 32.1207 49.3042C32.0293 49.3115 31.9373 49.3115 31.8459 49.3042C31.717 49.3114 31.5878 49.3114 31.4589 49.3042C31.4396 49.3042 31.4666 49.1823 31.4589 49.1688C31.4396 49.1474 31.335 49.1756 31.3118 49.1688C31.2259 49.1547 31.1383 49.1547 31.0524 49.1688H29.4735C29.3889 49.1547 29.3026 49.1547 29.2181 49.1688C29.1947 49.1688 29.2218 49.2907 29.2181 49.3042C29.1947 49.3186 29.0942 49.2974 29.0786 49.3042H28.9432C28.8957 49.3114 28.8474 49.3114 28.7999 49.3042C28.7962 49.277 28.8231 49.1823 28.7999 49.1688C28.7419 49.1407 28.6258 49.1823 28.5445 49.1688C28.413 49.1615 28.2813 49.1615 28.1498 49.1688C28.1343 49.1688 28.0259 49.1551 28.022 49.1688C28.0065 49.1823 28.0259 49.2974 28.022 49.3042C27.9758 49.3114 27.9288 49.3114 27.8827 49.3042C27.8789 49.2907 27.9059 49.1688 27.8827 49.1688C27.7539 49.1581 27.6245 49.1581 27.4957 49.1688C27.3191 49.1581 27.142 49.1581 26.9654 49.1688C26.919 49.1756 26.7216 49.1407 26.71 49.1688C26.6945 49.1823 26.7177 49.2974 26.71 49.3042C26.572 49.3114 26.4338 49.3114 26.2958 49.3042H25.9128C25.7349 49.3149 25.5566 49.3149 25.3787 49.3042C25.3438 49.2974 25.1465 49.3323 25.1193 49.3042C25.1039 49.2907 25.1271 49.1688 25.1193 49.1688C24.9427 49.1581 24.7656 49.1581 24.589 49.1688H24.3802C23.4667 50.3996 22.5571 51.6361 21.6476 52.8669H21.818C21.8489 52.8784 21.9341 52.8407 21.9533 52.8669C21.9573 52.8784 21.9341 52.9887 21.9533 52.9887C22.0191 53.0284 22.1352 52.9761 22.2127 52.9887H24.1943C24.2098 52.9761 24.1749 52.8851 24.1943 52.8669C24.2098 52.8522 24.295 52.8669 24.3259 52.8669C24.4561 52.8595 24.5866 52.8595 24.7169 52.8669C24.9025 52.8851 25.0767 52.8407 25.2392 52.8669C25.2895 52.8669 25.4909 52.833 25.5141 52.8669C25.5258 52.893 25.4909 52.9626 25.5141 52.9887H26.71C26.7488 53.0284 26.9267 52.9481 26.9654 52.9887C26.981 53.0149 26.9462 53.0981 26.9654 53.131H21.4425C17.1194 58.8862 12.6762 64.5349 8.27967 70.0743C6.18548 72.4106 4.24493 74.8802 2.47021 77.4675C1.83736 77.8772 1.30117 78.4197 0.898804 79.0573C1.77348 78.6218 2.62497 78.1333 3.52304 77.7393C5.58588 74.7632 8.43444 71.7036 10.7914 68.8899C11.7629 67.7222 12.6222 66.0713 13.8218 65.7239C13.9187 65.696 14.298 65.752 14.3598 65.7239C14.925 65.3845 15.25 64.202 15.939 64.1343C16.8331 64.0395 17.1735 63.7056 17.9206 63.7405C19.7898 62.5862 21.8217 61.5711 23.7261 60.4429C24.7726 60.4031 25.8038 60.1783 26.772 59.7791C29.6746 56.2784 32.5967 52.7914 35.5033 49.3042H35.1512ZM26.5746 52.2147H26.4391V52.0782C26.4391 52.0647 26.5592 52.0647 26.5746 52.0715V52.2147ZM28.9432 53.131H27.6272C27.5809 53.131 27.4105 53.1649 27.3486 53.131C27.3486 53.1126 27.3835 53.0149 27.3486 52.9887C27.4105 52.9626 27.5924 53.0428 27.6272 52.9887C27.6544 52.9761 27.6041 52.893 27.6272 52.8669H28.1498C28.1769 52.893 28.1266 52.9761 28.1498 52.9887C28.1615 53.0022 28.2659 52.9887 28.2853 52.9887C28.4167 52.9985 28.5487 52.9985 28.6801 52.9887C28.7149 53.0022 28.9238 52.9761 28.9432 52.9887C28.9664 53.0149 28.9315 53.0981 28.9432 53.131V53.131ZM32.1207 53.131C31.935 53.1522 31.7569 53.1049 31.5867 53.131C31.5556 53.1388 31.335 53.0981 31.3118 53.131C31.3041 53.1522 31.3273 53.2345 31.3118 53.2606H31.0524C31.0447 53.2412 31.0796 53.1522 31.0524 53.131C31.0447 53.1126 30.9403 53.131 30.9286 53.131C30.8836 53.1349 30.8383 53.1349 30.7932 53.131C30.5687 53.0981 30.3519 53.1522 30.1314 53.131C30.1274 53.131 30.1391 53.0022 30.1314 52.9887C30.2177 52.9955 30.3045 52.9955 30.3908 52.9887C30.4409 52.9887 30.6385 53.0149 30.6617 52.9887C30.6771 52.9761 30.65 52.893 30.6617 52.8669H30.9286C30.9403 52.893 30.9016 52.9761 30.9286 52.9887C30.9403 53.0149 31.037 52.9887 31.0524 52.9887C31.1384 53.0018 31.2259 53.0018 31.3118 52.9887H31.722C31.8072 53.0149 31.9002 52.9761 31.9814 52.9887C32.0008 53.0022 32.0898 52.982 32.1207 52.9887C32.1324 53.0149 32.0898 53.0981 32.1207 53.131V53.131Z" fill="#FCEE0A"/>
<path id="Vector_2" fill-rule="evenodd" clip-rule="evenodd" d="M42.6129 23.2091C44.8267 22.0459 46.9942 20.1089 48.9447 19.1171C46.6884 21.9028 44.281 24.5685 41.8775 27.2583H46.8973C46.9284 27.2989 46.8509 27.4818 46.8973 27.5167C46.9128 27.5292 47.0019 27.4963 47.0211 27.5167C47.056 27.5292 47.0019 27.6192 47.0211 27.6386C47.056 27.6647 47.1373 27.6251 47.1644 27.6386C47.1916 27.6647 47.2728 27.6251 47.3 27.6386V27.7886C47.2728 27.8011 47.1838 27.7605 47.1644 27.7886C47.1295 27.8292 47.2031 27.9927 47.1644 28.0401C47.1295 28.073 46.9399 28.0401 46.8973 28.0401C46.7672 28.0474 46.6367 28.0474 46.5065 28.0401C46.4176 28.0474 46.3283 28.0474 46.2394 28.0401C46.2123 28.0401 46.1195 28.0605 46.1116 28.0401C46.0846 28.0208 46.1195 27.9366 46.1116 27.9105H45.3144C45.3027 27.9366 45.3415 28.0208 45.3144 28.0401C45.2912 28.0605 45.206 28.0276 45.1751 28.0401H44.9234C44.8925 28.0276 44.7996 28.0605 44.7881 28.0401C44.7649 28.0343 44.7996 27.9182 44.7881 27.9105C44.6995 27.8979 44.6096 27.8979 44.521 27.9105C44.4938 27.9105 44.4048 27.899 44.3933 27.9105C44.3777 27.9319 44.4048 28.0343 44.3933 28.0401C44.3482 28.0435 44.3029 28.0435 44.2578 28.0401V27.9105C44.2346 27.899 44.1456 27.9182 44.1262 27.9105C44.0374 27.9012 43.9479 27.9012 43.8591 27.9105C43.7238 27.9037 43.6037 27.9105 43.4683 27.9105C42.8954 27.899 42.346 27.9105 41.7459 27.9105H41.2931C39.776 29.6105 38.2589 31.3367 36.7996 33.1171C35.4103 34.8025 34.1176 36.5829 32.7861 38.3487C32.8233 38.3424 32.8613 38.3424 32.8985 38.3487C32.9434 38.3424 32.9889 38.3424 33.0338 38.3487C33.0532 38.3622 33.0184 38.4445 33.0338 38.4726C33.0106 38.4988 32.9256 38.4445 32.8985 38.4726C32.8985 38.4843 32.9177 38.6062 32.8985 38.6062H32.7784C32.7514 38.58 32.7861 38.5055 32.7784 38.4726C32.7861 38.4445 32.7629 38.3904 32.7784 38.3487C32.4726 38.7639 32.1591 39.1576 31.8456 39.5581V39.6598H31.7799C31.5593 39.9384 31.3348 40.2249 31.1257 40.5035C29.1635 42.9776 27.1433 45.3713 25.3165 47.8919C25.2933 47.9181 25.2739 47.9462 25.2546 47.9722H25.777C25.8582 47.9791 25.9744 47.9462 26.0364 47.9722C26.0558 47.9791 26.0287 48.0943 26.0364 48.1077C26.0558 48.1289 26.1525 48.1077 26.1797 48.1077C26.3109 48.1218 26.4432 48.1218 26.5744 48.1077C26.6589 48.1218 26.7453 48.1218 26.8298 48.1077C26.8607 48.101 26.9459 48.1289 26.9652 48.1077C26.9729 48.101 26.9537 47.9722 26.9652 47.9722H27.4955C27.5843 47.965 27.6737 47.965 27.7626 47.9722C27.8024 47.9757 27.8426 47.9757 27.8824 47.9722C27.9056 47.9859 27.8787 48.1077 27.8824 48.1077C28.0158 48.129 28.1517 48.129 28.2851 48.1077C28.9662 48.1359 29.5894 48.1222 30.2705 48.1077C30.355 48.1218 30.4413 48.1218 30.5259 48.1077C30.5414 48.101 30.6497 48.1289 30.6614 48.1077C30.6769 48.101 30.6497 47.9722 30.6614 47.9722C30.7503 47.965 30.8395 47.965 30.9284 47.9722C30.9401 47.9791 30.9091 48.0943 30.9284 48.1077C30.9361 48.1289 31.0368 48.1077 31.0522 48.1077C31.42 48.1222 31.7799 48.1077 32.1205 48.1077C32.4726 48.1077 32.8172 48.1359 33.1771 48.1077H33.4287C33.5172 48.1218 33.6073 48.1218 33.6957 48.1077C33.7151 48.101 33.8118 48.1289 33.8312 48.1077C33.8427 48.0943 33.8041 47.9859 33.8312 47.9722H34.0944C34.1021 47.9859 34.0749 48.101 34.0944 48.1077C34.1718 48.1503 34.284 48.101 34.3538 48.1077C34.5329 48.1184 34.7125 48.1184 34.8916 48.1077C35.2245 48.1289 35.4876 48.1077 35.8088 48.1077H36.5093C39.2186 44.8605 41.9473 41.6124 44.6488 38.3487H44.6565C45.5349 37.2882 46.4173 36.2288 47.2883 35.176H46.762V34.9109H46.8973C46.9128 34.8829 46.8818 34.8025 46.8973 34.7745C46.9128 34.7609 47.0019 34.7813 47.0211 34.7745C47.1103 34.7531 47.2108 34.8025 47.3 34.7745V35.1683C48.5307 33.6801 49.7613 32.1998 50.9998 30.7107V30.6845C50.9536 30.6778 50.9067 30.6778 50.8605 30.6845C50.7759 30.6705 50.6896 30.6705 50.6051 30.6845C50.5819 30.6982 50.6168 30.821 50.6051 30.821C50.4697 30.8472 50.3265 30.7929 50.2026 30.821H49.5447C49.4558 30.8137 49.3665 30.8137 49.2776 30.821C49.2504 30.821 49.1654 30.8064 49.15 30.821C49.1306 30.8325 49.1654 30.9215 49.15 30.9496C49.1306 30.9691 49.0416 30.9215 49.0144 30.9496C48.9913 30.9546 49.0144 31.0648 49.0144 31.0785V31.2148H48.8789C48.8634 31.2003 48.8789 31.0909 48.8789 31.0785V30.9496C48.8519 30.9284 48.7745 30.9691 48.7473 30.9496C48.7281 30.9284 48.7628 30.821 48.7473 30.821C48.6602 30.807 48.5713 30.807 48.4842 30.821H48.3565V30.5482H48.6197C48.6389 30.5751 48.5926 30.6633 48.6197 30.6845C48.6312 30.7039 48.7281 30.6845 48.7473 30.6845C48.9255 30.6982 49.0996 30.6778 49.2776 30.6845C49.4092 30.6566 49.5524 30.7241 49.6723 30.6845C49.6685 30.6391 49.6685 30.5935 49.6723 30.5482C49.6723 30.5345 49.773 30.5626 49.8001 30.5482C49.8463 30.5554 49.8933 30.5554 49.9394 30.5482H50.6051V30.0236H50.3304C50.3187 29.9975 50.3536 29.9085 50.3304 29.8824C50.2881 29.8887 50.245 29.8887 50.2026 29.8824C50.0671 29.8824 49.9394 29.895 49.8001 29.8824C49.773 29.9085 49.6917 29.8689 49.6723 29.8824C49.6454 29.9085 49.6878 30.0044 49.6723 30.0236C49.6375 30.045 49.5639 30.0044 49.5447 30.0236H48.7473C48.6583 30.0044 48.5654 30.045 48.4842 30.0236C48.457 30.0169 48.368 30.0381 48.3565 30.0236C48.3332 30.0044 48.368 29.923 48.3565 29.8824C48.3254 29.8689 48.2365 29.9085 48.2171 29.8824C48.2133 29.8689 48.2365 29.7866 48.2171 29.7605H50.7251C50.9497 29.7605 51.174 29.747 51.387 29.7605C51.472 29.7732 51.5766 29.7325 51.6579 29.7605C51.6694 29.7732 51.774 29.747 51.7778 29.7605C54.5722 26.3886 57.3524 22.9995 60.1183 19.5933H50.8605V20.2522H50.7251V19.5933C50.76 19.4712 50.6903 19.3212 50.7251 19.1993C50.7329 19.1714 50.7174 19.0892 50.7251 19.063C50.7521 19.0493 50.8335 19.0892 50.8605 19.063H60.5442C61.0279 18.463 61.5233 17.8738 62.0187 17.2671C64.0544 14.9972 65.9548 12.5792 67.8242 10.1391C69.6448 8.16094 71.3617 6.08976 72.9678 3.93388C73.1846 3.83995 73.9392 3.17334 73.3703 3.13173C69.3685 2.9296 64.9136 3.26826 60.5674 3.13173C55.7759 6.99149 50.8141 11.0011 46.3014 14.8898C45.6899 15.419 45.0899 16.2493 44.196 16.3431C44.1185 10.8396 44.8616 7.04757 44.9892 2.21444C44.5753 1.52762 44.5481 0.455373 43.658 0.237793H43.5379C41.3229 1.26678 39.2366 2.55283 37.3222 4.06942C36.8539 4.64111 35.898 4.73603 35.747 5.64757C35.1519 9.89808 35.5115 14.2278 36.7996 18.3219C38.6094 20.0975 40.5528 21.7313 42.6129 23.2091V23.2091ZM31.9812 42.3042H31.8456V42.1687H31.9812V42.3042ZM34.0944 38.6062C34.0068 38.6134 33.9188 38.6134 33.8312 38.6062C33.8041 38.58 33.8389 38.5055 33.8312 38.4726C33.8698 38.5122 34.0635 38.432 34.0944 38.4726V38.6062ZM34.4931 38.3487H34.2299C34.2065 38.3081 34.2454 38.2404 34.2299 38.2055C34.2646 38.2404 34.4582 38.1668 34.4931 38.2055V38.3487ZM35.4103 42.5644L35.2865 42.5713V42.4348H35.4103C35.4219 42.4772 35.4219 42.522 35.4103 42.5644V42.5644ZM35.5457 38.3487C35.5008 38.3424 35.4552 38.3424 35.4103 38.3487C35.3947 38.3487 35.4258 38.4581 35.4103 38.4726C35.3246 38.4882 35.2367 38.4882 35.151 38.4726V38.3487C35.1704 38.3226 35.2594 38.3487 35.2865 38.3487C35.3212 38.3361 35.3792 38.3622 35.4103 38.3487C35.4258 38.3361 35.3947 38.2269 35.4103 38.2055H35.5457C35.5496 38.2532 35.5496 38.3011 35.5457 38.3487V38.3487ZM36.4669 38.3487C36.4825 38.3886 36.4825 38.4328 36.4669 38.4726C36.4669 38.492 36.3468 38.4581 36.3314 38.4726C36.3314 38.4843 36.3468 38.5945 36.3314 38.6062C36.2443 38.6206 36.1554 38.6206 36.0682 38.6062C36.0605 38.5945 36.0877 38.4988 36.0682 38.4726C36.0954 38.4445 36.1881 38.4988 36.2036 38.4726C36.223 38.4445 36.1881 38.3487 36.2036 38.3487C36.2385 38.3226 36.3042 38.3622 36.3314 38.3487V38.2055C36.3663 38.2269 36.4475 38.1863 36.4669 38.2055C36.4824 38.2192 36.4669 38.3226 36.4669 38.3487V38.3487ZM37.535 38.4726C37.4875 38.4785 37.4395 38.4785 37.3919 38.4726C37.347 38.4785 37.3014 38.4785 37.2564 38.4726V38.3487C37.3014 38.3424 37.347 38.3424 37.3919 38.3487C37.4394 38.3424 37.4875 38.3424 37.535 38.3487C37.5158 38.3622 37.5505 38.4445 37.535 38.4726V38.4726ZM38.4523 38.4726C38.4446 38.4843 38.3362 38.4726 38.3324 38.4726C38.2848 38.4785 38.2367 38.4785 38.1891 38.4726V38.3487C38.2367 38.3424 38.2849 38.3424 38.3324 38.3487C38.3721 38.3424 38.4126 38.3424 38.4523 38.3487C38.4329 38.3622 38.4795 38.4445 38.4523 38.4726V38.4726ZM39.7643 38.4726C39.7566 38.4843 39.6482 38.4726 39.6328 38.4726C39.5904 38.4785 39.5475 38.4785 39.5051 38.4726V38.3487C39.5474 38.3424 39.5905 38.3424 39.6328 38.3487C39.6764 38.3424 39.7207 38.3424 39.7643 38.3487C39.7489 38.3622 39.7992 38.4445 39.7643 38.4726V38.4726ZM40.5578 38.6062H40.4224C40.4068 38.58 40.4416 38.5055 40.4224 38.4726C40.4416 38.4445 40.4068 38.3622 40.4224 38.3487C40.4673 38.3424 40.5129 38.3424 40.5578 38.3487C40.6053 38.3424 40.6535 38.3424 40.701 38.3487C40.7242 38.3622 40.6739 38.4445 40.701 38.4726C40.6661 38.4988 40.5809 38.4445 40.5578 38.4726C40.5578 38.4843 40.5732 38.6062 40.5578 38.6062V38.6062ZM40.8364 42.1687H40.701V42.0391C40.7459 42.0323 40.7915 42.0323 40.8364 42.0391V42.1687ZM41.7459 38.4726C41.6686 38.4581 41.564 38.4988 41.4982 38.4726C41.4673 38.4726 41.3589 38.492 41.3552 38.4726C41.3395 38.4445 41.3589 38.3622 41.3552 38.3487C41.4441 38.3622 41.5371 38.3226 41.6183 38.3487C41.6375 38.3487 41.7344 38.3226 41.7459 38.3487C41.7769 38.3622 41.7267 38.4445 41.7459 38.4726V38.4726ZM42.6709 38.4726C42.6292 38.4843 42.585 38.4843 42.5433 38.4726V38.3487C42.5849 38.3361 42.6293 38.3361 42.6709 38.3487V38.4726ZM47.0211 29.358H46.6341C46.6226 29.3386 46.6536 29.2554 46.6341 29.2292C46.6226 29.21 46.5297 29.2496 46.5065 29.2292C46.518 29.21 46.4871 29.119 46.5065 29.0929C46.518 29.0804 46.6149 29.1064 46.6341 29.0929C46.7619 29.0667 46.905 29.1258 47.0211 29.0929V29.358ZM50.0671 28.0401C50.2026 28.0537 50.3304 28.0343 50.462 28.0401C50.5496 28.0339 50.6375 28.0339 50.7251 28.0401C50.7521 28.073 50.7174 28.1427 50.7251 28.1689H50.2026C50.1755 28.1562 50.0942 28.195 50.0671 28.1689C50.0478 28.1562 50.0865 28.073 50.0671 28.0401ZM49.2776 28.0401C49.3588 28.0605 49.4478 28.0208 49.5447 28.0401C49.5639 28.047 49.6608 28.0343 49.6723 28.0401C49.6917 28.0605 49.6608 28.1427 49.6723 28.1689C49.5834 28.1562 49.4944 28.195 49.4131 28.1689C49.3783 28.1689 49.2931 28.195 49.2776 28.1689C49.2504 28.1562 49.2931 28.073 49.2776 28.0401Z" fill="#FCEE0A"/>
</g>
</svg>
