<svg width="38" height="38" viewBox="0 0 38 38" fill="none" xmlns="http://www.w3.org/2000/svg">
<g id="Group 434">
<g id="Group 432">
<g id="Group 428">
<g id="Vector 481" >
<path fill-rule="evenodd"  clip-rule="evenodd" d="M2.44948 0L0 2.31553V6.72454L0.595819 7.26377V8.75459L0 9.19866V29.0234L0.595819 29.4992V30.99L0 31.3706V35.8114L2.28397 38H35.6498L38 35.8114V31.3072L37.2056 30.6093V29.7212L38 28.9599V9.19866L37.1394 8.37396V7.58097L38 6.85142V2.34725L35.6498 0.0951586L2.44948 0ZM1.82056 3.01336L3.1777 1.71285H34.6899L36.1463 3.01336V35.1452L34.6237 36.414H3.1446L1.82056 35.1452V3.01336Z" fill="#FCEE0A"/>
<path  d="M3.1777 1.71285L1.82056 3.01336V35.1452L3.1446 36.414H34.6237L36.1463 35.1452V3.01336L34.6899 1.71285H3.1777Z" fill="#FCEE0A"/>
</g>
<g id="Group 426">
<rect id="Rectangle 1552" x="2.08716" y="12.0001" width="11.3052" height="0.902778" fill="#04D8F5"/>
<rect id="Rectangle 1553" x="2.08716" y="14.7084" width="7.53678" height="0.902778" fill="#04D8F5"/>
<rect id="Rectangle 1554" x="23.7557" y="25.5416" width="12.2473" height="0.902778" fill="#04D8F5"/>
<rect id="Rectangle 1555" x="27.5238" y="21.028" width="8.47888" height="0.902778" fill="#04D8F5"/>
</g>
<path id="Vector 403" d="M3.13086 2.00012L6.30785 5.09101H33.6576" stroke="#080808" stroke-width="0.371348"/>
<path id="Vector 404" d="M34.2867 36.4996L31.1242 33.5431H4.17432" stroke="#080808" stroke-width="0.371348"/>
<path id="Vector 482" d="M1.82617 2.99976L3.13061 1.74976H34.959L36.2635 2.99976V34.9998L34.6981 36.4998H3.13061L1.82617 35.2498V2.99976Z" stroke="black" stroke-width="0.553873"/>
</g>
</g>
<g id="Group 433">
<g id="Group 428_2">
<g id="Vector 481_2">
<path fill-rule="evenodd"  clip-rule="evenodd" d="M2.44948 0L0 2.31553V6.72454L0.595819 7.26377V8.75459L0 9.19866V29.0234L0.595819 29.4992V30.99L0 31.3706V35.8114L2.28397 38H35.6498L38 35.8114V31.3072L37.2056 30.6093V29.7212L38 28.9599V9.19866L37.1394 8.37396V7.58097L38 6.85142V2.34725L35.6498 0.0951586L2.44948 0ZM1.82056 3.01336L3.1777 1.71285H34.6899L36.1463 3.01336V35.1452L34.6237 36.414H3.1446L1.82056 35.1452V3.01336Z" fill="#FCEE0A"/>
<path d="M3.1777 1.71285L1.82056 3.01336V35.1452L3.1446 36.414H34.6237L36.1463 35.1452V3.01336L34.6899 1.71285H3.1777Z" fill="#FCEE0A"/>
</g>
<g id="Group 426_2">
<rect id="Rectangle 1552_2" x="2.08716" y="12.0001" width="11.3052" height="0.902778" fill="#04D8F5"/>
<rect id="Rectangle 1553_2" x="2.08716" y="14.7084" width="7.53678" height="0.902778" fill="#04D8F5"/>
<rect id="Rectangle 1554_2" x="23.7557" y="25.5416" width="12.2473" height="0.902778" fill="#04D8F5"/>
<rect id="Rectangle 1555_2" x="27.5238" y="21.028" width="8.47888" height="0.902778" fill="#04D8F5"/>
</g>
<path id="Vector 403_2" d="M3.13086 2.00012L6.30785 5.09101H33.6576" stroke="#080808" stroke-width="0.371348"/>
<path id="Vector 404_2" d="M34.2867 36.4996L31.1242 33.5431H4.17432" stroke="#080808" stroke-width="0.371348"/>
<path id="Vector 482_2" d="M1.82617 2.99976L3.13061 1.74976H34.959L36.2635 2.99976V34.9998L34.6981 36.4998H3.13061L1.82617 35.2498V2.99976Z" stroke="black" stroke-width="0.553873"/>
</g>
</g>
<path  class="cyber-dc" d="M26.2503 12.4238C26.2503 12.4238 29.4076 16.1364 29.4076 22.824V24.2263C29.4076 24.2263 25.4204 26.8643 24.2053 26.8643L23.0265 25.1242C23.7591 24.7911 24.7585 24.2129 24.7585 24.2129L24.3934 23.9259C24.3934 23.9259 22.0573 25.0247 19.1903 25.0247C16.3233 25.0247 13.9873 23.9259 13.9873 23.9259L13.6221 24.2129C13.6221 24.2129 14.6215 24.7911 15.3542 25.1242L14.1753 26.8643C12.9594 26.8643 8.97229 24.2263 8.97229 24.2263V22.824C8.97229 16.1364 12.1295 12.4238 12.1295 12.4238C12.1295 12.4238 14.2892 11.3626 16.2836 11.0833L16.9023 12.2743C16.9023 12.2743 17.8859 12.043 19.1899 12.043C20.494 12.043 21.4775 12.2743 21.4775 12.2743L22.0963 11.0833C24.0906 11.3626 26.2503 12.4238 26.2503 12.4238ZM15.7878 21.8469C16.7929 21.8469 17.6073 20.9179 17.6073 19.7718C17.6073 18.6257 16.7926 17.6967 15.7878 17.6967C14.7831 17.6967 13.9683 18.6257 13.9683 19.7718C13.9683 20.9179 14.7827 21.8469 15.7878 21.8469ZM22.592 21.8469C23.5971 21.8469 24.4115 20.9179 24.4115 19.7718C24.4115 18.6257 23.5968 17.6967 22.592 17.6967C21.5869 17.6967 20.7725 18.6257 20.7725 19.7718C20.7725 20.9179 21.5869 21.8469 22.592 21.8469Z" fill="url(#paint0_linear_387_405)"/>
</g>
<defs>
<linearGradient id="paint0_linear_387_405" x1="19.1899" y1="11.0833" x2="19.1899" y2="26.8643" gradientUnits="userSpaceOnUse">
<stop stop-color="#210308"/>
<stop offset="0.940625" stop-color="#060714"/>
</linearGradient>
</defs>
</svg>
