<svg width="38" height="38" viewBox="0 0 38 38" fill="none" xmlns="http://www.w3.org/2000/svg">
<g id="Group 442">
<g id="Group 436">
<g id="Group 432">
<g id="Group 428">
<g id="Vector 481">
<path fill-rule="evenodd" clip-rule="evenodd" d="M2.44948 0L0 2.31553V6.72454L0.595819 7.26377V8.75459L0 9.19866V29.0234L0.595819 29.4992V30.99L0 31.3706V35.8114L2.28397 38H35.6498L38 35.8114V31.3072L37.2056 30.6093V29.7212L38 28.9599V9.19866L37.1394 8.37396V7.58097L38 6.85142V2.34725L35.6498 0.0951586L2.44948 0ZM1.82056 3.01336L3.1777 1.71285H34.6899L36.1463 3.01336V35.1452L34.6237 36.414H3.1446L1.82056 35.1452V3.01336Z" fill="#FCEE0A"/>
<path d="M3.1777 1.71285L1.82056 3.01336V35.1452L3.1446 36.414H34.6237L36.1463 35.1452V3.01336L34.6899 1.71285H3.1777Z" fill="#FCEE0A"/>
</g>
<g id="Group 426">
<rect id="Rectangle 1552" x="2.08716" y="12.0001" width="11.3052" height="0.902778" fill="#04D8F5"/>
<rect id="Rectangle 1553" x="2.08716" y="14.7085" width="7.53678" height="0.902778" fill="#04D8F5"/>
<rect id="Rectangle 1554" x="23.7556" y="25.5415" width="12.2473" height="0.902778" fill="#04D8F5"/>
<rect id="Rectangle 1555" x="27.5239" y="21.028" width="8.47888" height="0.902778" fill="#04D8F5"/>
</g>
<path id="Vector 403" d="M3.13086 2.00012L6.30785 5.09101H33.6576" stroke="#080808" stroke-width="0.703608"/>
<path id="Vector 404" d="M34.2867 36.4996L31.1242 33.5431H4.17432" stroke="#080808" stroke-width="0.703608"/>
<path id="Vector 482" d="M1.82617 2.99976L3.13061 1.74976H34.959L36.2635 2.99976V34.9998L34.6981 36.4998H3.13061L1.82617 35.2498V2.99976Z" stroke="black" stroke-width="1.04944"/>
</g>
</g>
<g id="Group 433">
<g id="Group 428_2">
<g id="Vector 481_2">
<path fill-rule="evenodd" clip-rule="evenodd" d="M2.44948 0L0 2.31553V6.72454L0.595819 7.26377V8.75459L0 9.19866V29.0234L0.595819 29.4992V30.99L0 31.3706V35.8114L2.28397 38H35.6498L38 35.8114V31.3072L37.2056 30.6093V29.7212L38 28.9599V9.19866L37.1394 8.37396V7.58097L38 6.85142V2.34725L35.6498 0.0951586L2.44948 0ZM1.82056 3.01336L3.1777 1.71285H34.6899L36.1463 3.01336V35.1452L34.6237 36.414H3.1446L1.82056 35.1452V3.01336Z" fill="#FCEE0A"/>
<path d="M3.1777 1.71285L1.82056 3.01336V35.1452L3.1446 36.414H34.6237L36.1463 35.1452V3.01336L34.6899 1.71285H3.1777Z" fill="#FCEE0A"/>
</g>
<g id="Group 426_2">
<rect id="Rectangle 1552_2" x="2.08716" y="12.0001" width="11.3052" height="0.902778" fill="#04D8F5"/>
<rect id="Rectangle 1553_2" x="2.08716" y="14.7085" width="7.53678" height="0.902778" fill="#04D8F5"/>
<rect id="Rectangle 1554_2" x="23.7556" y="25.5415" width="12.2473" height="0.902778" fill="#04D8F5"/>
<rect id="Rectangle 1555_2" x="27.5239" y="21.028" width="8.47888" height="0.902778" fill="#04D8F5"/>
</g>
<path id="Vector 403_2" d="M3.13086 2.00012L6.30785 5.09101H33.6576" stroke="#080808" stroke-width="0.703608"/>
<path id="Vector 404_2" d="M34.2867 36.4996L31.1242 33.5431H4.17432" stroke="#080808" stroke-width="0.703608"/>
<path id="Vector 482_2" d="M1.82617 2.99976L3.13061 1.74976H34.959L36.2635 2.99976V34.9998L34.6981 36.4998H3.13061L1.82617 35.2498V2.99976Z" stroke="black" stroke-width="1.04944"/>
</g>
</g>
</g>
<g id="Group 439">
<path id="cyber-fb" class="cyber-fb" d="M17.1812 16.9024H14.25V20.0412H17.1812V27.8881H20.6797V20.0412H23.3272L23.7055 16.9024H20.6797V15.2389C20.4906 13.3235 21.6042 12.9895 22.2871 12.9476H23.8946V10.2169L21.4361 10.0285C18.133 9.97832 17.2232 12.6232 17.1812 13.952V16.9024Z" fill="#0F0F0F"/>
</g>
</g>
</svg>
