<svg width="38" height="38" viewBox="0 0 38 38" fill="none" xmlns="http://www.w3.org/2000/svg">
<g id="Group 445">
<g id="Group 443">
<g id="Group 437">
<g id="Group 432">
<g id="Group 428">
<g id="Vector 481">
<path fill-rule="evenodd" clip-rule="evenodd" d="M2.44948 0L0 2.31553V6.72454L0.595819 7.26377V8.75459L0 9.19866V29.0234L0.595819 29.4992V30.99L0 31.3706V35.8114L2.28397 38H35.6498L38 35.8114V31.3072L37.2056 30.6093V29.7212L38 28.9599V9.19866L37.1394 8.37396V7.58097L38 6.85142V2.34725L35.6498 0.0951586L2.44948 0ZM1.82056 3.01336L3.1777 1.71285H34.6899L36.1463 3.01336V35.1452L34.6237 36.414H3.1446L1.82056 35.1452V3.01336Z" fill="#FCEE0A"/>
<path d="M3.1777 1.71285L1.82056 3.01336V35.1452L3.1446 36.414H34.6237L36.1463 35.1452V3.01336L34.6899 1.71285H3.1777Z" fill="#FCEE0A"/>
</g>
<g id="Group 426">
<rect id="Rectangle 1552" x="2.08716" y="12.0001" width="11.3052" height="0.902778" fill="#04D8F5"/>
<rect id="Rectangle 1553" x="2.08716" y="14.7085" width="7.53678" height="0.902778" fill="#04D8F5"/>
<rect id="Rectangle 1554" x="23.7556" y="25.5415" width="12.2473" height="0.902778" fill="#04D8F5"/>
<rect id="Rectangle 1555" x="27.5239" y="21.028" width="8.47888" height="0.902778" fill="#04D8F5"/>
</g>
<path id="Vector 403" d="M3.13086 2.00012L6.30785 5.09101H33.6576" stroke="#080808" stroke-width="0.703608"/>
<path id="Vector 404" d="M34.2867 36.4996L31.1242 33.5431H4.17432" stroke="#080808" stroke-width="0.703608"/>
<path id="Vector 482" d="M1.82617 2.99976L3.13061 1.74976H34.959L36.2635 2.99976V34.9998L34.6981 36.4998H3.13061L1.82617 35.2498V2.99976Z" stroke="black" stroke-width="1.04944"/>
</g>
</g>
<g id="Group 433">
<g id="Group 428_2">
<g id="Vector 481_2">
<path fill-rule="evenodd" clip-rule="evenodd" d="M2.44948 0L0 2.31553V6.72454L0.595819 7.26377V8.75459L0 9.19866V29.0234L0.595819 29.4992V30.99L0 31.3706V35.8114L2.28397 38H35.6498L38 35.8114V31.3072L37.2056 30.6093V29.7212L38 28.9599V9.19866L37.1394 8.37396V7.58097L38 6.85142V2.34725L35.6498 0.0951586L2.44948 0ZM1.82056 3.01336L3.1777 1.71285H34.6899L36.1463 3.01336V35.1452L34.6237 36.414H3.1446L1.82056 35.1452V3.01336Z" fill="#FCEE0A"/>
<path d="M3.1777 1.71285L1.82056 3.01336V35.1452L3.1446 36.414H34.6237L36.1463 35.1452V3.01336L34.6899 1.71285H3.1777Z" fill="#FCEE0A"/>
</g>
<g id="Group 426_2">
<rect id="Rectangle 1552_2" x="2.08716" y="12.0001" width="11.3052" height="0.902778" fill="#04D8F5"/>
<rect id="Rectangle 1553_2" x="2.08716" y="14.7085" width="7.53678" height="0.902778" fill="#04D8F5"/>
<rect id="Rectangle 1554_2" x="23.7556" y="25.5415" width="12.2473" height="0.902778" fill="#04D8F5"/>
<rect id="Rectangle 1555_2" x="27.5239" y="21.028" width="8.47888" height="0.902778" fill="#04D8F5"/>
</g>
<path id="Vector 403_2" d="M3.13086 2.00012L6.30785 5.09101H33.6576" stroke="#080808" stroke-width="0.703608"/>
<path id="Vector 404_2" d="M34.2867 36.4996L31.1242 33.5431H4.17432" stroke="#080808" stroke-width="0.703608"/>
<path id="Vector 482_2" d="M1.82617 2.99976L3.13061 1.74976H34.959L36.2635 2.99976V34.9998L34.6981 36.4998H3.13061L1.82617 35.2498V2.99976Z" stroke="black" stroke-width="1.04944"/>
</g>
</g>
</g>
</g>
<g id="cyber-ig">
<g id="logo-ig">
<path id="Subtract" class="cyber-ig" fill-rule="evenodd" clip-rule="evenodd" d="M15.1392 10C12.3009 10 10 12.3009 10 15.1392V23.1535C10 25.9918 12.3009 28.2927 15.1392 28.2927H23.1535C25.9918 28.2927 28.2927 25.9918 28.2927 23.1535V15.1392C28.2927 12.3009 25.9918 10 23.1535 10H15.1392ZM15.0678 11.6895C13.2021 11.6895 11.6896 13.202 11.6896 15.0677V23.2258C11.6896 25.0915 13.2021 26.604 15.0678 26.604H23.19C25.0557 26.604 26.5682 25.0915 26.5682 23.2258V15.0677C26.5682 13.202 25.0557 11.6895 23.19 11.6895H15.0678Z" fill="#0F0F0F"/>
<path id="Subtract_2" class="cyber-ig"  fill-rule="evenodd" clip-rule="evenodd" d="M19.147 23.8724C21.7372 23.8724 23.837 21.7726 23.837 19.1824C23.837 16.5922 21.7372 14.4924 19.147 14.4924C16.5568 14.4924 14.457 16.5922 14.457 19.1824C14.457 21.7726 16.5568 23.8724 19.147 23.8724ZM19.1465 22.2188C20.8435 22.2188 22.2192 20.843 22.2192 19.146C22.2192 17.449 20.8435 16.0733 19.1465 16.0733C17.4494 16.0733 16.0737 17.449 16.0737 19.146C16.0737 20.843 17.4494 22.2188 19.1465 22.2188Z" fill="#0F0F0F"/>
<circle id="Ellipse 5" class="cyber-ig" cx="24.0705" cy="14.2591" r="1.09613" fill="#0F0F0F"/>
</g>
</g>
</g>
</svg>
