<svg width="38" height="38" viewBox="0 0 38 38" fill="none" xmlns="http://www.w3.org/2000/svg">
<g id="Group 440">
<g id="Group 438">
<g id="Group 432">
<g id="Group 428">
<g id="Vector 481">
<path fill-rule="evenodd" clip-rule="evenodd" d="M2.44948 0L0 2.31553V6.72454L0.595819 7.26377V8.75459L0 9.19866V29.0234L0.595819 29.4992V30.99L0 31.3706V35.8114L2.28397 38H35.6498L38 35.8114V31.3072L37.2056 30.6093V29.7212L38 28.9599V9.19866L37.1394 8.37396V7.58097L38 6.85142V2.34725L35.6498 0.0951586L2.44948 0ZM1.82056 3.01336L3.1777 1.71285H34.6899L36.1463 3.01336V35.1452L34.6237 36.414H3.1446L1.82056 35.1452V3.01336Z" fill="#FCEE0A"/>
<path d="M3.1777 1.71285L1.82056 3.01336V35.1452L3.1446 36.414H34.6237L36.1463 35.1452V3.01336L34.6899 1.71285H3.1777Z" fill="#FCEE0A"/>
</g>
<g id="Group 426">
<rect id="Rectangle 1552" x="2.08716" y="12.0001" width="11.3052" height="0.902778" fill="#04D8F5"/>
<rect id="Rectangle 1553" x="2.08716" y="14.7085" width="7.53678" height="0.902778" fill="#04D8F5"/>
<rect id="Rectangle 1554" x="23.7556" y="25.5415" width="12.2473" height="0.902778" fill="#04D8F5"/>
<rect id="Rectangle 1555" x="27.5239" y="21.028" width="8.47888" height="0.902778" fill="#04D8F5"/>
</g>
<path id="Vector 403" d="M3.13086 2.00012L6.30785 5.09101H33.6576" stroke="#080808" stroke-width="0.703608"/>
<path id="Vector 404" d="M34.2867 36.4996L31.1242 33.5431H4.17432" stroke="#080808" stroke-width="0.703608"/>
<path id="Vector 482" d="M1.82617 2.99976L3.13061 1.74976H34.959L36.2635 2.99976V34.9998L34.6981 36.4998H3.13061L1.82617 35.2498V2.99976Z" stroke="black" stroke-width="1.04944"/>
</g>
</g>
<g id="Group 433">
<g id="Group 428_2">
<g id="Vector 481_2">
<path fill-rule="evenodd" clip-rule="evenodd" d="M2.44948 0L0 2.31553V6.72454L0.595819 7.26377V8.75459L0 9.19866V29.0234L0.595819 29.4992V30.99L0 31.3706V35.8114L2.28397 38H35.6498L38 35.8114V31.3072L37.2056 30.6093V29.7212L38 28.9599V9.19866L37.1394 8.37396V7.58097L38 6.85142V2.34725L35.6498 0.0951586L2.44948 0ZM1.82056 3.01336L3.1777 1.71285H34.6899L36.1463 3.01336V35.1452L34.6237 36.414H3.1446L1.82056 35.1452V3.01336Z" fill="#FCEE0A"/>
<path d="M3.1777 1.71285L1.82056 3.01336V35.1452L3.1446 36.414H34.6237L36.1463 35.1452V3.01336L34.6899 1.71285H3.1777Z" fill="#FCEE0A"/>
</g>
<g id="Group 426_2">
<rect id="Rectangle 1552_2" x="2.08716" y="12.0001" width="11.3052" height="0.902778" fill="#04D8F5"/>
<rect id="Rectangle 1553_2" x="2.08716" y="14.7085" width="7.53678" height="0.902778" fill="#04D8F5"/>
<rect id="Rectangle 1554_2" x="23.7556" y="25.5415" width="12.2473" height="0.902778" fill="#04D8F5"/>
<rect id="Rectangle 1555_2" x="27.5239" y="21.028" width="8.47888" height="0.902778" fill="#04D8F5"/>
</g>
<path id="Vector 403_2" d="M3.13086 2.00012L6.30785 5.09101H33.6576" stroke="#080808" stroke-width="0.703608"/>
<path id="Vector 404_2" d="M34.2867 36.4996L31.1242 33.5431H4.17432" stroke="#080808" stroke-width="0.703608"/>
<path id="Vector 482_2" d="M1.82617 2.99976L3.13061 1.74976H34.959L36.2635 2.99976V34.9998L34.6981 36.4998H3.13061L1.82617 35.2498V2.99976Z" stroke="black" stroke-width="1.04944"/>
</g>
</g>
</g>
<path id="cyber-tw" class="cyber-tw" d="M18.9091 16.0515C14.5456 15.8814 11.3919 13.2098 10.3606 11.8953C8.85316 14.3697 10.5523 16.4832 11.5903 17.2307C11.1777 17.2771 10.1887 16.9665 9.7457 16.8054C9.88851 19.5272 12.0266 20.5814 13.0779 20.7683C12.5066 20.9384 11.6366 20.9293 11.2729 20.9036C12.0028 23.0996 14.1291 23.6486 15.101 23.6486C13.2762 25.2879 10.2548 25.4915 8.97217 25.3884C12.9589 27.7081 19.1075 28.1721 23.4908 24.0352C26.3522 20.8944 27.0084 18.8919 27.18 15.0656C28.3066 14.2769 28.9717 13.3709 29.1634 13.0165C28.6715 13.2949 27.4511 13.5191 26.9023 13.5964C27.9178 13.0706 28.4891 11.9211 28.6477 11.412C28.0607 11.8296 26.6577 12.2304 26.0296 12.3786C25.017 11.4377 24.3182 11.1899 22.9156 11.0834C19.9603 11.2574 18.4926 13.4224 18.9091 16.0515Z" fill="#0F0F0F"/>
</g>
</svg>
