<svg width="38" height="38" viewBox="0 0 38 38" fill="none" xmlns="http://www.w3.org/2000/svg">
<path fill-rule="evenodd" clip-rule="evenodd" d="M2.44948 0L0 2.31553V6.72454L0.595819 7.26377V8.75459L0 9.19866V29.0234L0.595819 29.4992V30.99L0 31.3706V35.8114L2.28397 38H35.6498L38 35.8114V31.3072L37.2056 30.6093V29.7212L38 28.9599V9.19866L37.1394 8.37396V7.58097L38 6.85142V2.34725L35.6498 0.0951586L2.44948 0ZM1.82056 3.01336L3.1777 1.71285H34.6899L36.1463 3.01336V35.1452L34.6237 36.414H3.1446L1.82056 35.1452V3.01336Z" fill="#FCEE0A"/>
<path d="M3.1777 1.71285L1.82056 3.01336V35.1452L3.1446 36.414H34.6237L36.1463 35.1452V3.01336L34.6899 1.71285H3.1777Z" fill="#FCEE0A"/>
<rect x="2.08716" y="12.0001" width="11.3052" height="0.902778" fill="#04D8F5"/>
<rect x="2.08716" y="14.7085" width="7.53678" height="0.902778" fill="#04D8F5"/>
<rect x="23.7556" y="25.5415" width="12.2473" height="0.902778" fill="#04D8F5"/>
<rect x="27.5239" y="21.028" width="8.47888" height="0.902778" fill="#04D8F5"/>
<path d="M3.13086 2.00012L6.30785 5.09101H33.6576" stroke="#080808" stroke-width="0.703608"/>
<path d="M34.2867 36.4996L31.1242 33.5431H4.17432" stroke="#080808" stroke-width="0.703608"/>
<path d="M1.82617 2.99976L3.13061 1.74976H34.959L36.2635 2.99976V34.9998L34.6981 36.4998H3.13061L1.82617 35.2498V2.99976Z" stroke="black" stroke-width="1.04944"/>
<path fill-rule="evenodd" clip-rule="evenodd" d="M2.44948 0L0 2.31553V6.72454L0.595819 7.26377V8.75459L0 9.19866V29.0234L0.595819 29.4992V30.99L0 31.3706V35.8114L2.28397 38H35.6498L38 35.8114V31.3072L37.2056 30.6093V29.7212L38 28.9599V9.19866L37.1394 8.37396V7.58097L38 6.85142V2.34725L35.6498 0.0951586L2.44948 0ZM1.82056 3.01336L3.1777 1.71285H34.6899L36.1463 3.01336V35.1452L34.6237 36.414H3.1446L1.82056 35.1452V3.01336Z" fill="#FCEE0A"/>
<path d="M3.1777 1.71285L1.82056 3.01336V35.1452L3.1446 36.414H34.6237L36.1463 35.1452V3.01336L34.6899 1.71285H3.1777Z" fill="#FCEE0A"/>
<rect x="2.08716" y="12.0001" width="11.3052" height="0.902778" fill="#04D8F5"/>
<rect x="2.08716" y="14.7085" width="7.53678" height="0.902778" fill="#04D8F5"/>
<rect x="23.7556" y="25.5415" width="12.2473" height="0.902778" fill="#04D8F5"/>
<rect x="27.5239" y="21.028" width="8.47888" height="0.902778" fill="#04D8F5"/>
<path d="M3.13086 2.00012L6.30785 5.09101H33.6576" stroke="#080808" stroke-width="0.703608"/>
<path d="M34.2867 36.4996L31.1242 33.5431H4.17432" stroke="#080808" stroke-width="0.703608"/>
<path d="M1.82617 2.99976L3.13061 1.74976H34.959L36.2635 2.99976V34.9998L34.6981 36.4998H3.13061L1.82617 35.2498V2.99976Z" stroke="black" stroke-width="1.04944"/>
<path fill-rule="evenodd" class="cyber-yt" clip-rule="evenodd" d="M9.22953 23.7482C8.86877 21.996 8.36371 17.5019 9.22953 13.5439C9.34979 12.8653 9.98714 11.4824 11.5745 11.3793C14.409 11.156 21.4026 10.8433 26.7006 11.3793C27.4136 11.3879 28.9425 11.8329 29.3548 13.5439C29.6726 15.3219 30.1175 19.8262 29.3548 23.6194C29.2002 24.2292 28.4529 25.4799 26.7006 25.6036C25.3607 25.8355 20.4595 26.1602 11.5745 25.6036C10.9732 25.5349 9.66243 25.0676 9.22953 23.7482ZM17.1924 15.4255V21.5584L22.578 18.492L17.1924 15.4255Z" fill="#0F0F0F"/>
</svg>
