<svg width="1922" height="52" viewBox="0 0 1922 52" fill="none" xmlns="http://www.w3.org/2000/svg">
<path d="M91.1028 20.639H1V51H1921V9.56057H1885.57L1868.86 26.1781H1826.85L1817.74 17.114H1501.36L1495.29 24.1639H1493.26L1484.15 13.5891L1488.71 8.55344H1478.08L1483.14 13.5891L1480.1 17.114L1366.21 16.6105L1351.02 1L1320.15 30.7102L1308.5 19.6318H1303.95L1301.92 22.1496L1304.96 26.6817H1297.37L1300.4 22.1496L1298.38 19.6318L146.784 20.639L137.673 29.7031L118.944 11.0713H100.721L91.1028 20.639Z" fill="#FCEE0A" stroke="#F9F002" stroke-width="1.1693"/>
<rect x="151.334" y="26.6777" width="3.04956" height="3.0285" fill="#030300" stroke="#F9F002"/>
<rect x="157.408" y="26.6777" width="1.02478" height="3.0285" fill="#030300" stroke="#F9F002"/>
<rect x="163.483" y="26.6777" width="1.02478" height="3.0285" fill="#030300" stroke="#F9F002"/>
<rect x="174.619" y="26.6777" width="3.04956" height="3.0285" fill="#030300" stroke="#F9F002"/>
<rect x="1886.57" y="19.6289" width="1.02478" height="2.02138" fill="black" stroke="#F9F002"/>
<rect x="1886.57" y="24.6641" width="1.02478" height="2.02138" fill="black" stroke="#F9F002"/>
<rect x="1902.77" y="19.6289" width="2.03717" height="6.04988" fill="black" stroke="#F9F002"/>
<rect x="1911.88" y="19.6289" width="1.02478" height="2.02138" fill="black" stroke="#F9F002"/>
</svg>
