<svg width="1920" height="20" viewBox="0 0 1920 20" fill="none" xmlns="http://www.w3.org/2000/svg">
<path d="M0 20H158.457L166.081 10.1956H179.149L186.773 20H552.15L565.763 2.49211L571.753 10.1956H608.78L614.77 20H659.421L662.144 16.4984H800.998L803.176 19.2997H809.711L814.611 12.9968H815.701L818.423 16.4984H918.071L929.489 1.81405L931.701 1.81244L945.842 20H1177.27L1191.55 1.62288L1192.38 1.62228L1203.95 16.4984H1368.94L1371.12 13.6972L1368.39 6.69401H1376.02L1372.75 12.9968L1377.11 20H1384.73L1386.36 16.4984H1679.32L1683.13 20H1725.6L1733.77 9.49527H1769.71L1776.16 1.19641L1776.33 1.19629L1790.4 19.2997H1920L1920 1.09148L1776.33 1.19629L1776.24 1.09148L1776.16 1.19641L1192.38 1.62228L1191.97 1.09148L1191.55 1.62288L931.701 1.81244L930.596 0.391167L929.489 1.81405L0 2.49211V20Z" fill="#F9F002"/>
</svg>
